<mxfile host="65bd71144e">
    <diagram id="ftTBwaACecka0DdgyXsa" name="Page-1">
        <mxGraphModel dx="5498" dy="3297" grid="1" gridSize="10" guides="1" tooltips="1" connect="1" arrows="1" fold="1" page="1" pageScale="1" pageWidth="827" pageHeight="1169" background="#ffffff" math="0" shadow="0">
            <root>
                <mxCell id="0"/>
                <mxCell id="1" parent="0"/>
                <mxCell id="Fx0rlqK3VMQhxRzqNE1V-71" value="" style="rounded=0;whiteSpace=wrap;html=1;labelBackgroundColor=none;fontSize=14;strokeWidth=1;fillColor=#f9f7ed;strokeColor=none;" parent="1" vertex="1">
                    <mxGeometry x="-3360" y="-1560" width="740" height="790" as="geometry"/>
                </mxCell>
                <mxCell id="6" value="" style="rounded=0;whiteSpace=wrap;html=1;fillColor=#d5e8d4;strokeColor=#82b366;" parent="1" vertex="1">
                    <mxGeometry x="-3040" y="-1530" width="380" height="720" as="geometry"/>
                </mxCell>
                <mxCell id="IKtMQjf0WyuQC_6Y6BPb-26" value="" style="rounded=0;whiteSpace=wrap;html=1;fillColor=none;strokeColor=#CC6600;dashed=1;strokeWidth=1;" parent="1" vertex="1">
                    <mxGeometry x="-3320" y="-1530" width="260" height="720" as="geometry"/>
                </mxCell>
                <mxCell id="IKtMQjf0WyuQC_6Y6BPb-27" value="" style="rounded=0;whiteSpace=wrap;html=1;fillColor=#f5f5f5;strokeColor=#666666;dashed=1;strokeWidth=1;fontColor=#333333;" parent="1" vertex="1">
                    <mxGeometry x="-3270" y="-1458" width="140" height="640" as="geometry"/>
                </mxCell>
                <mxCell id="3" value="" style="rounded=0;whiteSpace=wrap;html=1;fillColor=#b0e3e6;strokeColor=#0e8088;" parent="1" vertex="1">
                    <mxGeometry x="-2960" y="-1280" width="220" height="180" as="geometry"/>
                </mxCell>
                <mxCell id="Fx0rlqK3VMQhxRzqNE1V-29" value="" style="rounded=0;whiteSpace=wrap;html=1;dashed=1;strokeWidth=2;" parent="1" vertex="1">
                    <mxGeometry x="-2942" y="-1260" width="170" height="130" as="geometry"/>
                </mxCell>
                <mxCell id="d4jD8QWkE9txwT-wBxxp-2" value="Microsoft Fabric" style="shape=image;verticalLabelPosition=bottom;labelBackgroundColor=none;verticalAlign=top;aspect=fixed;imageAspect=0;image=data:image/png,iVBORw0KGgoAAAANSUhEUgAAAQAAAAEACAYAAABccqhmAAAACXBIWXMAAAsTAAALEwEAmpwYAAAAAXNSR0IArs4c6QAAAARnQU1BAACxjwv8YQUAAJZASURBVHgB7f1b0GbXmR6GPe/6fpBUZmz2uCqSWE4VmnfjVGK2LpRKlFShlUqlfBVAF0nJqUQkqkZT5KjGQ0SlTBTHRTC2PHHlglRciuTRBTkX9vhY5Nguyy7bYsMaeSz5wOZ4ZjiaIdkNEkOABAE0gG6gT99+vfd6z2vvv3HoA7rJvYD+v+/bh7XW3ns97/u8h7U2YS972csjV5699KUz/6Of+tBZHHGuHfBRnqZzB6JzjOksGGdoPobAFwl0kY/H33jmn3z6q1v1EPayl708tOXZF3/97GHicyePnTyO6XiuEc4w8zkinJ0BLgDm5XP+N2/07/NmovmT+wHLn8uN+elf/NjTF3L9uwDYy14+4PLsi185i+nmucNjh8enafr4DPLHZ8yem4F81oDcgT3/IDZwy7nk4IeDv2/Xbf03hzCY6372L/2Jpz9vbe8CYC97eQDl2UtfOXPzpzBT9ulcm8F9aO2jwPEcNTo7A/MMEJpbwK5Ah4E4ARoK/Px7kw1Mfr4cK//a3J3PqBDYBcBe9nKPymdnkD82g/yAwzk+8tnZJn8cNC20vdvlHeQKXBhN56y9TdtX0AKTg3c5ruXjXftPDuYQHtkEWM4LE2Hi6c/+4sf+4oUT7GUve3lP5bMzZT9Mh3PtsQ89vmjxGU1nZ9AtdH3R5gK8GaXMAsAFfgZGErTOWlg+nconDQ37ruBdziEFsQsLEw7pmGU7kLZrhd5uOm9u/3Pzx4WdAexlLxvlsy/+nbNobXa20eM83Z7t8jaDfXa+zSBX1M0gElCGVgZE0ybqbtR8RfEHeo+kzWHMoNrvptlzm7m+7ANo6bf5DoBkKggb+bM7A9jLT2z59AzydjicWUJpJ4RzvDjfMDvfqM2e9uOZftBCralBFXbX6i1Ub7GhqahT7v9R/HTN7p9Wx6iGudOI/tHSOa7VERpdaUKi/3qcAt7rs/35k+iTOwPYy491+eylr4nzDYvzbTrbNfrshEO2y7teTFp4OVFBSMie9bVDrolFvTjWAISmBgZti3dw4JmGTs6/7AwsrGEWSrk/K4aByiiiblRWMIcGdwawl0e+LCC//hGcOWk4N81anKZpBviSFIMztzCDXgHQYcGqTNmAL7o6l65oFSymfikBjJO9zsmeR8TcKzNA2OXNT+T41IM8fg/bngBNEdJD7l9cWfEDZP9CXFgyK0SgnNkZwF4emfLpF792lqaZon9ktsdv3f44z3Y5uV2eGXKAkIffVgy8+buBbxVayxo8aW9K7dGo5Qc/QTmWI0zXj1Ewu93eP9XzX4Av7bTsJ8DAOLIjEFx9AcDKV7AzgL08VGUBORZAH3C2TYtdTmKXd5BzD2LjttrlEN1cAW5igJH0/h0LDwCVuljrngZ7nRw88O1cfkVoT9mCdonVRLCdFAa7GCEcYM/X5f0xZ4ABmIJZYGAxoEF4qcBhvYVyLXxlFwB7eeBloez4qcfOHme7fKbis11+eHwe/uemma4vdjmDszrHanBjre3Xe6Vk+z62Ve2PAWy5HgMipd/sHnj2NlxzQ8DW2zQQUlwKpX8G/Hyto0DLtB8YrpnZzRXxPUCFRzVHkpQo5zPTxV0A7OW+lM9e+vqZx37q1hxKO852+fRRHA8LwGfbnM9OCnJaCDKFBqVZXU4Ip1zf5n+3hEAGdgZ9FRB0KsDXJQAq2n85qwGlndHbH58ZvFUDu49AbXBGzQEAo8T4i2+Aog3R4MP1JAchD9dh+4HRBOr3/Td2AbCXuyq//OLXz7bHjsvklMePx2m2y/nxefPsgLtx1qNR3GYoTXpGaNQpAXhyO7Xq9m0tzxuQHi3+fDZ3ECcYYW06pM8EwGoWABXwA9CG7+M2St2ijd9RdbbXU5/SZ//OwUK6+UDb55EdUPqPJVlpzwTcyzuXZ2eQ4zGcO85e9WXa6Yymx3mJm8/0fTbI4UDXwbmGq1FxsUFHSs4cgE7VOFWvGjyOMJ5AuBNHWO8bGQaDkUN9zNkhWOtqK8GhtSWTAOrko4GVoIT45Hccnz/h6cIo/UZJ6OmfifZnH0I2E1zAIAsEXP75P/7zuwmwFynPvjZTduBsp+rMM8jpo7M27yCfh1DksTcFDw+6sIzVNPA1NDUh2cvgDSERQiF/XzOACud8zngEp/awqiebCNjcHqDP9Q6hOqpcg/zABDz/noQH5WNzA8nEKDP/uHTfjolkIeFU9jB85mC6keFv4NnH2i4sm3cB8BNUvjCD/BYeOzt/PXec+Ow8CB4/zrHz2Tt8lrnPM++aDGQgD/0ZPnUp00C0uY5ib7PXmTLRJkjc3EyCDFTGlGrIWraWrW2rA3hLeIyHnC5otrfzCuhtq3KXCHLf1pmD6V7ZJB7POUjfx/x+P0u1PQVjWUqz6EJuAgb8wWQhXFg+dgHwY1i+8Nqls8DNc7OL7fEZUrPzbUn44HMzWT9rGmIZLAvciNmtcysj5FkHXPweYY40WEMwxDBX+g+s9L+RcR5ECG1yhSp0xu12rrNfjOZE3e5gcK1cr4FAxTQobYCrELHEnUV4UvRjlYyDzDimYirQVsqusYnUz67N1e4KtoBIU+bUDqdrUdaxbLrFt55btu8C4BEtf3MGOeN4jhstK8V8fH66j/ewGmgG+c0+BhZgG2SqCy5AMCXYGRSzQMhgN/1CpT4dvjyt+hhtraHvnxwtZdscGARFx2ZouLUQyPWe7jcAslBIGlM7s9b8p2j/oVZyGp4EBG07G60OCx+6qQB5Crk/fV+e26/gDxMgJQYB5RpZBX1mACo0Ln7mT37m8vJzFwAPcfnSa5eWCSlnb81Ab43mcFr76PzAz882+rw9JqswJXdYAtRYDGBbmtg02ZRgyGlf1Gjnh1bvNH+jva1tWdffyXQY+8+ce1DBlK8NKxEDbIF/BCWttlVhQOnYmjUIhCeeS46/X9Ng19suThl5tW9wR2SwE2BtKqA4AWllaozH67M7Ts/Z7l0AfMDFQD7/W7zrZ3tSDC+aHGfnf2ckVNZEm3MG7FgC3iMcXROn/HI+tUc8nBeaOc4LyjzxljiJusx0GJ1009DWVptV+wYcKlhpdcVbjr8qNGofcxs09Inq1SCbDZQqptXBbAZ6BWae2w8k7z8FtQe7pq8PMtk2JuySYESaUFRlac0GnPd/dev69nKfymyTn/nIDOa2xMdbe7zN3vX5Ac02Ojr4m9tnNrQEOFPSuRlEE8N/rY7h0aYOD7yF4GK/1qc7+y/VTEdk/Z+BPA17ggHwRl+xuT/5F9TxOPHojR+FQwDeBz+yUXKn89U2L46wBEI7BkHBY389p7ID1iQhOyYdP7CBOg8foCFV1+cCDP3Ik4LKTEFwbcNCjz5TMPrdarjxys//iZ//GbszOwO4h0Wcbwtdl8UdD30RiQ70sx2s/clNqhzkETUV+1nDgavmjWIDPsAk2nTNDLZgMqgTmC3f9zhbZTC2WQInEE6DIMDQS9s+Cp1o2fYRkiOg1Jh1fgV+vhcZ/Pm8qEuUbDjtxn7Wehm1EirAxkoIyCmWrWfeedP+vSoa2iz2O5W6aKMPxhRMIMgurm34Nu0v27m53/P3Iz+HVHYB8D7KszPQP4zjeb5N505O2uOzJO7LNc+QONPp+vBgKQ21pr+qJEeZYjoBG+CX4r6cYSBXWPAKJpw0XujfWnGCQPmWzNYkeALEo4nAWAukXKZT+p7PoHIEsKXhR82fcUupn6UFA+jQDqFgHvHs1sfW4zlJvOobgDvgok6YhKcwDQh5f30KOavPPs3TX/rux6UddrFpvcB2OPlKuoxdALybMgP+TDviqQPwxHwnnzosC0lwm28mEHPNTdoSBhXihVb79DtVXSSfFUSjTgRGfQanuLxRm409LmfXsbW29TPLqIJlHJUhuKKdiW17PotXV7UGdy2n7at93RIjqzv0DmG5QRBgS3xZPYtJMc4UtPpI6xJAu/buG0dtb+ekjeWcbEokwanHxWn2BKpgEJufXDjdmiT8Z2UXAKeUZy9dOnP4x9snZyr/VLuN8yKlTesEZiXUAtf09ujjbxReDTYaBpwcVcE5wF13rgWEHFWDeOGpjzpO05QC1BHgQveDPdT2oI7Aya+vXJ2vcEsuIE+DlF97stUDTLw6bvxGW3VhnFR0isbP95hRAYs1UI2K01jP4PDr51LdV+77kOlnp3oVSavbTwM+p7Yj/Xd9H6yvWsflz3xMwn9WdgEwlGdfvnR+mrU9DvTJ6ThT+pQ8jdVgzFo5O4yC9DcTBoT1gCml1jVuddcO52w5OyLarcczRi3v5+bBxWM/0jmc6+aVns3nRrtaAxtryCxJe5wGcfSLhr7Q6j6shehpZc1mqgiUWqtg2M7as0+Mn8k2IhVeEddP+8GD2RG035ftzlJ5aCdCfUmAkGr9ZTyY5ELURek8P57pAoayCwAt//yLl863A31ummZt36eOMWJVB32gjQYNQlV6+54onSFsDOT1wM2OMazqyJ/RzgDW8rtqPh7OZx5dcrneycGW+2A6dUKG0SiGqvDqNRLpda2ThbbNg+jJeB3vxAjo1HpqXYSgzePzcK2K0NSN1vVRTrIxPZGA7tvGbg7HRL08TA3Oh3I9L9N/HVThaxyPkUHVTmj1fsCfeAHw7IuXzt6iw5ca+Hx5kEvxTKzlh0h3c9axSXyYJpPvI83zAcvkUtuoHA3aExj1zHogj0DOXa3HVo1dnXRR3wTG2rbf0vbAKGKwYg5VGGRtn/sPME5zcm61NorUdRmFoT6L0l4VKKcLkbU/oq7cs3XOxiZ9vmYibtXvgqYDnjcuh127F5mRxk5OBbbxxcU3EP2nN0+ew1B+YgXAZ2cb/yMfOfmlG5iebchATyVty7Z+kbCEBGh7cqO7r6qCvl2eu2sWFyNknvX1UJ0SkLKOzsemFuJ8lh5Nm0dtQSG3g+GIiCT0Oq2zgFNguwNTSkaOWtjbqE7H4CP5yHof1wIRGK9hDcowyaY1gO1hQDWw9U1BGe1mYZTsdZMs7jzgksyTe0ebDkDULD/k/iSW2X0IXI7LuQLGVAAeogQynlqjC09//OkrGMpPpAD45e/NdP/k8KV5QJwN0CvwyIBoEApt0osBPtUXD8XhXgbtAoyGrEX0uMQIlj0T8wr42Qtftbp9q0IghgZjBO76u3jq7fwp9a+2EwAF8kw+GWXrmtkH4JS22++IVtRPpOtlhAOwgjZrd94UYHYU0p1DETD5NVpbz5OAMXav+OZ0bFYY1RTUezjb57YopxyThJuPNb1qjtl8UAHiB4KTNZrDhoSRtVr2YLH/l68T/wY2yuZsxh/n8ssvffcLdHL4Gi9vXh00ujtWkPgVj/Q4dg0jE1nzLrvc9uc8oNOgLiOXfFA3otLaaRrQzsvtWx2naXUGitggrClvzhzESmfyRss8quFVHwhZVFXhdnoxM6vWUwVsPX7sa3bIjsfkR1jNjXDo5rEh+6sWzmJ33fexnQA3le3kGjxvJ2Qho+alCazuVGGvy+cO0Ho8yNfp4kYnf3IYwC/Ptj5PJ1/BstgFqk2YpXaWyjbK1nCUv7ZWXP9OWctEobQhHIKaBXjK6F97+pGcg5xADO9n3Vbb33aKpQlE6drylnxu1ubRbGjVJRTIft6YGATklFhO/bCkqS0WINe9BWokgI7XWyc8OX1ONeTnGRN44kwaterwGRpZjmvlSjOAdXt6zrEQyDDO8tMrD2A4368pCRCTv5z8DZzbxJWf+5OfuYCN8hPBAP7KCy+cm/jwtflGnMvDMRx5Wggl660Ugnp9sRknztI7zh8HRGyzozLIKjSG5l2IrOsfBwhSbdu6yf7SsC16zxstlV7RukY7UvICKkRdQA2AFlpdtSmtIM4Ye7gN/yqwkNob2UbWsNGaxeWjFSrnculVJOPEuYJGir6o5KaN9v3xUR1TxAPL4CQkePuqxzqRBSXX9N9cfuwFwF9+8YVPgqavzQL3rK84Q3BNL06sqg0ysLYAjfSdUCV+FgKAQbyWZUvzWvIAXWecW0tbginm4o+9SsfySMYD/lMkiAz7IkElixHXqkCpjzfaruInazFKf2tfg64HoEb2wnowYY0FA26+czR+UmU8+ZNAw3m5xyEQi3Cn8ToIJih87CjDKKEaxsopGCHAGHjL16LVKfpHNAie0t8oM8P6Ck4pP9YC4C+/9P1fomn6Mi+LWaI+YKCCt/8enrpLfxoHIZfjcArIMexaC4c1mOIzATdpGU59CL9C/EaBs4+Y2JoushoBazExMQ+9Ys8WrFOTk+Cg7NZMV5M0MYO3ge1XidTHeodCM27Y9pwZwige7F4O6btAETqnCYdazyhY/CK1H+y/496yjykHu5+b+VbULwRDr9XOTWyAM4PI10C1jRtTzP8fy4+tAPi//dEffQ7H4xeX731Qyt0rErffWorPdeE1SCll9yEG9mBJnKItZe+og/R5JojT0MfTLN4KXPFh1OEcLerxPG2AL8AAP3t97rI9rn1N8SkN93xeXC8PAB1BiKEfwKidedgOr9fVZ7qDtb7tNuq9KAoBg3/IxwNt1mdjoCkibdx5neVhszct0cPqxMu5EyJI8vXHmKt9ID8e9kl8cUz/zeXHUgA8s9D+Ob4fUj/BwZ9EaL6WbTbUG+vgo1G7BBBGQRHgp01BIJpye2DmfpSHjQpqbJzboccGQDl4wlrbZgFEqzbtntlHhPzcTdbrnTZ6AFVAWQhFf6z/dIoQZPCp4Odyj+8gELkKlvFZ53qroKtCgdY1b34PwKV2koc+t+WmZx6K+QfrlTEiDJ2kR/UVhLNyTDl2U2j5PNJzuEP5sRMAn/3e987jyF8uG4enSemLPwT7ThUIGUwZzOvBdZqWW3eCED5nq2Uqgxar7xmwuVZbHCTvs8FuTksgg7HWzBttrfuOAtmsBStoubRj2zNjym1G3bnOemy+T/nsrf5u3W2pMQTJuG+si4bjCIhXf6+OG5550uj54MBwAnffuA4p5gx0yCFRFXNRTEjn+r1V4eNu7rT6z1b5sRIAn720LMgBdXhk6RsULcAhx/i9HmKwtbA7XE4bgNg4N8egafi35ZVe/gjbsCNkY9Zqct62FV2vGMhr9eV+jKDN3/Lg56H2rKlRPtciJYuL8BtYH0YRkPvBw68NM2zj/HxvG615gmvNjfPifvDwr7ZFpU5/Ov7sPAuHOYBrAlpvUnYyl4Sw1X4u3zOtz/cjK6Ocd9BNofnYv/ix7fCflR8bAbCk9vLJydewLIFNBniKpxBiVP/GUDbhkPdngYH0oOQX+WfWVPlbfkC5Xmu7DER/tuyfoUnXWvu0Eto/2l7bztYWyvYMOJVCm21EnfUa1qaD1TgVYBKAtcOxGj1b14XN/Vkwpto4g3YtBOI6ZP+2hk+/eIxIcBlSPi7yMPNxx35MDv1HEk+o+swGSJ1Tq5h/6tNwYX48h8C4gHcoPz4M4PDYF+drP2s/7WZmCcnl4Wf4rnVpHXRZKKyH8KmTRfRhZMeZHLMGF9fT0jVsHZGPy7wTq56Pgi+3uOYQUhaNPa1EkAmnema9q+v5fqFPuTsgJ2yDfF3Wz+TdllHknf47K4O8T7bSsLGYBlTrKMKj34oQEt3sZx4faDy6/J2CVWgiKqyi7KOS8wZWYMKCPJNiM/03lx8LAfDZ777wKW745PLdJCDbj14GWBCGIax/9fC8OKOVMLlEz1YNz4hREmd1rYf1ZFs7dKMHw/ZaRj1Zwso8Hk1lO63aq/VmIRnakTaE1RqI8uLNePGHa6Ek/FRpbjAUIPIn4nltedpPEwEr7XiH32PWYT3W7tVGmM9/80qg+L6EZLfz9aKr03esozqFoQyBuYYZ7TpdmFRKgByG7PkD7eQC3qE88gLgsy++ePZI+IKGPBAe59A9SzH6GdIc/mDi3Wqm5dYPsybi8AoaPoAHIE6rQVQFBKOCAF7/9oDf0tlbGiybEWaDE3KW3VoIAAHCLTsfq/4N+zjatp88XAujhrSykVOYRjqPsB7vWQCvBYr9rgzQl+jC6QJifAYmxFZzJmw8cLqvY902joaMvvDSY0OOhIJyPxUNY4Mi3FevMZlZzJef/uM/v5n/n8sjLwCmW8dnaVmMU7FHa0XcSwmP9f3DYKNxgEX4L6S77VuXUnfaWul/3Z814pZdTOl7Pvc0Opzryhomt8cOgrCO64QbExY26290e+W66nWg/KbS/3UL26BbFz5l+/r8KvTH3o7f2UVh/r11b6vpqMfSlii3E7jclOyTyqIvmA8Qs/5IhQSS1hflFsdO/gyzouo9dQW0Xv1nqzzSAuAXF+pP+KTRIl+bj4ZBpXdO7+2wmcsrn4EkoePQ8tseuLMIGA1OWmslJewB17pW1J0Ctlxoc2hV+70e5jy0tjWYsVI9ZtYgXRuGLfnaeeO61i1HfzPjoAHuGRKjycEY73nsOd2MgbdThSCV7VsCMoSC/axCYnR0xvMMpmgVds3s7MCO0X9srFKAHedEnVQvvgqUvJHzNac6TnDH8J+VR5wB8OdcYyVw50Ul802kLFFRHkk5KAC2plh5IMG31202S7Bq/S3XXy0iyEKTWbsjjBmx0QVO3VvaXAE2+zEon8cuDDZNAGdRdw7kxe/KROq9rnc/3/PoP1CfVlzXWB+telLryd7+3KYDBmtBUMZO+jlq3XwO8dp5WKISNGh3jnO5ZPDJp5kQVrfUQZ7w4+x17OubH34O76I8sgLgF7/73U/NV312+U46cMNmMqFgw1/tv/TgmEI688ZArJSNykCjbUgOZVt31bO4PDnzvDdQgkeFzFin7c+v6y7OQQBbwTf/xWPN8Xu75er3d2HBuU+1JuY1eOhdiUQ7Fls9L5TanosJXirnVmFWwQ6MbCCHOWmjP8htcNTH6UJdSDAS4UrCIp+sD1ve7GOHcNRvAKe4ftJjmlVbMw83V//ZKo+sAJiYPuc3koDVwhEG8C4t+48YOjQMAH9oHOf6za753CP1JGAYdADSkKW0ZUtPr733I9AJI0AzlGOg00YtdeAXQZbChlX8nQb/tZAIliQ3aBrAGdcQdUyFYaxbjd/W7/HOpd883pd6/pYQWN8THurPNel3zscNdjylfQ7m4V4ZiFOfTVgQbLyxS0ofU/pFkvuSgPLf62vo933ib+BdlkdSAPzCpe9+ihqdrYNAH3Sa2rsUSjeqgdYQdIpFo7NWd6/haKcVs2NjMOdBtW1OYDg7fkWizhqOWxR4LRQo9aYOnqVMHDU74AZHKUp9uX9xJ7wnjCKqshdgXWc1IzK0RrNpBCOVc2Jb/sfglQ8m33egCgfflsGcWlmvDZjDc3Htct5A28FDXXCBAAMyx7lO+61u5Bj/qKCgAoMC/P18elf2/1IeSQFAB9H+fSBSknyonvg69LLGimMAeNy6DppqBuSHuNZHFRDVCYk0rKtImLgKgfV8dgzix4Zf1o1YHZ2BZ+eX1X8pgwVeVwVwrpWTb6Leizy3kIeubF9H9I7KNk7/jfc77kDtAzZbEKwkoVdqiGMzaGVzdfqt2uGtutK28aGkG+v9SOBfCweKvtPQ39Q2574kBadOxStPv0P6by6PnAD49KVL5+cLP5tvnIW2CljKUwnJ2dxxQv5g8vFGx8rpdgy2Sx7IfMrWLKwy6KIJWjmLKpyjNnAIOJQ6MNQYPSlijBm8dQahvMMg9oyJOnnyUngYqFwTb8A39+fd7quIqvu3wp0Z+HyH48ayZil1ElPV7Kq+XRsLmLmMp7Xtb1XX52xtlKnlHMcS6vjMoI992vbx9NV/tsojJwAO7fAp+168sRo7yQNktMqlMAq1pO2HU4NI8dfqtwfSiq1b26v/qiMxemN/K9AtBbSMhQ3An8YGuGhmLm1YL1YQ5WAKNNQ11kmpx+tVfnObua9I+1G21ms4/U5tlZpBWFs4TbA0jAKDqrMScDubNzz7ZBJd6+DcWLIlkx8aLkRMYFCukmuEgNg9/RjAT+P1pG04nL76z1Z5pATAMuFnvgufHAdW/57egOpcC5XWR7ybixQF4njY/c433autMKNUp8H7tIU+q1kwAoUKKGxvBn9sr36Iug+n4mQUIqOZsuyZTgH+KZd0initgm9cCUiE57b/v4BoU2jVtuqZfOoRFejVKRg6hFGX2EJxCudzS5hOz89tUh5DXB2FMvaQus15uK6ExmqtyVJXHZ997E53nv8/lkdKANw8HJ7iQY+ERt7WFqats2ffdzjKR51D8WCQpe02IO70O4/n0BcYxnWO+ZvGoaG10G682XDV06OG1bEYWzm76TC0WQUGM9IrPsb6a/9zqxGUi+7KtZ8ipXLDp2601quACKFTx8V4bu6vn0u8KVZo+FcHCVdanoRD+SzbsNl+Gob1eMQrydYLnSS24Kfx5afvsPrPVnnETIDDk45bQpHkWYPbb07zM8cBa5/1Idekk8gjyIO4DpUYaFVEFKkNYHOEASWSgNQGr6DoCkK/s6/Zl69rFFGUYFFAStuaNJRPAhYl7QfyU2NI1t9cXlNdr6TcEzCK83SjR/ZcqlD1nvjVWT/r0afb/lsCwn8P4LW6HPjLV794DtOBUbzzsD6Zc5d4+zqtPT8nVkAKU5DLDbfclzqW3136by6PlAAgTOf7p3nmScFCYVtlMS03cEqaP9tgflicMzygbBPaoZw0jJWtyEIe+KeXbD/n80PH0R1qOkWmoAoNhTOH7rRBHsNHWsrDqY3wyHkDOYSo49Kcgg3Rb3tteO5vFWtpoPtW3hAqo5+DV+A1FpOvciuhZ5zUMwLSchpinv7GsRncEGDLPJSqWDSAj0Lr9TyPXrmygQqCweeg99jPAxfGkMfd1ss/36k8MgLg05e+dx466ccecr9nKUabPdJIWoEr9/WvebVfDwXab9hgodWAQTmmZp3lY+Iz66Q81GuNXLYriJLmDQ091EGujDb7ObYythHXEgDJUOw5A0PkYLyefA7VrpTa1leL4Xxg23m7LtvAjlDeWpTkX3XfGArMTthijCkNW9ni49PkGhGIT2U9Sbvk14fBhEMOCSeB0X/yWoz2/J83334O77E8MgKgtekpHrZNarc2Cg3ig2yFWqNZwR6g55TDhjJqXzk328oWv6f0kLYGW9VW2wM7iQWiAvT6t3rwnQrSCC9etc5b18dh14cOzfclBmMGKm9cU4kU0JhG9c6lgtgECm0eg/S5lWlxurbnIuziIjg089jZJDGT8z8Eh9tFic7beDAmkK6pf3dhk66F0zmo2+NCqomp7V54+uPPvKv031weGQFArX1iHN7OBjgGpknDEYghFHjYc4c2aWvghSY2BlApmx1F5Zh1PRiuhk25yLYhHIm0DxugGA5YX8vweSfg5HNymxn0xo5445ysBe3MUSRu/aJhG28I0qxpCRXUSPvGPkUN8WzGEmwxtVG0bWIK4OKEcxvdtD2jMIAAdYzRGLVIJkF+9kByQ0X7LvDhJu3xXaz+s1UeCQHQ1/tjPh/icXjIpA6/rQFA44Co9I30/HFQZk1R67QhFKJkrH8s5qvwI4oH/s6DMrOA00AKPX8LVjzUk7eN9W+1i829FbT5WmxfXJdd21bvo46tNoC40y5ssQXode+qds/PUXuXgB0CC4UZhtIY8z1S/yhNCkqvBvc6YqCA6i5v0M/Xg4pg4xBEWaDkOpY2l9d/432UR0IA3Dgczuebk3gSsiazY05jAu4j4DXYbYDZ79iXHvzACLZuHo3nYEuTDdGGdCVpvCCPwL6dai1ZbPFgF641c645OfFUjTC2+rlVR9rPIbzyUXZsFQy8qjX7T7bhH4IE3t/8WbW/g2aoYTynn0cVkDkxp9YLhD9hLSath1lT0/ggqdaV+xMmBA+UqzKP/owiBITCOoDLT//xv/SOq/9slUdCAMwX/pSBITud+hCq4hB2YxnxeJxKmcbQp2WOv1xo43tJAEHSIsiAz8Dj4XzrWe1jbY0HiAIlz1sfdrGxV/ViGKbsioZdLNar7W8KKubGuu927oQ1iMffDnrm+htr4Yhh31iyGZWBjI3PrB0J2BAQvVMFdHlcZK07CoLxXz1+1PpwwLtn/zTplq+B1/0zhRcRguF6yFXWBbzP8kgIgBmwT5jeJGAALqdMLR1gJNujAsSx/klad24pE9cMJhqq8pb8uDppaE14UxfSPlbGMsCSQtTVfyPQIxpSSwXWSNFL/n5x1FU7nzmLOROY29fFpwiFLLAZjC1TZKv/cfy6Pdr47m0UG57LvnywXz+G56F15G1cAM4mncfKVsJlVEqrsao31MZ02iFjgOvxY12mIGbT4wLeZ3noBcAvvPDCudnLf3YcNjKIB48zhdR1KexnsauHMSsw7j15vWa3jxn8RHTHQZj7iFQvp35wajQPtvG9AEhthFKogouwBmU5b/gWfQgP9PimYre1vQ1zUDJQrqSeEy3xKS1v9Y9P+T1o5eHY3Ic1OGob9Vmd3p588LpflOphDEpD66TcZ9PoFdh+vgnTfD95FBwhhE3gFGZCMR6n95j+m8tDLwD4eDzvkjpmcHgZZ3yFXYq1TZcBloEHYE3j48w8ILIWy0N+64z+jdZ7rSvr4ZyOGSR/EWSuleqJo53Kfm1bulSPXAYQgg2k6pCTlGjdXOmT/TfhtLLV/gjf7TPq/ZYtBsiWjhzDlWMtdgwNV5GvzRXIVh0p/t/bSA/RxhunevKY24rQFAFHKZ+Ec684+pXa8aQh8MX3mv6by8NvAjR6sjyg/tfEKztddgGAUTsOVA2Zko516qCicSBlaJ7u0a4Dz/qVYMIVoPA9428eQF2vIxgEnQIau7rQ0YRRNOi3bFvylgjk8pdOFWC8eVfG/q3v6RYw8p1jVKfqWkPb9rjmrf22dTwmxk5Gc7SdnilF/1ww1xsbQ4xrXeW6834rycGXx4oLFk79SKYBH/Ec7qI8Aj6AJfw3ACsn4izanFAfCCKEs6ZrVPadJlyq9KcqrTfPQflGwxYDbYUlD63EudnVt+mo5Ohr7UFA3g7JY5Tz8TxCuAqGLWjW1riIxioq8lm5jbjWbTEKbPkTaKM3tUY7Lt/HEIf2O99jDP3wT8cuoTp+tZUE7t4m5f1cMv+6Ng/kxmdSXCFY8t0ctX0quk2+T+85/TeXh1oA6OIfMiD0Zvf/NL+f/A5tQ8FmuOUQD6cbnp8jrYaBfcvSnrwPZo0YdbZj2qgdvBasNcUAgbWuXxeuEF6dnY+jGGKl3TrM4p4UIUThYwmBheHsKlps0NYIwJ2uZhSU1e4HqmZeb8ew3fo+gnqbDVRcJmFBqT9BHbSdwQyIQ5Hpfr4PAK+EUBEy6T7RcFHMG04/P2ZZ/ecXL+AuysPNAFp7ahx4AdY6KMpDIRRHnw3gnOfeqy93e2ugMtaTcoHqGqTN8+p33gRh2cp1S4EWr8E+toDhnuQ9p53nA49qNmMs7rmlu9e15XsyBjizqzYDLz9Ve6ZbAmvs/51+h3myxQpGYZIcdlTv2UqgeKfjil10qi3udZScfkomwtD3gSVgq32u9yznLshvel+x/1weagHQGp4IcC8l3VxoYoS/khlFWnM6nhBLbVe6hmFQJK2OQf9b7gBoNUAq8OR7+BFclKejR6BmzZ5rrCDLv/24cAb5cSO4tlrMAm2ckdjZDddWMzgjLKa1UojZ8d5uOfAYvHHt7O3YttOcepS2EWp8PB9LQx8ycGupQsHHU7mTUplNBTaB2QyVHEKgOgDT/aC6b3Q4NspjiDdMh2G8Tu8v/TeXh1YAfPrFS2fnyzzXf8RITjdlKjfIn0MZcDbxx8C7HSHIxy//r9fFA7ItWLV5CIXYRmWufgzvfERAiIeBu0W3ga1hkPVn3hNHn9aLLHCKMECm/djoyajjkfIFUOZljOBnv1cb93cocT2czh2vjzH2/rRe51rHe7TqjVXLa2ESqwQltsGhmTGMyXxuZQfAODegzlpdC76I+8vWY3v/CUBWHl4GcAvnT5eCdhP0gVJop0Yhpk0gZLu/AhUrjZG1GrzOOIiHOrApSOB5BK6VaNSCqfCW1gaq99v25s+orQoY1Z68dXSugldg3J4AhaH2+tt6HVCNbfatis91jyjVG5o4FhahofPx7HgF0vy9PuPck3EsJJZgaKZoK0LIKCzSni3005lT/qR0xUahGDX5h3NfjFRwtD9cP+4i/TeXh1YAtMPhSf/hNzhLyKT1s5fUBz2HpIU9OCqOuVxGyp/DY8z1uFFwAFlDhKQotDz3C4MIiFOKthxDf2MEu/Yf5dhtp936XE4t+aDjuv+0wqtfWRCs2w6uQqtaGFtPJY4hVNCN+4EqcMe2ow4q56wUS9+0ZhsmFPKajzGUeCUUDPw2ey+SiVK7vj9fQ+7XeA22q/fvAu5BeWgFAE98LgQkJ43qG11CNpfUAZq1ZpNjJl4Pogw6OTZbn1uapJassfPSzrTSW3Y1w7UOGwzsPLTBpwCgAh6bv7IzLs4aQEynAz7gbTXyKX3mU+9TNS6sSSp1DN3ByJrolP10ar31ntEGsFZ9TdpkHAclHu8CQ3YYOxjrMqGyaoKw0TeUa6ByDaHo+ORwV+E/Kw+lAPiFFy6dm2/n2UzfF2BNvjRlAhnVgTPGZPOgXUq/4FGK+7lUHtborNqyXWnV2nrQIv3GoB+jf1J7vOPPKCevaip0cqOF7e+8ub3o4iG+jY3rWkck6nsJadiG0hatelsFhtyR/LyQ6rSsv3zs+Ixy3bVeaw91O9c2gJGtcAFeSeEdbqRpe3CMTf+ODaBvhAltfwV+fDe28X5W/9kqD6UAuH3E+e4RzemRtHS2rSRsebRUwbcUCdHUwZ8HEJAeTnqgy29/bThhY1CuHW9xDmq9fh4hFho9fXDmQqmnGcTlTT+lJLBu7M1t5TNoqII3zw+GlGvK18lp27pFxpqCl7uzuqdbx+Xi4yP9Hr33dV+97/5OPmw8j77UfOqvO+EqmB2wHvnhEB6EVT5ADlOXf0P7tZ+Uzdn3tfrPVnkoBcCh0ZOm3epQUwpPCdwFlGkwZUTz9iAgqpfvHl7UEpqL6gDyB47USxRBpOzQdaS9HNP2ZaDy2O9aa/nmb60ZwOjf2frNa8hxFixhOo3HUbmjsW9c7DMKbX4nbAN6fSSvfmeAj9vrfWesw7tR5/ozHUO1bfuZ3y7d9xEN+1H9Q2Yf2HmMygZSo3USmP5Ox42CTQ9SQYMv4x6Vh04A9NV/MEcAqILCBmPT7xEEkO/hnAm0xwOWuhplPQVgiH/nc8ZhH5Addee20FjXketPLjqux9pLO3k4Lguu7Lbbml/Am9+CR1RRYfc4UofjjHp/pEVCpfLhX9gyD8Z+RNkSCfXu06qOCvJoPzOvQdtuCqItil2ZA20KBb0fPB4XDeQ5CdkMcMfiGDYcHdisddgYpjyOew2Xp+nWc7hH5aETAG8dcL4Iy9XKvUthH3D9/nIlwwYSO6dmiOWjkAYJl8HShm1Uzojzcl+pHDeWCsFgEfWYXCcnRI5gFAUzAjxff641lzpFyesv9zD3MPcnYgaVubAP3PwfUO9Z7dFai1MRqJXWj585AWi89twOp7bWd8I28fYN4/rDhIAp+dovRjYlCsC3BgRFndnmH/WYjQETHrMSe/bpjz1zGfeoPHQCYO7QUwX0/e/4WwZlKzdRAat3vwysxAi2gXrKQ0LUn1uPr6M2GocfsOn9RTqX614etI792nKg0WZvt30JAAbQbggQ3qp/BNHY3voMWrUXVzGeW4Qhtvq9vZ3LPhPWa+Gwft68IXSCQZL/iciTP2q/ML17OQ2Y87EaERgFTtLq/bRB+NfP2j/1JXz+//InfuHXcA/Lw+cD6Kv/LIWLh78MJn2abonmRT15g7pyplEo+1LDw3ad8FNSemMwhsOcVgO7DLhh5FYA1hYx7MvgYFRauu5/rYZXEF8DFBjGdZWK5dwx2rIGYG4Bq8+t/RWUW2J21NwB7Fbq2QbP+kpjWx4Pp7VRtqeHbklW4c+Nc/OKvpVH2fkmTLmcW4VSrlPrmqbPf/Jjv/gs7nE5wUNUPn3p0tkZzGctbr3Yw63pUEtvXen/E5e30HihNDicIYwAXVN3q6mlY/Q5u/DJoKakwGnYZ9uVAW4U3vg2HGHmTRpKo/MtQ5yHuvr9Q1D18HuMwgUFPtmnkM+btD+j+y/XPz6L7FgEqtDYqmWL9tv3UZCM/W8b5znQCpjWjkVK+6LGXJ+aZiaAU2JPjAVlAst/JYNv7c1Heo5+jHoUa9/6VV6e+Pj03c76O608VAIAh+P5+Y9qXmx6RCOvH7Apq0VjOL+Kc2ywjBpnLXWlyMQhQUpzz2+KBbB0sCRmwAYXlTZBON05dofN3SnHUwgSE4oF9rUQii5KTeQ0oCx8hlqYS02mK0uUAjXGX4VO7LN7tsUboje8OoZXQqCCMYM1jwsegVbqoSIIxmORhCPlh6dsUt7cM6mgYd+XO+VtjH6AAdjSBiEmA9mz1mgM8ZV5/F/GEc8xTV+9X8C38lAJADocnuSUTmWhkSLtdbdRKqa19s3gj82soLXhMmoWGgQEMDKHfHQ7dQ+QdQ4njcvDPjvPIJ3t/62lyz3hhtdgt0EUWzhd65bACIFyGoitJv1Szls7IEewY/Xb+sjIxkjWdqOgRtoW4G3lGrCqA1ufaRBROTdtc0Cm/qRBZMt91/N4/UCQhIOFrTmdJ9suz38vztTq+XkMX5yZ7pWbE138zJ/8hct4gOWhEgAT43yn9XpDJRmoDgpnBlkK95KcVlwdOKHBbcBFgtHyK4cQR4OhsAsbtgRkkyBrmnzO9hJglUqPR4xD19qbRmU9HOUeejY4EsJ9F4IDG21ZL/oCk57KTE77My+IfldwLa2FyRG1F+7BXPp1unjN5+ee8nCvB22b6qHUcQE3D8/KquSqMGjjJtFYZxUOWxpdbfzLNIN71ubP0wkuEdPzcwjv4qfvYg2/e10eGgHw6e9dOj/fsTPL9/JA0wMqYnaQxnVZMFL/QIVzseMBrM0Aqvso74vPYCHjkI11B7bLtoYcdTQnIdGhucEGuJx9p9b41BaLeOO8HSoIagu5h2GOxBHZRLFe8ikCMF8LrfbxqcfmXozHlk8H/8Y9ZzMVJ9TEq+SsUxZAp0ip1PaV+fMyLdqc6CJP/PoJ48JHrtOVpz/+9D3J1ruf5aERAEdMTx26hWUPxcUrXGvTOgYrJQM7BmsGbU7BlX0VAOPv0wv3DML1wESKGAR4t2sAwKGd7awp6dp+H/Lx6Wy7CmsnBAIPx2z0HUBmCHVvZg6T94W8xgpoE4ZxzQO1V8243c4We4u6sjDYvNfpc+u7nDeea1pe9m/WOTj4+sdsly/afN53cfYFPD/fkcuzv+oiX8PlZx4BkN+pPDQC4EDtE3CJa1wK2Brai5f1kHPqCeErSBK6wDklZESutv2OYRuf7HvqAMuwzHDKQ6/+DV3qXUGICSTY65UmJbaCNEevM1PoGmvKcFmbGtjoS6+ZK/uI/tDy0klsZUy6SCBsRDqC8m+VzLJqz7AJdvs+Ph9KPan7T2cdRcynH3rOTNlx8Xjk50/mz9kfffH28eaVv/qxpy/jx7Q8FALgUz39l8+3/DCIi2bNTpnyokYVBJ54QdiANsKOS/oyDg6d2lZtNmBzQNHQQo4AVEdZHnx2Df035xq3wZLPdLlRAGt1VXsfQBUQGAUTx11Q6TmtjuSBXeQ+CiPjad0eCrDXVxJgZdTsP9u2JYxz/WuhYfe9bbQ4CIfLC13n4/R8O2mXZlPn+ePEF5/92D97GT+B5aEQAB+aw38L9Lho6RhEvJFOGQ87UTkHMw0DhVZtZq0fzsGtwuX4rD5G5mD96sOs2NAGuIDndIpdb/R/3f4WpKr3n0ofhu98Wh0Rblx796sQyEf0ydkr+m/UH8U0qGIDOE3rZydb0dTpXMLIDNa85Oprb+Hm2zdw69bx4j959n/8Zebj8zwdLuL6lSvPPuKU/V6Xh8QEaE8tf832stir6d+R1i/bswkwauQ6QLJOEiedgAbllVh3SonMWr0DKRuI2gvLFwBq3DxrXT9+A4whJKTPE0bHoJ7BUS9bZQgdjXJXuPQfqyMCQM6BMng9bBd1xNFZGNTreSfqDxe4idmByzMJQcEr0C/l5vVbM9DfxCsvXsHVK9fm71f792uvXcON6zf7MdPt6Z9/+cv/9n+EvZxaHgoBQAc8kWmtaZQ2EFDBndJrjpWAoNuR9EYXEgbJxCrEhwA/zgZhFhvR7proj0wkD84RCAG8ddn2j8e+Kt7sL6de8UqPjtyheuqr4LB7jLGd1ClZHuxO/cQgANYsqgohYEzcsn350/YtIL91/QZ++L1Xcf3qW3j1xddmkL+Gt6/dwPU33lYLLsyt5fwuiJs8wfmo/xJ7uWP5wAXAsvrPkfms/NKhRArMbf4I57O2yb5TDeNlm7QDlVDeuzbm1lOqr2odTrXk7oTAMbFjIBr17QijHA8v4oDznaBulwtYrZV1LmDVztGPAHo+rm5bixne6Ou4wk8FLpAjAOuS241t0e7VWWu/9oNXZ+19tWvza/O/V198tX+P8RBt9zDvIfhb+ISkTn05y4UrX/7qTvffoXzgAuA2dPWf/is0fi9Kt3OqpPsGUsagnDkOsayH6yYzLTAc4SaGx4HtX6aq9nuoGwFqDIKrGiHWB96UbUy5n0OoLyXpbC0VZmeNv4a76nvG7YW9+D2nFWPIrXCqa3XhCOH61gzmKy9fwc1rb+PKS691sL/y0qt9uzZYauj3+XDwmsbQbxbWYU7od+opu3e9Zv5PQvnABcA8vJ5c0XxUStltw6z9AdTXdNGGhgmtTIMOGo8DsgaXzMC2IUxyWjKr5iEexQASl67knVfXno8ibMTTNt+2Ow20PIcONzqymuCTz+PU/8jjJ08EYkR0gIbzwdVBePvGTbw52+ULwN96/Wq3y6/Mmv3N+fN443bplZtlHeTB/Kz9zMSsbQDDBK/E8FK+yFKO12/8A+zlHcvD4AM4Lx+kEy24plgiUUsiBR47GnPyjX2aOCD/mz+jxKBSZKNG+StLoLKt1x3q0gVI/E2MAKNuHLUkW/NJCGTnWxUiNe+/1niazwEbfbJfNRshCV45ZL7OMFduzXb5m1fe6Nr7xmyfvz5/vjr/u3blKm7duKW1xn3xOht1gVmEvM/5WN4CpYwj8rz7vuZqPpLAigAoY6Tpd778vX/t138Le3nH8oEKgJ+79IfnR03poBtFv2o518JZdSG+B/TLyWvw5o7welvUsF0bDXWOjrulrCkzryYH5fZizeMR/APYfWruKASCsmeRMAqRegZg3pK8780ri4f9R7MdvlD1H+HmrN0XoC+/SRFYQ6PifIvf+hzyd/2k4UaPGt+eYQb8YhvZwpjB7BTwSQn06z8ed+3/LssHKgAOJ3P4Lw0GE/4FthwPuO8bkNsHBecB4IfChpJM56zwzKFFO/K0OeXj1ko/08AzIeUtY4AolToN9LDPDeXt9TBWtj+l8+wOTIOTcGEpW4JiKQtdf3kG97U3r+H1V67gjdff5NdeepWuzuC3thu1whjU+ebqt0/ITOpYoZydB5xlhV3lcqjWyvKd2QTGId1sN/1yjggJXyS7QO4Ew7kCTtrfwV7eVflABcD85J9oY9LL8n/TeddLodBPoav02P4RdispUrKTzuLa2YkXsIpCG1sJ65L9Cbx1HMFt7sptsl4OEOe2TqPi60lBBV91ZSSOfi57rs+a+/VXX5+B/nIH+82Ztv/Rd1/km2/foOU7OwBtPhX1t7L6b5tCTS6GevVEkQ2hC4rab07T47rOVnCn4It/0aqc3KXtfRiQPeBZEJFeXO8XkYh0mrdLSFgyCZZ9t2/jOezlXZUPTAD0l39Ok7z8Ux+/zdCSLWoDOhUMfWq/B6WimtB4AJd91XO/VrXk9drRad/QVq5pvdJw+ajfOdP6uj8YQ/UbjCG8OIdd09+8cQNXZpD/8Acv4/XX3sDrr7/BL7/4Mr0xf78x7wsAe2VyRa2xIxnJ/iYjW+TESd+CKxpf7HU9l3Sa/Py7G/L15snMTGlu0nMWUHfgmsQ3eTLvb60oeu0K+zMgzcYivSUWoWliHizC5uLlv/b/v4y9vKvygQmA4/F4Puw5o7kxE4sQkXK3A+1zAEkVBFVQAEjaEsCgdQmRVpOBnQWAnTyygzgvDtuSL1mLj9tyGytbP3bMmvwG3n77Ol568SW8MVP3H7z0Q/xgBvz1edsM+pkCKxCNMSmMWjsohBCmVHwnv0NkgBKLShhV3A8olXd9LQZTv2lNxAV1odBMICQ1rbU0EyDkxsLABkTctNgk3e4CQ8/pW5zlkXw39+Kyr13AXt51+cAEwPwwn3SgKrAJA9WnCloDbF7coQ5SKihTpRX7o23flplGFC6KzEKNIRjCBGjWJ/AQxTN9jlVm/2g65NNee+0KXnrpB/Pn67gyf18+fzjT9ytXXgdAGcfuAu/ON4p70ERFdyovR4q5rteeJKSerzuboVI0qwgC4+baqgBYDow/7i8ga3DR8BS3IdqXdr0vIaT7QWz3WN/IPLiFWG19FW5yDzrDWO7+cheOPO3x//dQPkgfQNB/K8rxslZ1yj2k+vpeTqEgziDF6niKk1A9x7pfSG8IFwi4xfqs8w3GusPg4I3PSt4XYL/19g28OAP9xZde4pm+0/e//yK/df06Ld72xGPYQSl2ubBslyBk3ebylqMEyuRAVQ2fpGJX36K5W/gB4D6BFFw3RsDZNQDL4Fe4O9jlgVGyL9RUYHu2y4X4vScTp3J/DomqLN90cRfOz4PikfnlLdt/9//x/7uAvbzr8oEIgL/4wqUZ/MezdVXfAElLSkr2rNeBIz92XX9oFUrf0yfRcDyVPozQNg98bKmTlLwegg7TqcfIX52B/v0Z5K++9mrX5N9/8Qddw1+/cb3XaTaxOvhE6TYqtJiVkVsIDApM95xnCHTVrcExpcuLXLD+2zmAu/CUwrtetbr40Fzj+5ppIpAaGYqpUczaJr1HsTQTicBQy4iadpHdp6Bmfxc++r33RC+D7PlSjAHnLyL0nCHoFU0XsJf3VD4QAcC4fb4lmr8UG2Li42H4Cox+DqfBEBpasgRD27ZBS1u02LbVyShRe9buNe0XGRmFGVyfQX7z+nV85/J38fb8+f3ZPl/+zcDn2flGk7jte++mcOGT2TYLdZ00FC/+M0cmu3pvo/eOLOoplDvp6L6txXWYLyAOURJgRjQ8zBeCRIRO8QPoWexcIGi4OATDy++fTheCL/Qrbb2DrP6ELkj7bwkuhpg9JInczPFHDnaxMgj+7oZuAtBjO/1/j+UDEQDz83wygxhOLKUwhfc/+wlYTyoZepQ08rB9LNk5htJ+zvLj1XlLUswPf/hDvD7b4W+8vnjZXxc7ff7d03Jlzuxif/bLmGzMi2Os17kMfNX08BULl5WNZlUrqb0s2jW6xq3Tc9G0LoWy9pRDfdqk2eZ+L8kTlalpFK2DuveFtX9uPnBnC+irM5HOA3AJQi6RzBSI+D4l6Oo+8oPt1utxGq7r9nu2ENKbebJmd8+DhQFFAFhaULSwCNM28QXs5T0VwgMuy+o/j33o+Bolja46Rwe2Asa0tSrEnp9PEts+KL3tF0Ax7deEwPKvuT0vn01nDJhGI2THHuHqG2/glR++jFvXb+JHL7+MN1+fPe0/+AG/PlN2Ja46FDmScZhNAMh304QQIKXpts4EBIWtv+Rj6cs0TSx+btf2qo0pYx6KNQt4G6WXlXu1SbMTkgXtFMa3JaB67QZqC+0Ruf8gb/fzlR2wOmAW4TJFWDAJpy5clICw7+vhPpcGcjMP6uKnLXqvd3/ZbozBBUDTvADg8j/8S/+fj2Mv76k8cAZw6Kv/QKlmteeXEpP8kvOM6vHKrB3w7qWXnUF/YafLUbdmB9u1N9/ElZdf6WBfJq+88vKP+Orrb9ASSz9qnu6xg7KfQksYbQHrUv8E9kE/A1f6KwctQIZ70bwQx3Ld5m3vmfUOMiiNdybTWqEoDn6NrrU04pc620Hflyz2vQPe4KNmeYoAuKoVEC19Z/PcNemWVtYhGds7yJvY8r2y5vSCFiFMLkCMbbgwYeEY5AJSNb5rdpZQIjNFlNAuM94BSTYUiNKr3I0JXMBe3nN58AKg4anRkQfV/kiv+5LtQLHJ5RBQWny72PVKcRegv/6jV/DmK6/ijflzAfxbb16dHXPifDuiW97EKXtHw2CqUQU5HbzqizCqvww907r9ZM2UIXLPVcxSYHZAG8gWKB0X7S8aFEa7XcaZvOpUnURw6Jj35qAOuUNLsX89h0zcddSRVabYzw5AMj4t956gF+hJP7JPBM2ysakgsHbM9hfUqkdCgxTk/gKKZ6RIbkogZDvMCShCCk0FJEKoi4BwApFNABOXhwN/FXt5z+XB+wAIT8iX7OVHpM/SwAiS5LdJMNVOZ1x74028+dIP8eaPXsOrf/TiDPpXu9buGqstNvaE43Fyz/JhHja3+chqA8cEnYlNWxIr8oxjKIBIGDuldfPFDbkMxCN7iMxT5Jdjj5zqhc4YUOvZswcEhM60VRpEVMCpj9g26h9guxuZuptQELaQmBBRtlBMj7LLgsPByD+iH2Rdg4sqV8/CPiwPXwEvZ7YQ3MpR5IhOYERwNG9MAE7OAoxzsC21psaFcKkDmR3U72B/jjdeOv4m9vKeywMVAEv67/F4+2wrXjyOkFqMfSSyCn9TkP5eqPtbs23+yqXv4kff/R5uvHmtA3IGOvOkRNiGk1rgmf2K5hWEif0KRZuIgtYpvWj8Tu11bNo7HRcToQuWSQ13jc2TSgpWZItN3wcxT9lT76hiu1w2L/2EsMOVaYeGt9g5pYrsxom1IdDwrBq3pyCc3+P95mxBC9sCMBcjVTMBMLSqzqaw88nyhZxryB8jER7Snds+dFEwuWCkniqwdIv6XHBSSGtTcnmpjeWEnrzcAxfL53w9vDgsp9/8h//PX3kFe3nP5YEKgOPx1nnTqIXtpkJOiI2Wy8/jzVt45fkX8KM//A6uzdT+1vx7MvWtdN3oaB9mE5udbNzSm2KfHqTnw5WruRHcqbXMflNnH4ca03OJLNy+rJ+vgDdAKCTVatFEnk6yuwvcJAar3S9ptMaboe0kzSodN61NzexkI/SNWKm8aU82q0HVsibUmvI27W+NmOmfYqJkTF6deWxeVGENjCSpWo0mGvlo0sdmzAXhzRd/gtJ9t0ygsgBWLZsIbEob5HKVKfSD23+Lvbyv8kAFwDxqn2xuzydEuvYPNmzljRd/gB9869t87bvfp+n2bXHSdVW8UEFaQm5O9Y9dWyt9R9BWi8BzGP1Kl7sKp24euGRabPxYtJuZbW1MLP42eQmH9tOTZZZw3qG3O1fVGYSpzcgIhAmrCMmTSyrz8omGJqTFM5prWzeKnVLHTWSiei97hr5OutHMHWqUnAKSLqTaOsVHSeb1G3lQhsF2Vmt+Bzor6JS9iUeQxYPTXJVLtzw6Q2QRTbfhGtxyMZYnmh7WLaf7nE0BMzX0z27/v8/yYH0AzOdnH0/eUD4N94uz7o0X/ohf+cPv0JtzvP2gXqmu2f3cxZkm+l297A4aw5lFC1SvCT1XL77tm0ybinq2gb1IFibXVexUWZmBSykj8cJplvny3UnIOqq1WmgeAFOPMJgyFkBRwrF/V4C6tPTZsGRptcytBUMw2p3YQ/yYm/akIcBNik5FWiLuSZ54sgGCidCQEWhniWYnqa5DeGKdjyCaWnmKrSRA2gWSAIoLi+Z8hN1JeCATd2GZWNfUJLzyd/+vz17AXt5XeWAC4Oe+94fn54cmL/9M2j5y7OX393/39/D9r/82+NatJSElbM2+Vx1L5GG+PgwOZNpdtb2aBIK0yeLjkvPeh6c5p8RB2AWBWukIq0JGprv2JeZPrZXew4UMkO0Z8sQV49zUlf0cViRzbErLTY/Xa0oa191rTqtN9ZNNp+2dcIovO1f5AP06lYM4+FO+tZsVwj4k1Ki30foPf3BkkQtWBe1ZfWY/NVIjRN358c6EHvUwjz6ae/5dKED/WZ0cDkIY+YHJJxXPz2Ev77s8MAEwj5anbBzZtN+l2AN948WX8J3/4jdx+623utPMBrgOHXW6TWJTc6zba0CfehYelZXCKAkCGZuxdJBE9SazeyHRAunXQvWP01Hq72455QvqkRfgmgiSyjwXgNSZx75IhbID1hFvZjS5H0D62dGR7XtRhM35svJeJcTOFIIFEMUOvXYDNaftcpRNGFS1r/KmO+RSJuEyOYGddCQy4KZIouKk7VporpkZgGq96PGUvPwB7gT45klPsk9kL5vQ6C3PbXwFe3nf5YEJADrQJ8S/lBA6fz/euokXv/4NvPR7v2eLa7jC77Z0H8iTJL1oSE+igeqAW4bRLBgOiw9ANfvk3B+usVXrs8ThZQBOKhE6YJGEyySCQjL8wlE2aWbAQs+P4eBj0jTfHj3QmDUr+At3ETYipoHiSGCgNgYZ7AxN4S/RSlxgKFnpQJ4YZg44SKVfB2UGCENbNbJGGxSdAnwIcbF7x/DIP4n7L/J1NW1Zkhi1q2S03LsPl0WQRRxNYLAm+VAIDFbfQRc6ZvpItKZ5FFauv5FlgiwRJH4Oe3nfhfAAiqT/3nrN8N10Lspbr76Cb/3dv8u3rl3ro1OdZ07/FlCbRjcQTApJo/xLUbvage5sQN18gNJ3kEcOJtY0H0apZwHS4hTsnxoKlBrgmtZW3SNq2p4uhBEexu6olMw5kpf2qtaUlOEFNPIidBvU2l2iiJGqs9BMhEgRdpZgQsD0pAgIFmVuZgBp9mLS/oamoPgitLShEDgheNQ6UDYhAiI896q1KbL3KK/ZoBGBSPWWPlsmYaOk5aPpXldT4aEswtqT/czP/yd//nMfx17ed3kgDOBwuHneDGzVSHM47w/x3X/wD5hv3+7y/+DT2EINmouwh9Ak8UY0ODi0vBzcv5ggcItT84omJnMWqggKEm15Aqy2K2vcv+cBeEjM/4dJA9b57iLQfHJNr++2ChLrG2CrGfDChLqzazEjGty77lTcGAUiLG7Ad4R1h6RnFqpwcppP5gIQFHVqQnEZLVIPDb8SefAJgB3sybOhQgH+J9i/AdnNANf2TTMOhKYzGfcnsrAguqY/ULRj48PFFLlAMKHiCUN6pRewl7sqD0QAUE//jfK9/+7rePm3fxsQDcwHS2mFhN1MGIgNa4FfcZ2zjva+zQCMPLdekNFZQOtA1lj9ki8iIbdJ4+mLT0HTel0wsFgcCojQgKwGNVsoPE3KYTuo90Omts0jlQ/cyNf003CZdd/qtjTc8A2YRncHoLQTvoAQEiE81G9uyUewjPoeVG+uuZNAsd5Tlm/mc2BENgGFSgeSpSIOVfkljtYe15+5TwepTuzvnV7uhQsTIzyRx9Scy/TrFCdhT6M2FkCJQ9kx3ajYw393WR6IAJif1hP9JU/z03vxd38HL1282AfiwQxX1pCWOaUAo64IdmshPgFtj/sfj4wg0RoAUJ2oZgKJrQ9TNBOncCEiEw7Jn6+p7zK9l8zWbpRz38Wjr6nEAj31bKdFN5ra/QsLEXw69WAf0gYICftp7gB7Yv0CtEOeIKTSg0Krmwc/MBv30PbbVGMy8UNFuwOIexLLebWeiKPHW+JP51SH3sFJqb3cUbL1+Xy+0nJDpsQQwj+5fDloF1mZnROQHhKkbvyDLcohWUXKCvpZ1968/Rz2clflvguAv/jCH5ybh9DZZaS88f3v44V/+F93bdJ0KapDO/jg7mPYUk5JdBvcKW3QJDqQ2PILczhaHk2PEhxhAToFFGK+jzNqtYjhf9xG1myaw4l49EXBxbr4nTUoiBf/Gqv3XwCu7mo4H4/4v/oClgMnkUB99twEn90rPfRMHYq6XJXqPXJOrBNjESvsWhKRSxW7jwau2BfaXypL+8S4ds7v/F+WGLTnYp9N1wbVrD7zBZDZ7aTQDlterkjTBu0cNw3IXLzaY0mTYJN5TEG6nrvw9LP7yz/vstx3ATBb6+cXsnfz2lU8/1t/35ez6on1Qn3Zhl8HCAvbXNJHWtJS5pGnDpzJ59F3UC4ON3XcWdquatm5GQuHCYwkf19U+KJZF4efiZpjmBPdDrb8IAPLwj0sjr+cM1k+j1xpyqaTzay5PLYAh3LomFEID8RDr5NNmYLI4/nGDFRJO5UG6QKggGt0AZu/VQF5MpHCC5oGjODjiBsETdENsgC9PwpgRbh+t+PtCZL1wXqUwN80ztNcKMmFHppxHWFV0qSYGBF4EM0v5s587JH/fezlrsv9NwHa4ckF7N/5e38Pt66+1cfxAt5GQUMtqayFx9uJcqipSL4xjW8e+uXsRRGz8eom9n2yt3sdaiMIM9WQYtaQTd2EIkR09Ikii2hg/6VDX9CkTsVG9hadyT2CIs3c0Fa2roILjljj4CrnNGtQNLWpZe2nXQLcWRinm1Bw28JdK6RsgWQp3SY5+Xrz2DStJVFpu2yzHKXaMA4IkYrr9rvSdopu9O0WnbQVfVpzTY8sWHrXVOSa/7R5DkFzoeAMgvB17OWuy/0XADydf/U738HbP3q5/ySjuKralILnZariOBvYfh6H5lLFzJ1JCEJlAg7s+D5Yj7NZYP4E07YaUcjr9IkGMg3YGiJiAFu9Q2JPgnnNCiSL/auIkLf0aF6AOSV1r3ZLzQMKjg/RhWqna75saH+Ykw8ISq8/wJTs/Zqxo7Pu3VUJQ6V8aWFdk9Xf7BaRVg+ExWApuHIpks0Xy3T3rjTX1NBjvL8q1BELgZCyB51LIDMVk2A0FsEu1+Su9ONe//f+D//CBezlrst9FQA/971vnr957Rq+/9sXVSNBJ87IBJWD0ulm82IpHF8MG1gWemOfsKeaS99755NE3NY+GtiVlXuWAKsGlsZgefhTHM+eo7hoc55cm8bsOZsWQ+ypuuZdo1iAVNhFQ9BkySCc0pWxxtJdoDVPcGFbNhuRsWeyUMwIlLidXlJIBkSQQGUCeT/YxMHB4v/k4LfZeksb3XFr9j00jTecnXrRbIAXit+n6CKYgPgIejvKFno3LfnH2J/xwW5aMCyZGAf3eegMQnnUz2Ev96TcVwEwP+qnXv3Ot3HrrWse3lse6/F422muaWej/0a1kwLs8FLsw2zn5fuRLWYfs/fcsUZi75vZoN561706449yd/v4dYEgqp4Q8X3XrFJ06qzRXoq2YPn3neR218WkxKMnN6nfQoWZJfU4fyadHKuOMkmDMKjrZHjhEt1RwZT1vAoi6aH3l+x33p/ZQ/4un3IxoaktV6Gs3VgX5yAFfzONLzM22QmKVJ/XfzBfpocEEW1on/v0bhNMavTs6b/3qNxXAXDj6ptPLPS/qepgzZg7OTkhpcxsA5d1Si/rGh75VT1OX1WPiUNQ1pPrQFIDVtiErnGn9DOov9q9SwZedwAezGHY33g79a4119xLmVDCgGiinEyLq7sSpuYQkT1N2IGAbElQUpkmox1dQJhjj8yTL1WFLa5iEFpNgLMdmEIixCKDQAY/++mk8Q3z9FFyKuqEHrXC9D4JXg/NXr8NN7DMMRfCSnp7sLUMGmvMXycFwT34fp7cBokCNJNp8AiCmxEqH+U+9iFkbtnpOezlnpT7JgA+9eI3z77x7cvnbr71VkehDf9FWZvd2JKLzjQowbEgJr5q72XPRLqWnyrEkg24FBbQim6yRD2pX9cKMC2pYbt+DtssP04pvctxBxx8gpAmAvWOeOINjKK4z71rriMbaxBTwNbu49RRd28a0F0lagiB3Fso5orW5574lDMr4GqGZrt3YSIojufLYa/QtL5O1l/kbfPu2F1jezbdXCCVT6T3wJx5USPgV+KyR52GrWQM6rx/+Irm4fCzZxTpxTYndFlzZG734r/xv/+rl7GXe1LumwBoR5x/8b//bU3wWbStZot1oB2N1kfCCFEZNLDoncSXPYUmVJaIBB/k0Ji4UsVuInTTIOfIqJARjdgFSDs5dBPCaLBnELrLoaW4uC/tzdptlvlEkaCoUYh+lNjAJwLM3nY3Coy/cwBRbxqFXEhI0lACXOWD1OEntkNcs71mQyvszkzy5COtk8yxKSnMrFkXkqNoNL3nWshJQuPtFzRSqVpc5m8wD2HCrMWdzPkTMGdfDfHFtCPJMGzqZJTb6u87xK7972W5bwLgh//o95+8/fZ1CrXXeiKJuNkOrs8C/HKUqfTuMdYRYmBkJI1vES4xBwzYvsgnAKcXRqlFC4uDzWLOU/L7SW80GYfCZIEmDrGnG4sCPrq9S57rL9UQjrrcv/aUYULAAQ5TtVw0stPylvokn3aONUIeYtQKG3l0oRMCktUS9N5ABRS3JKHIVhLj3qSRD20rbHNoxOYAy/HPXvlQ7UvyXlMy0nwF8S7CtC6KbfB61Ckozr9l34Gy0HC5Nx9z2NN/72G5bwLg2g9fPheo5r5ENfvoRoqlywEyRGRegFZBQZnJNByxzgcU0KkXQTEief+q4mDTfFRwaI4uspEso7SfYjkBjFDHPbFI6yGlCF5FV5qTz1fwAIMB4SALgGguAdICHga8lBIQGO4S5RCBDpcApuldxSojoQJo8Qsajs2eSJfcEpGw3xJhYBQNDaiDLpbk9pwAJJteqzLzQeUWadYgqw+gFw0Bhk1vsQ2aTNNHdMDJTnmNGH7tf/tXnsNe7lm5LwLgz3/9753/1nNfe9wXmZbZHOLrWg5g0cI92jQDxWbv9vCgLuYJ1W4yaddYtHoBJ7PAdUQiRmJoaYFjd7jJYh+WHehJPcZBmHOY3hx5mg7YJ9hA0GCShSLWTkq5BTDKMliyDPopfSLMgTygqMSFKGiPA5pMHi5+PjB8ln1oQ4lMwFWoL/1PZpG7Cjcbwib4SJ6Ba271Hfa6YgUwOcPCjgwL3wEK8oNN7VWAysMQVqDOzBzr97rcDyAxfxEMmtSlwqxHGvRxJoeh+AdEBF9AdqXs5a7LfREAz/83//AcOa0FW6Lp8uQOh55nb4paPPKxaEek/+p499CabVYGMXUx0j32ZMuBQyg/a24BWSjQ4GBkYTnIFsSoHLvbq5KkTLKMlvgbrBKIs3ByZyGz94fiBvQBfLB5A8ZdoQ2wGwrCsc2tEVdtEQbXgoprEwYm7PR6kzAROq++AY6JxMYCkt+AHZwmDJoKVXHasU3bjVBdF3iTC7sF/GK7W4aeTQpymVRMiOVIdzR2wRSZfpEuTP40mtfbZeESXdhf/nmPy30RAPMYeUJHoHLY5UmL2j5yLLAJTR/LMOmbQ5v5luUvw/LnxZpGvGNP9y9/winXf+dcHajQiSoFhOHZc725YHtJVDp6TjCpD2O5a07vA5DmZ2B9rwC7EJIQoIY4VBb5ZTWdGmManRJ9F7lIin29V8aPYWBrYSKQOUA1YbEFQzI1bi1nja9uDNh6v00TmASE8EtQsqMrNYF1qdF+cn71ly74QuYraKRcRiOPjchZQxE6XXaVNQBTP3sPLmAv97QQ7nH51KWvn/mDv/OfXTreunlGLXGnjO6dK5a2WM+xUKQCwZfbsIwB8aMtH5b201Nvp7KEtzrcAJDb7+465JgVZNN4DZG6KGhkGZrjEMIi/L3jLJ3zlFud9UeRhqvZh262xDEqtsws0lg+BQnp8XDR0C4mnM43z9ZTHQ93owbIbbcJEtP8ZmYkTa9a1i6TVBuTV8nNSIP6CihuCbyOTuvZuIlqbpg7IurHMCMwH6ukp+mDMUHRmYWf257/1f/1Mx/HXu5puecM4Pnf+q8/Md2+dcY0a3PdrMBx4r2A7qiTQAQ4B41hxyvtRHOIZle9LMTXzIpEMFWLorwMS7N7EWrEtiOb11ClS9ovlpVvxeRnWeob6rHvRyfAd8PeAZcDm+xqn8m0P5T6IoHfkaMnKvoZmrjk/MHIM8Fca9KbYArowfLuL5QXdbgTUMBOfivINLFYGH1eA08ky7KZNpYlF0mbSISCDyazKPiIxVk6m/CuV0HTjEmoH9cFUk+MEvmgQoHVpLA1By9gL/e83HMB8NaPfvSnJtX6fWSF8e4zwmBEnuK1F6T+O8nGs4U1HdWwIJuhLL+pBxZnM4AhO+SFvNp6f1M44dy5yJxmBQHaI8NksygCdBUa+N4uJSa9NlWhFPMY7OMgi4iKLCAVcA1q+MD5P0ibM9y4mSLueFLBo1flaPTmVIz5LRW+riAzp5+9iNXAl5xwBn7tR+Ok2W1+E0yKQD33iz+ni/D+q7We8uluCU0ulDZs7f9urTRP/FH5JYJEX6piDkQy82Sn//el3HsfANOTMl2TPZtMNkvwTmS6s2MZtmJcky71SRYvZjtv0kNZg4BQ9ZRMCrXfpcWg/M4FytwD0g5YDowONlvsM6IOVp9QC0jDgDMBy7Yl89S5jW89m6D0mTQi4T1CzMhrQdllh14upRRhRWy8VxBIVF/hTiHctK9do6r8INI37pAuQhwkxLer0LQ+y3c1ZIwBiHYPYRIORXkWAnwTFqyAlofSfJKiPorEKmyOgYk0NyXmk4/HPQHofpR7LwAaPqGr6VFAHOJ/XsS9mtoEW9nXlbUusykLbTQbi2I6LDPzjA6oH0A80OxJeRrvZ00gV0hMXYBYfoy2xNY1QTpTHG/qm42nwn0RSi0UjICTE2MfAWFAq+5pBpPPeRDEmXB0CWN1U9B60/iwdrT7QS6MHZDG+pH8i5RsawUtmRAIQalUX1fb5TjOwBvdUM2dwN9nLrODOC3eoXWRmRldesTkRH+wwqFCftmbxIrJoH34xt/6Xz1zGXu55+WeCoD/5Rd+5fz8uH5GACMuN80LgehuG9LJlNYFN0RZ9X362in20F5KZoWF3WRBC032oYBNaG8BRDclWlpOXOn8Up/1aBlnkyX52iKaSI4+sWdFVERUoZN/Dbip7b70wDL41BloiTQtWAE5wYUspEGxOAeywGkuZ0wXhkwQaPpySt3f4tPsUigugGoxdtHubJpaEEtKqpDeJeJ2uwsOEQhFmNgVWx1JPjm4XVQGqxDBIyyCVOK40LHIgwmyfe3/+1buqQCYR7K//adP3yQ293efpWdmANDX0JNZYzqeGUb/dPib11ydfsw2TXDxykMWEUg6z98ZqNGDSQeW5uoLglrm8SFUFLxsQTnbZ94Kod/q0Fva0sFuqw66qrIuwLIWbclwNUd6TK1MX4h2XKM7ipI1QZ7ma4IjYnOmdrWnSBqe1EMP1ahdkE0O0qDcCmq2xYY56D9YZY0TFG26ccs+BdP8+kibsQB01oAM9Oamk9v/MH9DZBeShw/nzz399z6VeyoADof2hL49Bzp3jkMzsrNu0qk3nZv3+LAn43WRsQiPKbnlNAToZfET5Sm/mmUX/EJsZeiynmHTgySqQA44tfpd6wtAU1jP5xb23kn7AdpwaVpbssVeeaE8V4WEeySIHORm2yPJI/8RfN4tDgkhKiClfjuc7QwHuLYaoVUDHmfnXDAE5VgZqM4YVKN7KrE7/wywMMBzcuCtTRAYA0jhSHCdNwAkc6C99sU//dkL2Mt9KfdMAPzsrzx7dgbiJxw8SvPEOjVOLnDrs9SWVXdTNNucg5EJqIWhCTVC9/ua/S3bx6ba2bVqxMy8DlOlMNIRiBKqMZn3SpS3TmzTQyhMjl5dss+lihyl69fJatSAUyBDJuiojCIJITojGPIClGwElKhzGSZTtC3Ar159hE1vFLwDiDUeH2BGaHeySAA4qLlmYZP6Q5qhtNv+8r1PH16WOYEC330BYUKQOhNbOBeVlaAKIhMEGnkwiaIC6Tns5b6VeyYA/ol/7B//BOjYJ+s0xx5HPE0N/K6qUqBsGSkH874p14euK292u31Ctc9S/5E8pd987+7dl3Fm2tT9DYDa47owsHvuJuIiUJxZaN/J2QE8+KjGMjT6ZUxCL5qUR6sZFB0ksgs3ha+aExGRMEFCbpr0Pepia2ZCqCPVyQgncGlrXURMSRtrTMHBX5NzyMErm0yIGC235xKmQnY2al4GVKMr2asZhyp2jW2ov9aEDGUmoqZGO7Sd/t/Hcs8EwITjUwYw1pxungQ06ijzPABlmhDbT+blHzxHoO+TxT6BxG81jAR5N5/G0mGat1MDRYVUoTMMNVRmeflO5Q3EPiPNWAHUWYiiieV/ky6U8vzVhOgOh2wKIGx7FRIuY2JZMRQfQHBmsyxUELj9RLZdT+1kxfLrIwQnolX7mkJ/cmtUA3OwAiZ/f192GOo2qJVCqZsGUPiUhWzTZ4qvSZRkggxhNpgQkiUfQmjpn2Xf8db0DezlvpV7JgDmh32eNFumdQBN8pIPzdib7IU3SsCbvU5bFpSgIx9tWqsk78kkHKlcVF3X8GxutCYamilWC80AhpIKA3fPJXAQslJaiWkpFaHUFPRDEMSOx16kuYUAx1RVSWAgC2Mnl8WCMHYHXhJAKkDIB3uoUiKXVUEJPOPY59xqNUTh/HOvvshH8jPjeAGd1WyA12xFBb/s00w+t8fjVd86P8jb4ETlQ4j4dYUzMrR9SifWS28hW+w2XP7i/+KZi9jLfSv3RAD8mb/xhXOzHn+8T8yRlTD7w59kxW6x7Z2Eyu9YaksQ32yREEnQAQdFYHfcQZ1yhmHbpuRzOWbqSt2ShUS5qqEcjjbX1MtR5voS00PTf91738N4TWYGwvPd9JjetkgTtRQgWlinDkP8Bx47hGp/Tx02bMt2jyggmAGsfhNkWhGp7LLlQ41qQ80AmzPkQNN/EZpLST8UGX55bkDK/5dFPzw0x7bDk5yMLFncXy4jQoVOblqahuzmzZAxCNi8gAvYy30t90QAHKdbT5wcTmzmbB+Si0Y/+OyUpbAw7qXIwxXVwdxXytVcGU3uOSpOLXav9j1UJZOoeX/x5vzfURcJUGuDfITDvQEejosEHyo+AicaKA5Dpeitr0lIHEC0zDw1Vtjn3yYg67XDab+APe6DMgHxKejMQIuKUko8SCzBwSbOSg/neTjOwEYeR4fPyVdSkyi6tlPAj6gj5Q14ToF2SROCglXIY+7zCoQsmNlRfQXhqwgHoz7bRtHXDz222//3u9wTAdBODk+JF4z6SrL9FdswHSB2pATHDBTihjOFZpNuDkq3u2POvWJyhrnPdXELeR8Ah83vb7rROg0m9vouacJHrjMGBlJ6kpraCm70Mdu6k7CbNNTcGSjN2KQgkM4Z0PYN31LzxPHb63UBQcbFtUs2vQZx/aZioRpdL5HszUaSV99R01xwUAAugTTSgAXcQslF5PliHHB2FTP9XPA4qK1N1eoIcyK1CaR8fyBWDrKn2luxCUAinOwhXNvTf+97uScCYObB57qdO7E72ZokupvG9BdKLA/9QPZ+vQgPHgxAmrzThYAa3z3xRt3dFkGwJb4B5RUqIXKIzuN/UDB14bG8rfbgeQaUtS+grwJhInW3d8ElLrQuTDwjhkHuNnAsi3qc3C9vYo4TiI3+AK7WTRJaXe5JyIJCKTyCoi+sonWPu4ObwvbPgA7qDg/RJYcbp0w/2cgiEFjwaFRfXTOUWQDJam/OAvK5SExC73Sqv9dgwiObC7oy8IUvnvvs/vLP+1zuWgD8b/7mF87PwPioAHKSGD9P6mdTfCeXGChe7mFbm7IAOZf7jBHJnIPo577NI2/mV0QoINJkIGfI8LAcWQQSGvOXkJ7Tf9W6Np1I6oKuLCDom4LbgzI/9h6Qr1TopEWn/DLHOeoVkFa0fffxgbIMiLZ6Xa3k3Qt97/GQkkvfQQ4uMiUcbrZdtHPLoEekBIvdr14VzQRypyAiLThvC3MivkOZn2+nSDrqTmBKpAf68g9yVrLcuOewl/te7loA8DL7rwnRXR7p8raexjGKTXMbtVQNzooDn6hjes5tffIsvMguQYC69CFtY+H04fADoIsOgRklg09Zs/xNDkPJCoSCVjKDlBKTCxQKtmHzBihxY7l0qKDRQinvX+pnX1DUyIHfOEcne3INJRaAnHAjt7QDSCfr5OSesNtVA9e02zhHBbYeS7Yuv7lTWtLeUBVu9Zvd7lQ+NDqsLduPEBbWR2qJDDW5qRewl/te7l4AEJ9X3SORfFtdl5OWhcamVRV7Vp051Iwt69tfph4lmLoT8ai6PHJxXRk7uOII98G5b0DBboq6kBFXhwx1tZG8WITqYXC6r73WdAYykqPCCal6pSpRj0/5DfJiP8x56cJCubIpRMo59HpfC5BSOm/Y0wn8QLL3EekTMIFibED8LkrB9RxN6tH96VhP9lGx5wk86xWCqN9Zk8huQqgk0QiDC6L5kMt/7U89cwF7ue/lrgTAuS/8ytn5QZ6z35b2qmvugy0xSPe5lE/gBHSOuznJfbD467s7PD1D0Egw2IWMSpLEEEiBL9YHST4CZNSzaXam0hFWM0LEWN+nunDyOP7iB5hcBfbS4lVh7FcQDMNArWB3i8Bvgh6nEBCuzpw88g5+BWs442ig4wHcmKefJ/zYeaDiSxA0m5+gjRECBSqZE5ft9noHUowflIRt1+aAafnkCLTHHS8Z8ZWHpYkL2MsDKXclAP6xD//0OQ+NwXNwezFnnYJS3uPX37Vnyg+qseXlHEo36ciaqEsyLfg4TaoKyRmDalU20Bvbz3FG89bHQpmUaL+2rNTDlyrTukVM9I2qiRvZFCfZSZIEpBNhydcaMWFg98H9Et5LEUZwqu+qt2yilHSjGIW/UafP6Mur+ZLn2ptGd9CpI6N4+SNdGJKlJxN71NGX7fk8KQhhbgRdN3aRhEZo/mEdQVaeKPeFUv9TQlD/fnPC57GXB1LuSgDMmvFJcvBpjJ1jgJkXXBU9H9AoPHKwTEHRrX0l3b5sV59ob2aCeaps7v6UXv05aW1qXZg+g6++wbEuX1a4ntCfgCmjVKMKNvxV2qTJR0pWNTIQjQdfNiai30PNAnaue+R8bp2AXpfvgpnXoqWTFz7Z4hbhaDANHwk6GZSHZmIOJQnHnXAULwNNDE3NBQW+CwKlBcE8pG/mzRO5TTHtmBz8MafAFYUmF1ESbt0x9Oy/8qd+6TL28kDKXQmA+Zk9YePLeJ9NhJVtSofVp94zeDvQjzroZKRpfj9rerCz68WvyLIWXdj1bFR6eYGOOAp9wt3iO9BltozrOvCJhpl5+hpwqsebXPDsXyITKP2oI+J9AtSMMaiOhEz9iVW8oLE2r5tJCxD1W/8CnL42n02tpaDQCXxSh/oanW0ILXcLJ7aXFXfkS5oUZMzIiQlT0vRq77uWVo0d9ruaAqDIAwimQVkwIc1uVvm4bOi5mX/9//0//6XPYy8PrLxvAfBnfvUL52Yt/XHWV2hDF84ze1gmBU3cLLFFaa+kBR+6eva8HNgoWBjAYckitAA825i3yewkbKADdDInWxq1allAF63rOyXdWEc18qessHe01FxlI9K2+yxFxzqwYPP3u/DwHhBFX6wNMgUfSFDhgcTZIx5vXvRlV7NLMM0Ymj1m/CVAUk4QYiceru1Lk71LHlosk4Iox/mTLwIphh+pw9B500RjWFHrDD9Eui4V116//P/Ff/GffuYZ7OWBlvctAD6ED5273ZNqTB9G/jtgA6HJPHvAVwhShuzQ93fQo2fMqZ9g0RF9Hd2+ZPiUsm5YwdktV5sXAPnICUPpPYI6wgyQuoBIt45Nf5Np7l6jZ+t5WI8jEQkSFLQXf+hkW7i5ou1N3iuIB8/kn9RrMQ1TigYaF2Jd4zbT+qqpLeMuAQvmz7QKKYXsgLwkmEUQIn8fJZ6vzEKsGGMYAXqLFrD6C0JYVJ+BC7FYXSmBv7lV56ziynwBT/9L//Qze9rvB1DetwCYR/CTJySeev3t2lxMQZl+198JpAh3p5mCrZ+nS++pROiONda38dCy9tdynlYu4blJIgGWNh/90ZbVBwBpz8CcRJOMymbUXp2R8QUWP7BkBRcuRDFpuZH7IqzubDaolo1+2Z1pSQCq5ZBs/Zis06+b3VASsGHwuPttDYcb/ItNCqJCv1W7uz2OxCzM0UE1CiHhRxUm/eZbHyLppxn+E+vo28WSsck9Zr5cmTddbAf6arvNv/bsn3pmz/j7gMr7FgDTYv9D7FVoSG4pNvCbMwKSV0pDBuDkZjFR0HZB5ZIiPPU1BJRnqx25iBjmydUngEgoEq3rPGDqyw5DRmEwZ0AZgH2NF+f5Bph54atjIixr8nPtS2YfyhRUp3P4NkO9IvVJ+yfgN6eYrNxDynZMe0sV4QQsS2eTa/rwC8jN5ZKpR4kRULHHg6KDSztO59OxRfiQzzuA+jvNFFCC3895fq78Ypv4+XnHxXnzlQ/PwJ8Bfxl7eSjK+xIA5//2v3p+fro/Y6Bnd/jryFfgs0GTqXujjxzhuLxO3eL5X4Dfvfpds2voTjmzamKIlwA+4gBbSdi87koNgEhEMq0M+TRgg9xgkeNDM9v8Y53qK8dIvzW1pwudJFugBjV7veLXIj8ZCMLvrgGj/NLjiTw+bhN2SOP/etc8wQdItrZQJN9WQAuOY4tjzpKCKB0XfgitM2cc2rEr5yFwef64uHzOfb48S/HL81P6xhd2kD8S5f0xADo85c40CamRJ7CYqmOZ4NNX71Fvudr7RLGeruT/A/E+uGVxENWuAiixFOxPH43ucy/YFtvdnXSqvVuO+ulwd83teQqpKtKIBasDU0SRrzJCZnRTCfvZ68zMFRpcn7TW6Kdfq2t/6VtLGrvS8/qOvaztkUKDvj20f4rNk+cUZAddOP3QIwcCcF9fwCbqPD9vujj/nu31WaNjen62zi7ua/U/+uV9CYB5EHyig4c5AKhfzeD2VWs8W0/eknNwRDTW9X+83mWcHvWYo+6aJCFIEnRVR3OcpICUg+0dADp1F2wxPhK7A4UNWONqdOs8gWWWjOe3NfZkwt6EoRLaB1/ay8SHIpfdwklopAReETst+EqOy6swiHnxEevHaSYABhMgkoH0kmNSkJ1PdVLQrMEXgM+XdHG+6Rd5mp7/8GO4eP0juPLl3Ub/sS30Ho/H+S994QyOf+w1taNhs7tgmWKDZ14WwIFtU7uRPDU4vOez33+x9FneA9Zn4MsbAGHbbve3Ael0W5j2Zlev/TepWBJTfjE7lEcIuOzdgGHz6299Z0E4DcmIjOYM+DXAwn3mbLTfne1Qg7n42Wl/iu1DNTpRYgDpN2rYThJoVBBQOAg3s+5o+A6OFFtxFL4+t3WZFsrO/DyUvn9o/vzyn91B/pNY3jsD4J9+YlnG0+h+D5CpWSkaT935usx1f7GfjkbLe5s4MvwayEEsSURNNbykCC0uwP6eAJ9XIIBRMgCP7RE5Ek3jy9Je5PR/Mp+hmgjhrQLbyjtiYsCdmrBq3VAwKuE8GtoqNJLgwsEMbJEBXBxxadZcYgUK+O4HYScWbj6MIT6YLyX7BXgGOQTki00+0/XDERdvNVz+6g7yvQzlfQgAfgoA2Xz3lliEaVk2sM9C4GDklkSrC01tbr8GON0/x/6+P3EJKKhYGrXsPegfYuPloXntFCfY7j/AlGcNqoYPWz8d28KB6KpV67A6bV1BlTC9FxYUddqfNLltD2pu/wHVuVcTeRzsen3HW7dx4823ce3lN5b6Ln/sn/qTn5/7c/GxqzPI/9wO8r28+/I+fAB8vpvaDH8xJyPlgVPCjCF/OU0H85LvbhOFZBUgKJtYnH8LmmWiy2RuvyZtSZKQptmapJEj2DmBNcz9XX/dxzClKIKn65oZAA1XJvBbP4W+q5ngE3zIBBBgws40PdxFAaL0HZmuk9v6mmMUzjv/LQJiAfl04xbe+tEbuHn1rfnzKm7fuImrM+gX8COIyG98/Zf+ky9jL3t5H+U9CYA//at/49w8uM+y5cJ4Fh+RecZJKTKTk/OQBqIFKUJfcIo+seSVTzgsbwV1DS2pt4JY0bASwD+mPJ2pTMRV48F8BSQgnyKOYCwlnIJqPjgrsAtO51u9dn4XfAxbxciFjwmMoOhYf497gVtX38bbr7zRP2/OwL7x5lt4ewb99TfecsFSijMXEU5Hoj2Dbi/vu7wnAfBTh8fOuX50w7T/xCFSZeBmt6ah6lx8N9v1INXeUNKrlnYf4G0+6UiTpgF6rCEsBlvXsxcLJXKK51lj5gswdJurgBDIzA4+pTPSxQakHKOYzE/hT7DrtUC6mBRQwSHVHq+9hRtXruLWDO5bM7Bvzp83XntTNLlmTDJq502Y6CRknTkJ76Te7iu3/8P/+AL2spf3Wd6TAJiB9uSCjxOQLdaBBYrybg952YcOWQROFyAdnNoLMhSfOn3fbGsREyxpxLLgpS72zckul30GchccjOQHlIanTOf79qRN7St5WMxeMloofWvJBLDzjAkgWMHtt67PwL6G4wLuK290kN987SqO129gunnbm88gdsoxanqXd+HsZGcwfvby5znsZS93Ud6rD+C8gow1UU3W2SN9xw5BF9awieS6BoAl7pHRdIFN01yBBdSLcDiyAbYJGBMwmlHr9Fqtvpfc45cALr4CSo571956rIcBzY+h1MJEFychYPb/8eYt3Lr2Nq6/OlP0GeSLjX59pu+3Zw2/7DMmQ1nQJMHUJxDZC0D0utg6lA7U6EXKs6AQApTSExtdwF72chflXQuA/92XvnR+jsuf0WVumfJMMCKyt/+IUhM/fHfyKWhliIumVRMBQe4ViHABkcAYek9FAUz3F1e+2/I52T6ARmFFIEJ1tj6BsoilH7Pz7eYM8rdnkN96a7bJ37iK6zNdvz1vW0BuTMPBntkFI34jOm39F38BskQCJcpv/WvhJEj1kLXpJGc63r6AvezlLsq7FgC3cfvJA5rZpboiPTxebtpcfXOdOi9FPNwB6mbT6ainCruWW/YtKwovPw6S+Rc+OvM6kmYI9HqbmwBufwMuCKY078BQZtp98bDfevu6gPzGDbz92ht4+/WZrl+9jlvXr/s1F9vctsQLfvrflC5QTAeHfQGyCSXZztnx6BerQqq/Ls1iot6EbJMfl2/9R//p/t68vdxVedcC4LF2cm5CxLFtkU0D+lLYl6YytQa3rZctzbzkScObWTBx2OHMAdbJNT37+4T6dp2GnDWnFEXRNOHmjQXks7Nt1t5vzZT9xuKAm7X6zZmyhyZHOtMJdzAFjLa5oNXvxWC/c2ImPN5Egk9YiL6LNa8OkmALHlkRiamCjDj40AXsZS93Wd6VADj/pS+dmUfieUq0VxarIA+BieUedn6mto3ygE/56Ap8eQuwnLso2Emm1nSQ6zwAOV9ji/LSEGEP169dmzW4gPz6/O/GDO7l9/WrbxWnWwDVHH3VPIjFRSiOS8rfogayOrFmMJpjrsiIAH7mDv23mk+m/kVONF8yDd4DFxIGeJtpQSoUF+fKHv7by12XdyUADofF+ZfAo9unlM/vAE6/7U0TBkQutn1Aw7W4aX7SF4zMFRzn4b6A+eqV17tt/tZik8+gf2sG+dsz2MHhV0jaMcJ9uixNgNWcAVRNg/xG30Lf8zbV7GyJReEDyNeQIhpehx1n5j5bllGcS2klZU9uSgJFc5z1Tcsf/tA3sJe93GV5lyZAe8qdU1qKZasa39SYJc5QGO9FGCybF5fBpL4ADR/g9hwye/WlH85gfxNXX38d1157fQb77GE/HhEyhlzwKHpgdJuShzzUsCpchHfeEpPMjDFh4eBGmDCRzhT1ez12JJueTuDvp9pi45mJkIckmJUGxOIkMmmf7R2LBH3xoUdRelMN37jxb371Mvayl7ss70oAzGB7gigpRKP0sDx207ZIoEzaNjAED3HN/92eveovXrqM1374Cl75o+/jenLAleKojhTboOsbh2kfmtvyYTIkTYzsBLDZiRIV0Ksz65tGP4DHL9SpTwZY0eGq4SkbEJQvQyshMuDrUc0ZQQgRAT3ptMT+Jk7sL87Yy70p7ygA/pkvfenskegsnDlbWK9qyrRMNZw2MxBrzQuZvTlr+Re+9W28/ML3u7Y3gi0lBIdpVtN81aDecLDZHqLVakA2z5DcZ6HTkTEIAkqOSWtSBIc7McyccNrenZYdzLa7n+nhvlxS2yI0OM1MimvM7gjyP37IQgd+A3vZyz0o7ygAjh86nG9ExWvekoaCrurvmixlzRnlv33zJn70ve/hu3/4nRn0P0i1GwU3Wg8AyQM/aN4K6pAJJkQELOQndK07YNDMFb8mDLF32cgRe3DbgVljlk7rTVrlxETpnb9pQOpOTkaKyIH7LnIsEZnh+JX4zZrDr6+//ZX/4AL2spd7UN5RADQ6eVIAN8ng5dDsNrgbHdRJZnhAH8ALxX/+934P3/3mP8KtWQhshc2QIgO+KbUfgsbQwYOWN+XcEpCC5pvNHbZ7CicaEy/IM/ml3+VcXaC/jT3yjCY3A6ymBfSTTYIgDFS/f069WrZORJUU/gl2B4HbHHvsfy/3rLwLH8Dy9t+mq1zpOHQfQHKwKWaWIxawf/eb35zB//td+5tKmwpCkIyIRNmBCuzAop0ZFQwUe3mpCCfjgFJjzhgoOQ/FroYtESzLfBkE9eorAwdiHdIlB0LWLEryppoPZLfInYzWH/VH2MRmnymV2I8An5VwsBgWs6zd6f9e7lm5owD4Z37918/PH2dM1dEA9qYD00Nwxwnf+Z3f6eC/1XPjgbUjMIBruDGNWBi/a2M1CSxunnj/yCYy+EOyQBf7SsAmuGal4ONyhS58pIKWFvdUoVRyj/xNAbqSIKvPzucTUHVORtgQ6jgwR6PvNZERkQDZ1bffpnYBe9nLPSp3FAAz6T/fWrJAkai6m9qy47Uf/AC/+/f/fo/Ru5OsOr1SzaEWnYDr8eSTZYD8rgE3sKkAyDqWGkgql5x8qOywNsJhx2bHFJTa+eTpAxJJsHOyR8SFlL7HTFAtZgNl6QTrhTGOxEpctKTIYDAs9uu4fOvf+epuAuzlnpU7CoDDyckTvMTg1X7VRQAT453t/Fu38J1vfKNrfQNZ+OHUvk+LZoQHnUoijZsBfmoImgz8hGbTjmpiG61uus30b2BQhYZ73jnFBUMeUSYWAngz1OdOtjY4AJGnKrOxAEoNq1eUnY3M98P9BQZvzaq01F/tV4Nb/xJquIC97OUellMFwPmvfOUMbt4631N5jeVyzMVbtl+7cgUXv/af4+03rxpNjRRZQmh+o7du7WK0q9WRLoXNn5AFAsLIlra0npY0ecgfFy2TUnNrUqEo54Y3XxvWScAtORSlbTEjGoyWu5Aw88XAD6pcBy5K5GJa8zcnmF+AqvNSljlCrKLiDsaJ99V/9nJvy6kC4EM3b54XMksBRM3BX4b89/7RN/Gtr3+9z6brnn/zA5j5DF3FBnDhEKmtGdYDred6DCW+QYgKMs4S3R4q6prVTQMJN+ri3ypkuKQST/0g9mqtIuX1iG6bIOrAb82hz3GWswlO1RUzxqoLNoJ4wXr4J6yNRtOe/ruXe1pOFQCPET3FOnwn9VHZ+/6+/Y2L/Z+bBaDiAnfuWwg4gEHLt+Qf0NVv1BbuIgVZmvRWyPLj2e1zKnQ7FgshS0JIBrSZ4T4fwc0MNVV0kVJyuoKc0KPsoggk7ZP486zv0qk8TbJLztD8HdAkEUa1aPR9hFp1EmfmJABfvL6n/+7lHpfTfQB0eCLGvYGF8fv/1W/hhT/8AweNDdKCtb593CAHK+CN3trbdgw9wX7Jjhe72yYTed3C5Um0uvnQwhfgMsFZvkfTlFbb6sCOdc/Li7CgdkmvkxklZceZh1+nODGtrr6KkWYWZb+FC7Lm8wF6fU1f2pUSD0UacZ869Bz2spd7XDYFwP/sV/7F8/NAPBvgltH/O//lb+LF73zLBUKeBdhL5AfLz9bMfxWHkfNbBUmjcH4JyH3lHPj6nO7Ag1XlGpcwmANusmi3XRqMpkKWTek8nZvvuQOcjjeXIcKwMVrg1XodKc+X0+4wOVhyCexaGbBZS/0IYUW2CnLb7f+93POyKQB+6qfPPGVk15jsN3/r78/g/3ZZ045qynsE0ZPXLXn3VRWyOhTVJlblzQEOqVyUYRcOnozj+lfNA1tUoModrUc/jRUkwIrAcZHkLkuENhcGkJKR9H0AErJvliDo4ixRE0a4+LX+hnQ/gKzhu+exmSXjDslgJ9L9K9f/9X/3Avayl3tctgXARz/6BCWv13e+8d/hj779B8KOY9yz+alcU5JyeAhWXasGpTYNHMoxq2E51o5I4T0gtCIErmm2ncoA7xu5ls4swCA/7LS3Ffd3EYQlYh/KwGM2YROjgCxnByFcdBkvmbwbloEzHJtDaIZ/EgN+P6Q9dxlY2WP/e7kvZSUAznz6U2c/9JE/ds58aN+ewf+d//6i2rb6uj8bxrJWffjWenHFanZ+92DbHrO/s6Hu25AmGoWr3EREZA6TW8dOxgWTkdYrJ7iXjYxlOzhhOPcZggZCUuZissANDF2PT7iAhedCynmIDy5wLBJgy3s5OchZiFCfoLMiOUPmEmhn9/TfvdyXshIAP/uJP33+scc+3CHw+o9+gEu/fTFCbuZFM6+3TYJxXKUQn8FT1bM7wMIsDr8YByj11GzDA+bzAzxIxvZKUrWRJ5a3CMqbguItYEbltX69Dl0pgMNfkARN9FNfgKjeeuPpbvCI1aAny/sDWN90ZGxDhIksehJsxciVspNFQIbWJ31D8mxsHXQ9wNvTBexlL/ehrARAe+yxJ5dh9/bVq/id33wONZ9OdbibvoidhHAKapAPSF5CgjsOGUkkZKGh2p2z21B0pkPNjyRP28leuI7xFllFmsBjPdX3ABpLCJa9ziuAh+VM+HAwFZdBLuQmtV2Wl5wKU8jZySE92IWOpwPrJCRSx+bS3ZbuJC5d+zf+nd0E2Mt9KSsB8OHHPnJ+ge+3f/vrePvaVU1b7XDlxJ3LOc3tW0to8bW/aTjUHWHGGMSpRlq/O8sS2E1xapUKFsuzyZTfznHSocwhOSaL921paFIBYf3SFtUwtwqSKHKhpv00+SfmgMskGKoT8E2Yyl1wE0fPoGBNUHkqxzyHvezlPpUiAP4nv/yXz3/0Z/6JM4vD78VL3+qj2pakM1rrDjJTnxROtuRAc6cfEkjzJJilZNs/Rr5pzbRPj5Xpt9Ik6cvyyPLqKQNHlhnUdfUFXnp4EQPLX/PnQTWu5SBQ5BGxxfxU3XdTpGv9ibOwaod522Tpz34hI9uAiTjPFtQ3pFEXSKwsRl+2QocL2Mte7lMpAuDsz/5Tn7h+7Sq+M2t/08rmYIustUAQ4N5/M3pNO5Kb/B1/nSHMAD5QJPkkyyKZCt35ZV4xmKlt3vOIIqizzAODZO4Ctc21D+aApNxYd/pzitIndOq7ABlhxKcD/Np9koP1SfAMSWRKLAFiSshd0LqNTajtb2sRkAHfb8h8/K3p+Bz2spf7VIoA+MiHfvqpS7/7Dbz91lVWrGct5kPaQnDCapUsh5NNx64xb9XeHteimDnXf6bJMAosy9+3rTqbkJJdnJGriFw58ZIRrpubChf17VuXOFIAPBIA9VKquRItMCVbvrk/0TwFwRZy0wXUNBpC/Rpdbtld6vL34vUv/5uXsZe93KdSBMDx9s1zC/0v01U964fiBZ2yp7vUxNnVqgccro49sOWRMSUWFPE+sa/NBEYCmDbdcdlCGZPGACYzKYw1OOrIHPwYfQSCe9HEJkiMZSCp8uUe6AtJTLawRQt6RbqGSW+LwMl+UevHC5sDIwNcD421A531uCGCxvQc9rKX+1hcAPyZX/3Vc3/0B988s3wv41QGZbcA+su4sq3tSrgLBwogJc7sWAyIkK3AQc6Sq4ksVjx3vShsQTSymxaaVxBeOe4hs6xBo5+UnQlOGRT4GGLv4aUnj3VoCoTR9XACpjZgNkBaH5DsDoSl4yG/6KaEGqm+Y61f9PQY7+m/e7mvxQXAdOvWue9f/lZ/Ywe5ne6Kj+pruY0U59dYR3JNH97Nx74NeHMUjgtoOtlwmDYgOddcgwdgrW6quKZwJtguJp+qzNV20OVIdKYPJ6eFXQcS9RcfRrOKIgEAwj4ONpNQRdOh6TVqhyxnIkhKTIjK97bfq9YXWqXX/9aXL2Ave7mPxQXAi9/5wycDU2q4Q0N6Zv4iOLkcaxl+MTWXKWYBmz0sGXL+YsvR5lXwhnsx/OdOJtwMcblgdoVGF8Qrb7iEex8oGxYmIPRiLN0noCyNe98s9ciFFPWoQUurA7OCv7+CbGKrWl9dCs/+cw1vXAa+lkmviVVKtsOhRxewh//28gCKC4A3rrxyHvmNmU1i1Zw98gAVexmW2KNIbmEYiOOvOvPM0WaggOORSnDBOqE4K4zBeTLFlN4+806diynmb0dzkhVJyITFwOXDjHjxbej1ZoehZ/+S3jBdcRR9YiOqAAu2EnyK5FjPhnaXo5OD7lnc6f9e7nvpAuCnP/Xnz9++dfOMvQXH5tqpbUwJm24/Ky2Owa3oI+P9SgTYYnjQfPjsBU+LbLo33IEB086OPN0mTgnD1+DJB0UsUoRXmm7MnpsDF1+OWA3Gi13jggfBIPSutJjDr8wiCSWyZCgibMT/UYSUn8nQ0KS7Hgg3+TnsZS/3uSgD4CeNWte58LY2raUABAwcVB0vBw2AUcKZTcxpZhjI8Tr+LRhPyTBm4xbNzhWrQpMLXRZIxC073nt7wSbU52DRDHMpcCYkpK8lNc+/AVf5v1J29gYgDgNK0Tu9P16pHqjAN3JgcyW0D93GT8IoOyJh9226/Nrf/vKe/ruX+166ADjQ4TzHqylC0yoEm06KSV5vmG+fY9qc8vag30LN++h2MHaG0XytfafmRuUTD46KVCPDduoEmuDUtuqw+BvV8efv7VsEimlWzinH5AzE2IObOM0cmEhaftk3iaFvijqxA52eBBNMdu1aQYt8AyUcxq16/7oAmjRXYF/7fy8Pppyc+dSnznC7dS4BWvIAbOwGwTU12L+bZWDAUf2tGXquOQOzzqCbEWXYDiZr22ftVUcgCV7cGCd2QDE5VZdTLf+X/O3AuhS39rurfYtaqExpavRECAHONhLd7305tKARDH8viIkEtkn/MMmV76GIVDGQLA/qoBUtvw797ywGLmAve3kA5QQnt8/JUA3Nq756BjzDBbEkqBXL77fTInbnHJuMQxPC+6YswCYQEXldKhZsGTzOBraGG7sHfvH2Tz0sR93mUHMhNLq3JXKpzw5UcSTgb35FPonJ4ZpOZXsPgAgLs0IkQ8GOtWtwZ0nkBGTrgCzmYNmIzUhSpByaSTHtCUB7eTDlZB7J58iBuWxy2z5sbsCBG7RZcEHJZSBQVkeADmlbRIOQlv2iNBufrC4yDMDf42UgVKFkOOmpwbDIPpy6hzlNudv+2+qS7b5gp/s2RtSaWldLw7z/0krvclPxxdk+YpdF1hRMUIgIbfAJRfCcICchfPHKF/+1y9jLXh5AmX0AswBoSofN0FX0ZW96t2KpeaxdWTKFWa6b1IGnLrOSohuyAgGy/svy/ElTfskBbi/gbBrq0/M4NV0AbxZKWmHHd6YzIL4NfbmnAda0feQVmENP9LWZRbEYmYX49SWhTQwU5tJHkwxKEMqMSCDWGJC1AXEBe9nLAyoLA3hc7Vn30mtRDxoQK/bmbDZWmk6u/XsJrSlcAENiPJCUZZgDwFBNWimTVCDp8e6sSArWi00xsBAgBlawJNmYZa4Ozvk6Jl+QYzn5oCv1WipECJuYwhPOSyURnBdOivCFMQGfN4Hos4lFSvdmLvvyX3t5YOVkHn4fRdLPUgSmLaa2CodVTWnGLmwMw2lz9wQ2lRE+iRdx7lDMSy6JMZOG1hJlYKfMUrvPlx0jA9IPa8qTlwKuEhZsHL0PQXTwY+3tQNKfyRkAslfBLQGvg1Muv7tAGnL2Hzx6YJaLyZXwkTBe/pV/9QL2spcHVGYG0D6etLc6uPrSVj7SZXacrbtHmu5L4bYnSv4BQvboIyh/OPcVENmE6JsPalUkjyFlAk21Jl2nAHBLOgJ2WqU7Kt32N8ASbBVQ9k52UIv/oguhk5PODsRrr977EALSnC40gjCY7Go8AcpkRbrvHiXRHzbR6QL2spcHWE7mAdxnAIZ5bMBLk2IUU43Ig1gI2iCnBZIYpuiM17tHLIXfiJyeu9anWFiTU588YEia96/afRKzG0Gpi8eOYwaxNp9AShRhQkQmjs3OyaZI73j2iaTrUhPA0o3B7gBN8ibE06p4ItFSDsw7/d/LAy0nNrAZqPPm0/t6k7cN6ofXPR03OUfI1ssWfZ2yBTsFH94CZFW29NtAqx5ylxia2KPzAkgB7IYBbH0BE1jkwDbnApGv7Q81bVRqcfgkzMOp2YBlwhJC80srJiuS8Itb5jENBIGwQAJs0kR6owgtAm1f/msvD7acdE+XjE0d5KRgrVpY4MSwFWvV8dUH8URGjF2Ryqn6AkwHeGoHqPa7C6BkOtiKhO5VS2pcaLOnDjLM5ZDA65NzFbIB2KAW4vdkd+4Z1N1ORzg+Je2o20NOXQa1nmiGr5rkO4AIicKtf2/n8sv/8hf39N+9PNByMo/JK/MwPINGDuI0cNVMFl4ta/tFIYnHs6cRZYc2eQCBoqaBXccrvqRNlvcCSgUufCgzeY5lSEx5E0L5stIHpH6AgvaTdkXOy9nE9poxVieigr77BNNaHS5U0sLHHpHwTougY6Swhl90xnyvSDu0Z//t5cGXkxlwV+YhecbHpIKtEWWKCmwkBqlYcM+eTHQz0BVzmj2nF+klIpq/r9l8aUFOqS+WDZPfnqugTsdmsKNsrYxhAbaZRB40cDKh9oC8GiwTDJ9tSHoj1FFXK48zCCbwoifkf/Vc2OQhVtdlSC1aWNIF7GUvD7gsUYArqn79/XdabJQ6XUWg2Dz9+uruNO22VUsXo/lsL9wg8/B77MC8C1XQNGEY8Lg70gs1Er1XhoESoEdwfOnR8KYgToLD/qSuiotQz41OBZhht0INFrH7wwPqSQveBJkvNBUJo9x+DnvZywMuJ3Sgb8zD9BxIfQFOt03750l4osplvo2PfI5EHQrII4a+bIsx72++SZDKU2bhiti96snvEKRbV/NSd5s7MaMbvnKRrzzsS5JJv0v2f7ot5sRvcTmaMejMQa5ZuUHqq8ygNtdk3g5b4cT8LOGLoIsvfu6Ll7GXvTzgcjIPxyvt0OegcyxShaSH1WxW3d/UD9DCHucsLPoZZf1ATlq3qYJV+q64kxmI4b7XqnTloNSLpehqvGagdIeleC1ByCvypIQbpegusmAMHO6EH39SMAH4op0p5JDiIFwOVpPHohbSUJc2erWSE5jFzWyGPYe97OUDKCeHx04uTtPEy1p0sok8uGZ+sJiz14WEsWLWt2STz5RDGAmGHdWTHBNhFWiqScldfG45CLs4KIxNOasH0EWBaXACIc83CCtFqbUr2+waMKEUm7kaICEiOEyDEIppahC5JWAsxgRei9WDrC9IztSQtUfsy3/t5QMpJzjgQusrcQgNhzruzfsv+Jq6Kd1mi8FOnFL0nNzfZ2xdlLfQA2UIU7wii0yg6IKj2V1ILhjCR6ZN9rd+CmNgW+cv7HxFlxkGHMqZktAw10DqhRTPbvTG7Au5BzNxkWKqeBYkJdlBPuPAHYis6xPFGioiNF74F/6VC9jLXj6A0l569ouXZ3p7ZXEA0swC6NBkaXD916n1oXXNrzZA39az6g8H8bHJMfJPj1/W6V8WzyBdEHhmGuTHLNhtdiwtK+EubS3n9DZb78NB+rEswLH8Pmj7iytPFhXpjkdS4SXmRTNnhFCT1sjDm+QbpX1ZPEQIj6rt/lv/USvndKxS2g/LQNRrV7NBJyC1qKufK9e6hDily0361mXaTv/38sGVviTYDOSvzjj4VP9O4fZ2N1aK/6v+CxeYO7htP5kLzEwIV5VdoCxM4KQVZQqNJkxwip35ergFKDQ/FYUcJoVxdebxmFSHMQ8A/t6ACH8E7fCVgxALDcE5C8cNArJTUfsnNRDXEGAKnOql7+m/e/nAigiAhudm9fyp/t1JrGIqsWe4WSB+sXjdtc50I1tzj5zUy4HmRqA+4QfIvF5aUgvc/fHZL6+4s8w/qPURXnTrhDn71KnI0VD2uKdYvWDcIwzunpeFgzTcEP1pIf581pQ2YrLGQgUuc9yxQR4u1GsSAYLbF7CXvXxApQuAx27d+urtj3z4C/PXj5Y8/fQZaUDZnZ4sZXLQ9o2Rw0MW+SrV0oD1/oVDc1KSEcLE/ZVaeVHPnLcAhzblOH30NsJ7chmGTa1HD0C5tEJFUknsgvPNseuAX4juaLHikVKnZcflF/7y/3dP/93LB1a6x+zys1+8MqPqN6gdyOzfzvpn27adHLqNu9jd3eYXO19W2m3ix1tsfhYfgqxw2/+Z/Vxsaoba0mIai/Hdj5N6xAMpx6jpTXCHm6XryqdIm2hH65a1e5q+rLD7EGR9Y7iLQD6pef1eD3l9vY9t+Ix/1ofeR+036XV3/0dr1lY4DEUC9VkEWu8F7GUvH2DxNwPN4P/yDIi/gGDC5EE9n3LLAi71nln2K6vONb2tKj7S7HTVS8o8QPbM7bJPqfHjB74Qip3LIbEkoBzX4Fl+wRDGds3GaeqZzwyi2ToHrtg979Cm9fldaZztGN1rBECj/Y08mijpAwA4E6l9/v9ePtjiGTsv/JW/dmHWSs+ZFutaX6MCdHIQj3kL73yPBpj2NEUOGANgchXetSObp37ZJ/vNGib1kvd/HBrXNKhqX0Jsl+gEu0a3uuWYXr9GLLi0178TW/+MMXgb5ggQtoEu+bQuPVfZgZgkdi4kskAWMehRit7/ps7Szg7YzjG7o017BGAvH2w5yT9mCv9rs9Z7Aqa0yJzh84g9IK/Bm6YGuwblIAkwBe0YtwxZ9Z/blABdbiOm44ZSHWbXtDiu/zRvv8+ohzsqxFBo2rKoZAqOEirY3IS9ny0tcwJlM+YehKn4ntDEnmQM7/Ws7i2+n1kOFSeCOxe7sLp4+Z/73GXsZS8fYMk5u7j8zz375Xl0fiO0rvzjZgtquM3M3UcQ9rFpY9JYOZPb/6bxAF97oBFb/H4ppu3hNnoTDm2+BIvJJ1bQBZIxD6tPtC6Zf6L/k3i/5R3od+07aZySwu538Ft71n+tG6P2bxIBcd+JH5v9CA2Ws2DJTPO/Xfvv5QMvJ6stzM/Mg/VrpguXOLbn7fct8O0eLtTZeuZZb/YSPnmBH5ktLQeT28Ty3RQpJSUuCEkLAkXmn0BWWmu+0g4hfAIWjCDTuKq51SngNMZinN6FWLs//daqoi95tp+yHSCTI8T04Jj6qxWSMRvQtKf/7uUDL7S18eN/61+aBQDOwwEVfFhPM6+YRtmRnG6aCMOZ/qozkXOCAddP1EPzBkKewgvPPspv+rMJRiECdPoehzmS4HrKNfnJ0rIKv3inH4sJUPrpJ8WFpSVHgeEQqfvKpc/8v34Ge9nLB1xOtjYyH55ubfo60BcMDRWNBBtyaxlJg/ZR3qMELexkC8h3/uxe8Ki2ZscF+G21oXClC+iJW6INlm2QTtRtzelG0fKRsUfq39Cq2ab5+sVZ9KLZIeRVks8RgGn6YBlxV+xWMRrSZezafy8PRWlbGy9/5q9enk3WzyPbxjmn3uL/Tb6bx32xczVPX4DgvgH1iJP42jwvQOtsLefOU3DrtvILyPqC2r4cq7Z96qvk3Hud1r/Ulrn9mucZkO4zP0C2/aO9IR+ANKe/ySSk/pZ0a0tzJZpFCdQvsuyfjrc+j73s5SEodKedH//b//KX5/H7F9x+B5wGO/kthWPNLqPXOe6dp8GXabta13jM2FmqmX93PA7JBOgb3VzYbmPYHkynmjnvthRWU9v4tW//3F99GnvZy0NQTu60k09ufpb4j31iRvwnImovCTCcUngdmDnP3o60abbOvNVZyOQWecohcmlgIobNN5dNhbTPaLoZAtYzSqm66pKzlwJrxC4ovnYBIdbCGok5RYxs+WiqsdH8vAKwvuq0xXRluPeBbt/kz2Mve3lIyjtqtbNf+pWzj9Hha/NQPiv2MKW4evZwq+PL2AHpNBpPfc8+M80xqHMEzGOfMRjfk+L3Terl97lGflhx7oWTElFXds3DoxQscqv3I5yPLsSQwM6+Npm6N0UAJu7j7ZmvYP7/89/65P99FwB7eWjKu6K1PzsLgamdfG0exWfXFZAPcqPbvN3SmnpbmA4ZzOEudyGzaUYMrynrWzjako4E5lNiEhc17+2eWgb54/0o20+5Pmtp/vjr3/oLf+UZ7GUvD1F513btIgT48KGvzUA6O4S0okgSfF4YXIHoVDsMf9OdZptHJUAiBlvADPva44HaHQ4+bx58UNb2mU/U8/QcmcuPONXrshMzPfFzKW8bBcYsmC7eOl79s5effvYK9rKXh6i8awGwlJ/90hfO8of4azAmwNs1pHUBOdv5qNvq2aZBk4mQNXNw+FPO0z0cScdI2QJh358iu+IESqAe97nwgRN/S/jpV509EeIBmb9fuHGr/bnLTz+zg38vD115TwJgKT/767MQYHxlHtqf8LyYeN2XK9F1S2SJgS4IRmWLkQjkHiapUnptXkIx1Fd9IWZy5W6btd/mPwjFn/oGEx6yn7LDL/sqEP3c8A988R/9nz+70/69PLTlPQsAK7MgeHaOfX+O1zRACHGstBNqtyvPZqBMJxqA00radm5ZBQyrZEI7mDcu7E7bXEub0087Il1fncNqrSQpEuuOljZ6v/jy/Ofp3/9nn7mAvezlIS7vWwAs5Wf/rb/+yfljFgR0VqtTJehVpwgZU43jb0A0aeIw1nmsN31HYRyUvW7QxciwZW/0rpGzgrR4EGiof+ynC4xox/qwAH/u/Be/+X/6pb+OvezlESh3JQCWspgE7bHHPjcD4FOcaXa3zt0HGLS5b2BX4QlGHsoDsjkfqp6NimfuIHQ7QBnp+Ox9MMGjQNVXjzsD0HkLAfyVmZHME9mni5N1E+byXM9X5yp+4/f/j794AXvZyyNU7loAWPnZr/zNs+14/Nz89VO2LdvS9pvebZujdh6L2f5Dsl1mBIV+pE+tF8XnMJgbrtVFED0/t7Msm3YR0/Q8FoqPw8W3rt28vDv39vIol3smAKw4I0iCwMpgD+iiIppsw+r53+iTvTZ8lQZsIB4cjxnopwmdZbu8vksdhwuoqV2c0X55+X4CPH/rcHLxOj5y5fKfe3oH+V5+LMs9FwBWFkGAw+H8DNxfmn+eg8+iNR/hu2cDI6CBYBV527hdEvk8SP/a3PjrHeQzuIHp0rzteZ5B/vt/7jOXsZe9/ASW+yYAclmEAT128iShnZ+x+sS86WcWBjDpu/QKwNleIbAOJ27lFeQyn3ZlPn3W5HRx/nydpuNFOvnQ14/Er+8g38te1uWBCICx/E//7b9xrtF05kj4xPzz47NgeHxG+5lZX5+de3RmFgEfddPASre7u6Pwyrx/BjmuzPb4Qtef3+3xvezl/ZX/ATZpzNhjjeKYAAAAAElFTkSuQmCC;fontSize=14;strokeWidth=2;" parent="1" vertex="1">
                    <mxGeometry x="-2700" y="-1530" width="40" height="40" as="geometry"/>
                </mxCell>
                <mxCell id="4" value="" style="rounded=0;whiteSpace=wrap;html=1;fillColor=#b0e3e6;strokeColor=#0e8088;" parent="1" vertex="1">
                    <mxGeometry x="-2960" y="-1070" width="220" height="100" as="geometry"/>
                </mxCell>
                <mxCell id="5" value="" style="rounded=0;whiteSpace=wrap;html=1;fillColor=#b0e3e6;strokeColor=#0e8088;" parent="1" vertex="1">
                    <mxGeometry x="-2960" y="-938" width="220" height="100" as="geometry"/>
                </mxCell>
                <mxCell id="Fx0rlqK3VMQhxRzqNE1V-22" value="" style="shape=image;verticalLabelPosition=bottom;labelBackgroundColor=default;verticalAlign=top;aspect=fixed;imageAspect=0;image=data:image/svg+xml,PHN2ZyB4bWxucz0iaHR0cDovL3d3dy53My5vcmcvMjAwMC9zdmciIGZpbGw9Im5vbmUiIHZpZXdCb3g9IjAgMCAzMiAzMiIgaGVpZ2h0PSIzMiIgd2lkdGg9IjMyIj4mI3hhOzxwYXRoIGZpbGw9ImJsYWNrIiBkPSJNMiA3QzIgNS4zNDMxNSAzLjM0MzE1IDQgNSA0SDE5QzIwLjY1NjkgNCAyMiA1LjM0MzE1IDIyIDdWMTdDMjIgMTguNjU2OSAyMC42NTY5IDIwIDE5IDIwSDVDMy4zNDMxNSAyMCAyIDE4LjY1NjkgMiAxN1Y3Wk01IDZDNC40NDc3MiA2IDQgNi40NDc3MiA0IDdWMTdDNCAxNy41NTIzIDQuNDQ3NzIgMTggNSAxOEgxOUMxOS41NTIzIDE4IDIwIDE3LjU1MjMgMjAgMTdWN0MyMCA2LjQ0NzcyIDE5LjU1MjMgNiAxOSA2SDVaTTEwLjE2OTkgMjUuOTk5OUMxMC41ODE4IDI3LjE2NTEgMTEuNjkzIDI3Ljk5OTkgMTIuOTk5MiAyNy45OTk5SDE4Ljk5OTJDMjUuMDc0MyAyNy45OTk5IDI5Ljk5OTIgMjMuMDc1MSAyOS45OTkyIDE2Ljk5OTlWMTQuOTk5OUMyOS45OTkyIDEzLjY5MzcgMjkuMTY0NCAxMi41ODI1IDI3Ljk5OTIgMTIuMTcwN1YxNi45OTk5QzI3Ljk5OTIgMjEuOTcwNSAyMy45Njk4IDI1Ljk5OTkgMTguOTk5MiAyNS45OTk5SDEwLjE2OTlaTTguOTk5MjIgMjMuOTk5OUM3LjY5MyAyMy45OTk5IDYuNTgxNzYgMjMuMTY1MSA2LjE2OTkyIDIxLjk5OTlIMTguOTk5MkMyMS43NjA2IDIxLjk5OTkgMjMuOTk5MiAxOS43NjE0IDIzLjk5OTIgMTYuOTk5OVY4LjE3MDY1QzI1LjE2NDQgOC41ODI0OSAyNS45OTkyIDkuNjkzNzMgMjUuOTk5MiAxMC45OTk5VjE2Ljk5OTlDMjUuOTk5MiAyMC44NjU5IDIyLjg2NTIgMjMuOTk5OSAxOC45OTkyIDIzLjk5OTlIOC45OTkyMloiLz4mI3hhOzwvc3ZnPg==;fontSize=14;" parent="1" vertex="1">
                    <mxGeometry x="-2772" y="-1280" width="32" height="32" as="geometry"/>
                </mxCell>
                <mxCell id="Fx0rlqK3VMQhxRzqNE1V-23" value="" style="shape=image;verticalLabelPosition=bottom;labelBackgroundColor=default;verticalAlign=top;aspect=fixed;imageAspect=0;image=data:image/svg+xml,PHN2ZyB4bWxucz0iaHR0cDovL3d3dy53My5vcmcvMjAwMC9zdmciIGZpbGw9Im5vbmUiIHZpZXdCb3g9IjAgMCAzMiAzMiIgaGVpZ2h0PSIzMiIgd2lkdGg9IjMyIj4mI3hhOzxwYXRoIGZpbGw9ImJsYWNrIiBkPSJNMiA3QzIgNS4zNDMxNSAzLjM0MzE1IDQgNSA0SDE5QzIwLjY1NjkgNCAyMiA1LjM0MzE1IDIyIDdWMTdDMjIgMTguNjU2OSAyMC42NTY5IDIwIDE5IDIwSDVDMy4zNDMxNSAyMCAyIDE4LjY1NjkgMiAxN1Y3Wk01IDZDNC40NDc3MiA2IDQgNi40NDc3MiA0IDdWMTdDNCAxNy41NTIzIDQuNDQ3NzIgMTggNSAxOEgxOUMxOS41NTIzIDE4IDIwIDE3LjU1MjMgMjAgMTdWN0MyMCA2LjQ0NzcyIDE5LjU1MjMgNiAxOSA2SDVaTTEwLjE2OTkgMjUuOTk5OUMxMC41ODE4IDI3LjE2NTEgMTEuNjkzIDI3Ljk5OTkgMTIuOTk5MiAyNy45OTk5SDE4Ljk5OTJDMjUuMDc0MyAyNy45OTk5IDI5Ljk5OTIgMjMuMDc1MSAyOS45OTkyIDE2Ljk5OTlWMTQuOTk5OUMyOS45OTkyIDEzLjY5MzcgMjkuMTY0NCAxMi41ODI1IDI3Ljk5OTIgMTIuMTcwN1YxNi45OTk5QzI3Ljk5OTIgMjEuOTcwNSAyMy45Njk4IDI1Ljk5OTkgMTguOTk5MiAyNS45OTk5SDEwLjE2OTlaTTguOTk5MjIgMjMuOTk5OUM3LjY5MyAyMy45OTk5IDYuNTgxNzYgMjMuMTY1MSA2LjE2OTkyIDIxLjk5OTlIMTguOTk5MkMyMS43NjA2IDIxLjk5OTkgMjMuOTk5MiAxOS43NjE0IDIzLjk5OTIgMTYuOTk5OVY4LjE3MDY1QzI1LjE2NDQgOC41ODI0OSAyNS45OTkyIDkuNjkzNzMgMjUuOTk5MiAxMC45OTk5VjE2Ljk5OTlDMjUuOTk5MiAyMC44NjU5IDIyLjg2NTIgMjMuOTk5OSAxOC45OTkyIDIzLjk5OTlIOC45OTkyMloiLz4mI3hhOzwvc3ZnPg==;fontSize=14;" parent="1" vertex="1">
                    <mxGeometry x="-2772" y="-1070" width="32" height="32" as="geometry"/>
                </mxCell>
                <mxCell id="Fx0rlqK3VMQhxRzqNE1V-24" value="" style="shape=image;verticalLabelPosition=bottom;labelBackgroundColor=default;verticalAlign=top;aspect=fixed;imageAspect=0;image=data:image/svg+xml,PHN2ZyB4bWxucz0iaHR0cDovL3d3dy53My5vcmcvMjAwMC9zdmciIGZpbGw9Im5vbmUiIHZpZXdCb3g9IjAgMCAzMiAzMiIgaGVpZ2h0PSIzMiIgd2lkdGg9IjMyIj4mI3hhOzxwYXRoIGZpbGw9ImJsYWNrIiBkPSJNMiA3QzIgNS4zNDMxNSAzLjM0MzE1IDQgNSA0SDE5QzIwLjY1NjkgNCAyMiA1LjM0MzE1IDIyIDdWMTdDMjIgMTguNjU2OSAyMC42NTY5IDIwIDE5IDIwSDVDMy4zNDMxNSAyMCAyIDE4LjY1NjkgMiAxN1Y3Wk01IDZDNC40NDc3MiA2IDQgNi40NDc3MiA0IDdWMTdDNCAxNy41NTIzIDQuNDQ3NzIgMTggNSAxOEgxOUMxOS41NTIzIDE4IDIwIDE3LjU1MjMgMjAgMTdWN0MyMCA2LjQ0NzcyIDE5LjU1MjMgNiAxOSA2SDVaTTEwLjE2OTkgMjUuOTk5OUMxMC41ODE4IDI3LjE2NTEgMTEuNjkzIDI3Ljk5OTkgMTIuOTk5MiAyNy45OTk5SDE4Ljk5OTJDMjUuMDc0MyAyNy45OTk5IDI5Ljk5OTIgMjMuMDc1MSAyOS45OTkyIDE2Ljk5OTlWMTQuOTk5OUMyOS45OTkyIDEzLjY5MzcgMjkuMTY0NCAxMi41ODI1IDI3Ljk5OTIgMTIuMTcwN1YxNi45OTk5QzI3Ljk5OTIgMjEuOTcwNSAyMy45Njk4IDI1Ljk5OTkgMTguOTk5MiAyNS45OTk5SDEwLjE2OTlaTTguOTk5MjIgMjMuOTk5OUM3LjY5MyAyMy45OTk5IDYuNTgxNzYgMjMuMTY1MSA2LjE2OTkyIDIxLjk5OTlIMTguOTk5MkMyMS43NjA2IDIxLjk5OTkgMjMuOTk5MiAxOS43NjE0IDIzLjk5OTIgMTYuOTk5OVY4LjE3MDY1QzI1LjE2NDQgOC41ODI0OSAyNS45OTkyIDkuNjkzNzMgMjUuOTk5MiAxMC45OTk5VjE2Ljk5OTlDMjUuOTk5MiAyMC44NjU5IDIyLjg2NTIgMjMuOTk5OSAxOC45OTkyIDIzLjk5OTlIOC45OTkyMloiLz4mI3hhOzwvc3ZnPg==;fontSize=14;" parent="1" vertex="1">
                    <mxGeometry x="-2772" y="-938" width="32" height="32" as="geometry"/>
                </mxCell>
                <mxCell id="Fx0rlqK3VMQhxRzqNE1V-25" value="Lakehouse" style="shape=image;verticalLabelPosition=bottom;labelBackgroundColor=default;verticalAlign=top;aspect=fixed;imageAspect=0;image=data:image/svg+xml,PHN2ZyB4bWxucz0iaHR0cDovL3d3dy53My5vcmcvMjAwMC9zdmciIGZpbGw9Im5vbmUiIHZpZXdCb3g9IjAgMCAzMiAzMyIgaGVpZ2h0PSIzMyIgd2lkdGg9IjMyIj4mI3hhOzxwYXRoIGZpbGw9ImJsYWNrIiBkPSJNMTIuNjI2IDQuMzkwMDJDMTMuMzk3IDMuNjYxNzQgMTQuNjAzIDMuNjYxNzQgMTUuMzc0IDQuMzkwMDJMMjUuMDYxIDEzLjU0MDNDMjUuNjYwNCAxNC4xMDY0IDI2IDE0Ljg5NDEgMjYgMTUuNzE4MlYxOC42MDYyQzI1Ljc5OSAxOC40MjY0IDI1LjU3NCAxOC4yNzQgMjUuMzMwNyAxOC4xNTM4QzI0LjkxNyAxNy45NDkyIDI0LjQ2MTUgMTcuODQzMiAyNCAxNy44NDM4VjE1LjcxODJDMjQgMTUuNDQzNSAyMy44ODY4IDE1LjE4MSAyMy42ODcgMTQuOTkyMkwxNCA1Ljg0MTk4TDQuMzEyOTkgMTQuOTkyMkM0LjExMzIgMTUuMTgxIDQgMTUuNDQzNSA0IDE1LjcxODJWMjYuODQ2NkM0IDI3LjM5ODMgNC40NDc3MiAyNy44NDU2IDUgMjcuODQ1Nkg4Ljc2MjNDOC4yNzI2NyAyOC4zOTM5IDggMjkuMTA0OCA4IDI5Ljg0MzhMNSAyOS44NDM4QzMuMzQzMTQgMjkuODQzOCAyIDI4LjUwMTkgMiAyNi44NDY2VjE1LjcxODJDMiAxNC44OTQxIDIuMzM5NjEgMTQuMTA2NCAyLjkzODk2IDEzLjU0MDNMMTIuNjI2IDQuMzkwMDJaIi8+JiN4YTs8cGF0aCBmaWxsPSJibGFjayIgZD0iTTI5IDIyLjg0MzdDMjguMzk3OSAyMi44NzczIDI3Ljc5NTIgMjIuNzg3NiAyNy4yMjg5IDIyLjU4QzI2LjY2MjcgMjIuMzcyNSAyNi4xNDQ4IDIyLjA1MTUgMjUuNzA3IDIxLjYzNjdDMjUuNDY1OCAyMS4zOTY0IDI1LjI1OTEgMjEuMTIzOCAyNS4wOTMgMjAuODI2N0MyNS4wNTI2IDIwLjc1MDYgMjUuMDE2MyAyMC42NzI1IDI0Ljk4NCAyMC41OTI3QzI0Ljk0OTMgMjAuNTA1OSAyNC45MDkyIDIwLjQyMTQgMjQuODY0IDIwLjMzOTdDMjQuODQzNyAyMC4zMDUgMjQuODIxNCAyMC4yNzE2IDI0Ljc5NyAyMC4yMzk3QzI0LjY3MTkgMjAuMDc1MyAyNC40OTkgMTkuOTUzNyAyNC4zMDIxIDE5Ljg5MTZDMjQuMTA1MSAxOS44Mjk1IDIzLjg5MzcgMTkuODI5OCAyMy42OTcgMTkuODkyN0gyMy42ODdDMjMuNDU2NiAxOS45NzA5IDIzLjI2MTggMjAuMTI5MiAyMy4xMzggMjAuMzM4N0MyMy4wODYxIDIwLjQzNTMgMjMuMDQxMyAyMC41MzU1IDIzLjAwNCAyMC42Mzg3TDIyLjk5MzUgMjAuNjY0OEMyMi45NjYxIDIwLjczMzIgMjIuOTM4NiAyMC44MDE5IDIyLjkwNCAyMC44NjY3QzIyLjc1NDEgMjEuMTY2IDIyLjU3MDkgMjEuNDQ3NCAyMi4zNTggMjEuNzA1N0MyMi4wNzY1IDIyLjA2MTEgMjEuNzE4MiAyMi4zNDgyIDIxLjMxMDEgMjIuNTQ1NUMyMC45MDE5IDIyLjc0MjkgMjAuNDU0NCAyMi44NDU0IDIwLjAwMSAyMi44NDU0QzE5LjU0NzYgMjIuODQ1NCAxOS4xMDAxIDIyLjc0MjkgMTguNjkxOSAyMi41NDU1QzE4LjI4MzggMjIuMzQ4MiAxNy45MjU1IDIyLjA2MTEgMTcuNjQ0IDIxLjcwNTdDMTcuNDMxMSAyMS40NDc0IDE3LjI0NzkgMjEuMTY2IDE3LjA5OCAyMC44NjY3QzE3LjA3MTEgMjAuODEzNiAxNy4wNDc5IDIwLjc1NzkgMTcuMDI0NiAyMC43MDE5QzE3LjAxNTggMjAuNjgwOCAxNy4wMDcgMjAuNjU5NyAxNi45OTggMjAuNjM4N0MxNi45NjA3IDIwLjUzNTUgMTYuOTE1OSAyMC40MzUzIDE2Ljg2NCAyMC4zMzg3QzE2Ljc0MDIgMjAuMTI5MiAxNi41NDU0IDE5Ljk3MDkgMTYuMzE1IDE5Ljg5MjdIMTYuMzA1QzE2LjEwODMgMTkuODI5OCAxNS44OTY5IDE5LjgyOTUgMTUuNjk5OSAxOS44OTE2QzE1LjUwMyAxOS45NTM3IDE1LjMzMDEgMjAuMDc1MyAxNS4yMDUgMjAuMjM5N0MxNS4xODA2IDIwLjI3MTYgMTUuMTU4MyAyMC4zMDUgMTUuMTM4IDIwLjMzOTdDMTUuMDkyOCAyMC40MjE0IDE1LjA1MjcgMjAuNTA1OSAxNS4wMTggMjAuNTkyN0MxNC45ODU3IDIwLjY3MjUgMTQuOTQ5NCAyMC43NTA2IDE0LjkwOSAyMC44MjY3QzE0Ljc0MjkgMjEuMTIzOCAxNC41MzYyIDIxLjM5NjQgMTQuMjk1IDIxLjYzNjdDMTMuODU3IDIyLjA1MTcgMTMuMzM4NyAyMi4zNzI5IDEyLjc3MjEgMjIuNTgwNEMxMi4yMDU1IDIyLjc4OCAxMS42MDI1IDIyLjg3NzYgMTEgMjIuODQzN0MxMC43MzQ4IDIyLjg0MzcgMTAuNDgwNCAyMi45NDkgMTAuMjkyOSAyMy4xMzY2QzEwLjEwNTQgMjMuMzI0MSAxMCAyMy41Nzg1IDEwIDIzLjg0MzdDMTAgMjQuMTA4OSAxMC4xMDU0IDI0LjM2MzIgMTAuMjkyOSAyNC41NTA4QzEwLjQ4MDQgMjQuNzM4MyAxMC43MzQ4IDI0Ljg0MzcgMTEgMjQuODQzN0MxMS44NjUgMjQuODc3OSAxMi43Mjc5IDI0LjczNjcgMTMuNTM2OSAyNC40Mjg2QzE0LjM0NTggMjQuMTIwNCAxNS4wODQgMjMuNjUxNyAxNS43MDcgMjMuMDUwN0MxNS43OTQgMjIuOTYzNyAxNS44NzYgMjIuODc2NyAxNS45NTIgMjIuNzg5N0MxNi4wMDEgMjIuODU0NyAxNi4wNTIgMjIuOTE4NyAxNi4xMDcgMjIuOTgzN0MxNi41NzU2IDIzLjU2NTEgMTcuMTY4NiAyNC4wMzQyIDE3Ljg0MjIgMjQuMzU2NUMxOC41MTU5IDI0LjY3ODggMTkuMjUzMiAyNC44NDYxIDIwIDI0Ljg0NjFDMjAuNzQ2OCAyNC44NDYxIDIxLjQ4NDEgMjQuNjc4OCAyMi4xNTc4IDI0LjM1NjVDMjIuODMxNCAyNC4wMzQyIDIzLjQyNDQgMjMuNTY1MSAyMy44OTMgMjIuOTgzN0MyMy45NDcgMjIuOTE4NyAyMy45OTkgMjIuODU0NyAyNC4wNDggMjIuNzg5N0MyNC4xMjQgMjIuODc2NyAyNC4yMDYgMjIuOTYzNyAyNC4yOTMgMjMuMDUwN0MyNC45MTYgMjMuNjUxNyAyNS42NTQyIDI0LjEyMDQgMjYuNDYzMSAyNC40Mjg2QzI3LjI3MjEgMjQuNzM2NyAyOC4xMzUgMjQuODc3OSAyOSAyNC44NDM3QzI5LjI2NTIgMjQuODQzNyAyOS41MTk2IDI0LjczODMgMjkuNzA3MSAyNC41NTA4QzI5Ljg5NDYgMjQuMzYzMiAzMCAyNC4xMDg5IDMwIDIzLjg0MzdDMzAgMjMuNTc4NSAyOS44OTQ2IDIzLjMyNDEgMjkuNzA3MSAyMy4xMzY2QzI5LjUxOTYgMjIuOTQ5IDI5LjI2NTIgMjIuODQzNyAyOSAyMi44NDM3WiIvPiYjeGE7PHBhdGggZmlsbD0iYmxhY2siIGQ9Ik0yOSAyOC44NDM3QzI4LjM5NzkgMjguODc3MyAyNy43OTUyIDI4Ljc4NzYgMjcuMjI4OSAyOC41OEMyNi42NjI3IDI4LjM3MjUgMjYuMTQ0OCAyOC4wNTE1IDI1LjcwNyAyNy42MzY3QzI1LjQ2NTggMjcuMzk2NCAyNS4yNTkxIDI3LjEyMzggMjUuMDkzIDI2LjgyNjdDMjUuMDUyNiAyNi43NTA2IDI1LjAxNjMgMjYuNjcyNSAyNC45ODQgMjYuNTkyN0MyNC45NDkzIDI2LjUwNTkgMjQuOTA5MiAyNi40MjE0IDI0Ljg2NCAyNi4zMzk3QzI0Ljg0MzcgMjYuMzA1IDI0LjgyMTQgMjYuMjcxNiAyNC43OTcgMjYuMjM5N0MyNC42NzE5IDI2LjA3NTMgMjQuNDk5IDI1Ljk1MzcgMjQuMzAyMSAyNS44OTE2QzI0LjEwNTEgMjUuODI5NSAyMy44OTM3IDI1LjgyOTggMjMuNjk3IDI1Ljg5MjdIMjMuNjg3QzIzLjQ1NjYgMjUuOTcwOSAyMy4yNjE4IDI2LjEyOTIgMjMuMTM4IDI2LjMzODdDMjMuMDg2MSAyNi40MzUzIDIzLjA0MTMgMjYuNTM1NSAyMy4wMDQgMjYuNjM4N0wyMi45OTM1IDI2LjY2NDhDMjIuOTY2MSAyNi43MzMyIDIyLjkzODYgMjYuODAxOSAyMi45MDQgMjYuODY2N0MyMi43NTQxIDI3LjE2NiAyMi41NzA5IDI3LjQ0NzQgMjIuMzU4IDI3LjcwNTdDMjIuMDc2NSAyOC4wNjExIDIxLjcxODIgMjguMzQ4MiAyMS4zMTAxIDI4LjU0NTVDMjAuOTAxOSAyOC43NDI5IDIwLjQ1NDQgMjguODQ1NCAyMC4wMDEgMjguODQ1NEMxOS41NDc2IDI4Ljg0NTQgMTkuMTAwMSAyOC43NDI5IDE4LjY5MTkgMjguNTQ1NUMxOC4yODM4IDI4LjM0ODIgMTcuOTI1NSAyOC4wNjExIDE3LjY0NCAyNy43MDU3QzE3LjQzMTEgMjcuNDQ3NCAxNy4yNDc5IDI3LjE2NiAxNy4wOTggMjYuODY2N0MxNy4wNzExIDI2LjgxMzYgMTcuMDQ3OSAyNi43NTc5IDE3LjAyNDYgMjYuNzAxOUMxNy4wMTU4IDI2LjY4MDggMTcuMDA3IDI2LjY1OTcgMTYuOTk4IDI2LjYzODdDMTYuOTYwNyAyNi41MzU1IDE2LjkxNTkgMjYuNDM1MyAxNi44NjQgMjYuMzM4N0MxNi43NDAyIDI2LjEyOTIgMTYuNTQ1NCAyNS45NzA5IDE2LjMxNSAyNS44OTI3SDE2LjMwNUMxNi4xMDgzIDI1LjgyOTggMTUuODk2OSAyNS44Mjk1IDE1LjY5OTkgMjUuODkxNkMxNS41MDMgMjUuOTUzNyAxNS4zMzAxIDI2LjA3NTMgMTUuMjA1IDI2LjIzOTdDMTUuMTgwNiAyNi4yNzE2IDE1LjE1ODMgMjYuMzA1IDE1LjEzOCAyNi4zMzk3QzE1LjA5MjggMjYuNDIxNCAxNS4wNTI3IDI2LjUwNTkgMTUuMDE4IDI2LjU5MjdDMTQuOTg1NyAyNi42NzI1IDE0Ljk0OTQgMjYuNzUwNiAxNC45MDkgMjYuODI2N0MxNC43NDI5IDI3LjEyMzggMTQuNTM2MiAyNy4zOTY0IDE0LjI5NSAyNy42MzY3QzEzLjg1NyAyOC4wNTE3IDEzLjMzODcgMjguMzcyOSAxMi43NzIxIDI4LjU4MDRDMTIuMjA1NSAyOC43ODggMTEuNjAyNSAyOC44Nzc2IDExIDI4Ljg0MzdDMTAuNzM0OCAyOC44NDM3IDEwLjQ4MDQgMjguOTQ5IDEwLjI5MjkgMjkuMTM2NkMxMC4xMDU0IDI5LjMyNDEgMTAgMjkuNTc4NSAxMCAyOS44NDM3QzEwIDMwLjEwODkgMTAuMTA1NCAzMC4zNjMyIDEwLjI5MjkgMzAuNTUwOEMxMC40ODA0IDMwLjczODMgMTAuNzM0OCAzMC44NDM3IDExIDMwLjg0MzdDMTEuODY1IDMwLjg3NzkgMTIuNzI3OSAzMC43MzY3IDEzLjUzNjkgMzAuNDI4NkMxNC4zNDU4IDMwLjEyMDQgMTUuMDg0IDI5LjY1MTcgMTUuNzA3IDI5LjA1MDdDMTUuNzk0IDI4Ljk2MzcgMTUuODc2IDI4Ljg3NjcgMTUuOTUyIDI4Ljc4OTdDMTYuMDAxIDI4Ljg1NDcgMTYuMDUyIDI4LjkxODcgMTYuMTA3IDI4Ljk4MzdDMTYuNTc1NiAyOS41NjUxIDE3LjE2ODYgMzAuMDM0MiAxNy44NDIyIDMwLjM1NjVDMTguNTE1OSAzMC42Nzg4IDE5LjI1MzIgMzAuODQ2MSAyMCAzMC44NDYxQzIwLjc0NjggMzAuODQ2MSAyMS40ODQxIDMwLjY3ODggMjIuMTU3OCAzMC4zNTY1QzIyLjgzMTQgMzAuMDM0MiAyMy40MjQ0IDI5LjU2NTEgMjMuODkzIDI4Ljk4MzdDMjMuOTQ3IDI4LjkxODcgMjMuOTk5IDI4Ljg1NDcgMjQuMDQ4IDI4Ljc4OTdDMjQuMTI0IDI4Ljg3NjcgMjQuMjA2IDI4Ljk2MzcgMjQuMjkzIDI5LjA1MDdDMjQuOTE2IDI5LjY1MTcgMjUuNjU0MiAzMC4xMjA0IDI2LjQ2MzEgMzAuNDI4NkMyNy4yNzIxIDMwLjczNjcgMjguMTM1IDMwLjg3NzkgMjkgMzAuODQzN0MyOS4yNjUyIDMwLjg0MzcgMjkuNTE5NiAzMC43MzgzIDI5LjcwNzEgMzAuNTUwOEMyOS44OTQ2IDMwLjM2MzIgMzAgMzAuMTA4OSAzMCAyOS44NDM3QzMwIDI5LjU3ODUgMjkuODk0NiAyOS4zMjQxIDI5LjcwNzEgMjkuMTM2NkMyOS41MTk2IDI4Ljk0OSAyOS4yNjUyIDI4Ljg0MzcgMjkgMjguODQzN1oiLz4mI3hhOzwvc3ZnPg==;" parent="1" vertex="1">
                    <mxGeometry x="-2830" y="-1250" width="32" height="33" as="geometry"/>
                </mxCell>
                <mxCell id="Fx0rlqK3VMQhxRzqNE1V-26" value="nb-covid-data" style="shape=image;verticalLabelPosition=bottom;labelBackgroundColor=default;verticalAlign=top;aspect=fixed;imageAspect=0;image=data:image/svg+xml,PHN2ZyB4bWxucz0iaHR0cDovL3d3dy53My5vcmcvMjAwMC9zdmciIGZpbGw9Im5vbmUiIHZpZXdCb3g9IjAgMCAzMiAzMyIgaGVpZ2h0PSIzMyIgd2lkdGg9IjMyIj4mI3hhOzxwYXRoIGZpbGw9ImJsYWNrIiBkPSJNOCA3LjkzNzU2QzggNy4xMDkxMyA4LjY3MTU3IDYuNDM3NTYgOS41IDYuNDM3NTZIMjEuNUMyMi4zMjg0IDYuNDM3NTYgMjMgNy4xMDkxMyAyMyA3LjkzNzU2VjEwLjkzNzZDMjMgMTEuNzY2IDIyLjMyODQgMTIuNDM3NiAyMS41IDEyLjQzNzZIOS41QzguNjcxNTcgMTIuNDM3NiA4IDExLjc2NiA4IDEwLjkzNzZWNy45Mzc1NlpNMTAgOC40Mzc1NlYxMC40Mzc2SDIxVjguNDM3NTZIMTBaTTQgNS42ODc1NkM0IDMuODkyNjMgNS40NTUwOCAyLjQzNzU2IDcuMjUgMi40Mzc1NkgyMy43NUMyNS41NDQ5IDIuNDM3NTYgMjcgMy44OTI2NCAyNyA1LjY4NzU2VjI3LjE4NzZDMjcgMjguOTgyNSAyNS41NDQ5IDMwLjQzNzYgMjMuNzUgMzAuNDM3Nkg3LjI1QzUuNDU1MDcgMzAuNDM3NiA0IDI4Ljk4MjUgNCAyNy4xODc2VjUuNjg3NTZaTTcuMjUgNC40Mzc1NkM2LjU1OTY0IDQuNDM3NTYgNiA0Ljk5NzIgNiA1LjY4NzU2VjI3LjE4NzZDNiAyNy44Nzc5IDYuNTU5NjQgMjguNDM3NiA3LjI1IDI4LjQzNzZIMjMuNzVDMjQuNDQwNCAyOC40Mzc2IDI1IDI3Ljg3NzkgMjUgMjcuMTg3NlY1LjY4NzU2QzI1IDQuOTk3MjEgMjQuNDQwNCA0LjQzNzU2IDIzLjc1IDQuNDM3NTZINy4yNVpNMjkuMjUgOC40Mzc1NkgyOFYxMi40Mzc2SDI5LjI1QzI5LjY2NDIgMTIuNDM3NiAzMCAxMi4xMDE4IDMwIDExLjY4NzZWOS4xODc1NkMzMCA4Ljc3MzM1IDI5LjY2NDIgOC40Mzc1NiAyOS4yNSA4LjQzNzU2Wk0yOCAxNC40Mzc2SDI5LjI1QzI5LjY2NDIgMTQuNDM3NiAzMCAxNC43NzMzIDMwIDE1LjE4NzZWMTcuNjg3NkMzMCAxOC4xMDE4IDI5LjY2NDIgMTguNDM3NiAyOS4yNSAxOC40Mzc2SDI4VjE0LjQzNzZaTTI5LjI1IDIwLjQzNzZIMjhWMjQuNDM3NkgyOS4yNUMyOS42NjQyIDI0LjQzNzYgMzAgMjQuMTAxOCAzMCAyMy42ODc2VjIxLjE4NzZDMzAgMjAuNzczMyAyOS42NjQyIDIwLjQzNzYgMjkuMjUgMjAuNDM3NloiLz4mI3hhOzwvc3ZnPg==;" parent="1" vertex="1">
                    <mxGeometry x="-2916" y="-1190" width="32" height="33" as="geometry"/>
                </mxCell>
                <mxCell id="Fx0rlqK3VMQhxRzqNE1V-27" value="nb-city-safety" style="shape=image;verticalLabelPosition=bottom;labelBackgroundColor=default;verticalAlign=top;aspect=fixed;imageAspect=0;image=data:image/svg+xml,PHN2ZyB4bWxucz0iaHR0cDovL3d3dy53My5vcmcvMjAwMC9zdmciIGZpbGw9Im5vbmUiIHZpZXdCb3g9IjAgMCAzMiAzMyIgaGVpZ2h0PSIzMyIgd2lkdGg9IjMyIj4mI3hhOzxwYXRoIGZpbGw9ImJsYWNrIiBkPSJNOCA3LjkzNzU2QzggNy4xMDkxMyA4LjY3MTU3IDYuNDM3NTYgOS41IDYuNDM3NTZIMjEuNUMyMi4zMjg0IDYuNDM3NTYgMjMgNy4xMDkxMyAyMyA3LjkzNzU2VjEwLjkzNzZDMjMgMTEuNzY2IDIyLjMyODQgMTIuNDM3NiAyMS41IDEyLjQzNzZIOS41QzguNjcxNTcgMTIuNDM3NiA4IDExLjc2NiA4IDEwLjkzNzZWNy45Mzc1NlpNMTAgOC40Mzc1NlYxMC40Mzc2SDIxVjguNDM3NTZIMTBaTTQgNS42ODc1NkM0IDMuODkyNjMgNS40NTUwOCAyLjQzNzU2IDcuMjUgMi40Mzc1NkgyMy43NUMyNS41NDQ5IDIuNDM3NTYgMjcgMy44OTI2NCAyNyA1LjY4NzU2VjI3LjE4NzZDMjcgMjguOTgyNSAyNS41NDQ5IDMwLjQzNzYgMjMuNzUgMzAuNDM3Nkg3LjI1QzUuNDU1MDcgMzAuNDM3NiA0IDI4Ljk4MjUgNCAyNy4xODc2VjUuNjg3NTZaTTcuMjUgNC40Mzc1NkM2LjU1OTY0IDQuNDM3NTYgNiA0Ljk5NzIgNiA1LjY4NzU2VjI3LjE4NzZDNiAyNy44Nzc5IDYuNTU5NjQgMjguNDM3NiA3LjI1IDI4LjQzNzZIMjMuNzVDMjQuNDQwNCAyOC40Mzc2IDI1IDI3Ljg3NzkgMjUgMjcuMTg3NlY1LjY4NzU2QzI1IDQuOTk3MjEgMjQuNDQwNCA0LjQzNzU2IDIzLjc1IDQuNDM3NTZINy4yNVpNMjkuMjUgOC40Mzc1NkgyOFYxMi40Mzc2SDI5LjI1QzI5LjY2NDIgMTIuNDM3NiAzMCAxMi4xMDE4IDMwIDExLjY4NzZWOS4xODc1NkMzMCA4Ljc3MzM1IDI5LjY2NDIgOC40Mzc1NiAyOS4yNSA4LjQzNzU2Wk0yOCAxNC40Mzc2SDI5LjI1QzI5LjY2NDIgMTQuNDM3NiAzMCAxNC43NzMzIDMwIDE1LjE4NzZWMTcuNjg3NkMzMCAxOC4xMDE4IDI5LjY2NDIgMTguNDM3NiAyOS4yNSAxOC40Mzc2SDI4VjE0LjQzNzZaTTI5LjI1IDIwLjQzNzZIMjhWMjQuNDM3NkgyOS4yNUMyOS42NjQyIDI0LjQzNzYgMzAgMjQuMTAxOCAzMCAyMy42ODc2VjIxLjE4NzZDMzAgMjAuNzczMyAyOS42NjQyIDIwLjQzNzYgMjkuMjUgMjAuNDM3NloiLz4mI3hhOzwvc3ZnPg==;" parent="1" vertex="1">
                    <mxGeometry x="-2916" y="-1250" width="32" height="33" as="geometry"/>
                </mxCell>
                <mxCell id="Fx0rlqK3VMQhxRzqNE1V-28" value="pl-covid-data" style="shape=image;verticalLabelPosition=bottom;labelBackgroundColor=default;verticalAlign=top;aspect=fixed;imageAspect=0;image=data:image/svg+xml,PHN2ZyB4bWxucz0iaHR0cDovL3d3dy53My5vcmcvMjAwMC9zdmciIGZpbGw9Im5vbmUiIHZpZXdCb3g9IjAgMCAzMiAzMyIgaGVpZ2h0PSIzMyIgd2lkdGg9IjMyIj4mI3hhOzxwYXRoIGZpbGw9ImJsYWNrIiBkPSJNMiA5LjMyODEyQzIgNy42NzEyNyAzLjM0MzE1IDYuMzI4MTIgNSA2LjMyODEyQzYuNjU2ODUgNi4zMjgxMiA4IDcuNjcxMjcgOCA5LjMyODEzTDI0IDkuMzI4MTJDMjQgNy42NzEyNyAyNS4zNDMxIDYuMzI4MTIgMjcgNi4zMjgxMkMyOC42NTY5IDYuMzI4MTIgMzAgNy42NzEyNyAzMCA5LjMyODEzVjIzLjMyODFDMzAgMjQuOTg1IDI4LjY1NjkgMjYuMzI4MSAyNyAyNi4zMjgxQzI1LjM0MzEgMjYuMzI4MSAyNCAyNC45ODUgMjQgMjMuMzI4MUg4QzggMjQuOTg1IDYuNjU2ODUgMjYuMzI4MSA1IDI2LjMyODFDMy4zNDMxNSAyNi4zMjgxIDIgMjQuOTg1IDIgMjMuMzI4MVY5LjMyODEyWk02IDkuMzI4MTNDNiA4Ljc3NTg0IDUuNTUyMjggOC4zMjgxMiA1IDguMzI4MTJDNC40NDc3MSA4LjMyODEyIDQgOC43NzU4NCA0IDkuMzI4MTJWMjMuMzI4MUM0IDIzLjg4MDQgNC40NDc3MiAyNC4zMjgxIDUgMjQuMzI4MUM1LjU1MjI5IDI0LjMyODEgNiAyMy44ODA0IDYgMjMuMzI4MVY5LjMyODEzWk04IDIxLjMyODFMMjQgMjEuMzI4MVYxMS4zMjgxTDggMTEuMzI4MVYyMS4zMjgxWk0yOCA5LjMyODEzQzI4IDguNzc1ODQgMjcuNTUyMyA4LjMyODEyIDI3IDguMzI4MTJDMjYuNDQ3NyA4LjMyODEyIDI2IDguNzc1ODQgMjYgOS4zMjgxMlYyMy4zMjgxQzI2IDIzLjg4MDQgMjYuNDQ3NyAyNC4zMjgxIDI3IDI0LjMyODFDMjcuNTUyMyAyNC4zMjgxIDI4IDIzLjg4MDQgMjggMjMuMzI4MVY5LjMyODEzWiIvPiYjeGE7PC9zdmc+;" parent="1" vertex="1">
                    <mxGeometry x="-2830" y="-1190" width="32" height="33" as="geometry"/>
                </mxCell>
                <mxCell id="Fx0rlqK3VMQhxRzqNE1V-54" value="Development Workspace" style="text;html=1;strokeColor=none;fillColor=none;align=center;verticalAlign=middle;whiteSpace=wrap;rounded=0;fontSize=14;" parent="1" vertex="1">
                    <mxGeometry x="-2940" y="-1130" width="180" height="30" as="geometry"/>
                </mxCell>
                <mxCell id="Fx0rlqK3VMQhxRzqNE1V-55" value="Test Workspace" style="text;html=1;strokeColor=none;fillColor=none;align=center;verticalAlign=middle;whiteSpace=wrap;rounded=0;fontSize=14;" parent="1" vertex="1">
                    <mxGeometry x="-2932" y="-1007" width="150" height="30" as="geometry"/>
                </mxCell>
                <mxCell id="Fx0rlqK3VMQhxRzqNE1V-56" value="Production Workspace" style="text;html=1;strokeColor=none;fillColor=none;align=center;verticalAlign=middle;whiteSpace=wrap;rounded=0;fontSize=14;" parent="1" vertex="1">
                    <mxGeometry x="-2932" y="-868" width="150" height="30" as="geometry"/>
                </mxCell>
                <mxCell id="IKtMQjf0WyuQC_6Y6BPb-25" value="" style="shape=image;verticalLabelPosition=bottom;labelBackgroundColor=default;verticalAlign=top;aspect=fixed;imageAspect=0;image=data:image/png,iVBORw0KGgoAAAANSUhEUgAAAQ4AAABGCAYAAAA9zXoQAAAAAXNSR0IArs4c6QAAAIRlWElmTU0AKgAAAAgABQESAAMAAAABAAEAAAEaAAUAAAABAAAASgEbAAUAAAABAAAAUgEoAAMAAAABAAIAAIdpAAQAAAABAAAAWgAAAAAAAACQAAAAAQAAAJAAAAABAAOgAQADAAAAAQABAACgAgAEAAAAAQAAAQ6gAwAEAAAAAQAAAEYAAAAAKBl9BgAAAAlwSFlzAAAWJQAAFiUBSVIk8AAAEvRJREFUeAHtXQt4FdW13nNywlML1wcKtBIVrBhAK5eitBYQW4Rbr7YWVKq1oBKo9VFFK7Ve09r6Cr3arw8QtIjFFitoay00H61w1X5KfVKwPBWqKC8LiKCEJGfu/x/2JiuTmfMIk+QE1vq+/6y1116z955/9qy9Z84JGKOiDCgDyoAyoAwoA8qAMqAMKAPKgDKgDCgDyoAyoAwoA8qAMqAMKAPKgDKgDCgDyoAyoAwoA8qAMqAMKAPKgDKgDCgDyoAyoAwoA8qAMqAMhDLghXrzdU78yzkmVdPT+NWPmOnnfZTv4RqvDCgDrYuBRCzD9WvbGT/1S5MonmsmbeoYS5vaiDKgDBQsA/EkDp6e53kmlRphvC0vme++8fmCPWMdmDKgDBwwA/EkjlTCT4+En77f2/i1z5mbl117wKPTBpQBZaAgGTiwdxzjXy42/tYRJmHKjG9GImkY06k7dh/pc/WhHzN+8jumonRTQZ69DkoZUAYaxUD+icP3PVP2dHvjtT0f24sKY1Ld0wmD3XPHUZc47IC8TSZlhpqf9FtpHaqUAWWglTOQX+KY8OfPIgmUGS91NpJED5x7/eNDE0eaoe3GK7rHdJhbYcrLU62cMx2+MnDIM1D/xg+jY/wfjzKm6HSTSNyEb06YMKLfi0QnDtuyN9ska24wd52+NawrM8ovMqWvH26qk4ebqlQnvHA9zlT0mx8aq05lQBloMQaiE8fY+UebNolb8ChynvG9EjyHFGcdZdbEgRY8b5VJ+ZebKacuMUMWJc2ALn3g62/8mgHQpUhORyIKScN0Rr/tkTiiE1XWAeUU8BSijraRM6B/ldNRGhTGQF84p4dVwFcLfAy8A7wIvAC8AegOFCS0NqmfONIvO7cMMkWJS/HV6licTFFeJxSaONJd7EQieBfvQjbhkWUNvnVZbLwEvnXx+0MXoy90w4NDpOLU+mMMCTkA11k49llx/D9hl4qymvkxMBjhi/M45EPELgSuB5hQVFoJA8l64/T+fT/KV+JGblPPn2uBt3gCGwT8pANJ4u8oLUBbC0xtco0pqqkyh/WrMuVeTbq5m5ZhdccuxudC1GIyLtDzKSifAXBFVDlwBvbYJjgz2oY0dzh8XwWGAUweDwMqrYCBusRRVnmR8fxvRS389c8F8yCdHFJ7YbyFujXYUayBvdwki5aaNv5yU94HdQUtnLSjQkbIZKKJI4SYPF2LET9UHEO+TwBOtBgL3RugdAJmAkOAbwIqBc5AXeLwa6dFJg0mCX6BUoTw2uoNsOeZmtTj5qGRfyvw88s0vNGodD+PXwx7CEC5GODqp39zQzbiEz6WLLVgq/cBZUA5gBfwabkcn48CfHxRKWAGkmb8QryIrP4LkkbnunEyUZi1SBD7LrTvr8S7iHWmattb5qHR2+riWrV1hRj9FNhc9T4DuJ3ILFGvZvwM8JH1F8A8gC9JjwAoTCinAi36DMuBqEQzkDRe7QR8e9G/7uVkYrepqepqfnU+V4iDVbhFPtOe3BboSqAXwMRBYVLJlDi+iPpuDMxRdiNuro1lP4OszfdAK6wdpviyscRW/AF6h7WpigHujhLA+8CfAL5H4Ko9AGA9vzF6AghKXzh4/v8J9ABWA1wk/gqsA5pT+KviG4GZtlO+nB4H4B1YpOQzfj4aub+d4s8Asn293x0x59ieN0P/2dpSMYb8caxER4Av1pcDfMxdBUQJ7jXTx1aSb+zgDd8p8poNAdguF+fXAH7zlMtjM+fiGOAk4DiA84HHv2q1nDdwxSFl8z8y4+f7dViwM45ms7Zx07Jd5qalflZkbahRAffiKN/ifttCF+hq4ecNHiW8oO74XDQnoJPrYLhjbnXOCL1AxA4MxBwj6ph8DgPeED72MROQwgl6H+D6D+rdqLtSHpCnPVi0vSjPY58Rx/464tjGjH+4aPdj2J+IaNu57xbxc5zT6iLoSQAfY4PcuTJ3UncCHGuYTIXTxV4Em4vYJuFzdU7/HHVRbSVR90ugKsPxT6IudkngFNrH3mphN0iyvyGG+Ii1ufOQqwtXvbjklrgaytDOHag7JUP9kaj7G3C9iOGNtB5IWV8H6BlAuS03p+KOyklPZwjd2PEvRBsbbDvtoL8i2gyaCTi+LpzThd0ZNvmrAOQ9w93BVsAJk8tkYAnAZJ5JTkIldx3H2KDt0EwiUq5GoRJIvz+QFbBnAhMBl1h4/ErgQ6BJhUQdajISJ+wuFLeX3M45cUmEZSYXToIw4bbwtAh8Bv71gBOuWrzATSkno/FrAU7iqwA+glA/DTj5MQz6KYy7BOD7nOMB3hQPAE5uhsHtb3PKKtFZL2E7s7HjZ1KU15XnHSVDUPFJW7kWepG1qX4EDLRl7gbuAboCTGhdAPLF3YETzo/vuUKE/iH8bIPJ49MA3/OwzDHwMdPJEBgXuoLVfNy51NrV0JyvRwG9gU8ATL4/BTYCscuhmDjGCRZ/LWyavFg7rI8TYYS1g2odHEsjcBb8JQBlPTCBRjMIHzMGAw8Cr1g9D5rCZMZEQqkChgBMaLUAhSsUxzmXBUh7INukTwfG+LFKtMWbkcnMyYGOf6ZrCHoYcLQoS/MyUeDOiwmC0h+YmLb2fXwVirvITcLHG/QagDsEJzfAKHGFCD0b/i8Bq0X9u7AvAB4TPiYZeb+eLeo4jwm3c2TVm8D1wLdYiFvkQOJuuxDbOxaD+i87MJLMiyaFN9XvhGOcsHMxT0VQhQ2sgR4DfGDLTa2mo4PlEZ1Mht9d67tgL4uIu0P4Py/s5jDlTcj+uIo7OdDxr0VDz9vGktCjXcNC8zHtQlvmCv6wtam+Czj+fg+biJJpqOC7JkpbQCajtFN8cG4wucgb3lUzaTF5cyyU3sAJaWvfB3eLTjo7o7m0I6O5+mvpfi7FADhxKIuBDTQCMkuUvwxbTmBR1cDkxOMqzslC+QHwQtpqno8HMnTTV9T9VthBkxPeTVQ5SYNxTVE+UTTKG+k9UY5j/HLXcYlo25kXwHA3IxPDFlcBfYqw7xR2mMmx/0xUnCTsoPkEHFuDTlF+C7acQ/KauOTEcO6Abgfc3KOvSeVQSxzjBJu/gV0UgiXw8YJRioFMK0Y6yH78FPpka/8fdLYJZkNjUdzduDEHG+Q5yJuSY9sYASZSxlN4E/GZubmEK6qTVTB22UJc4/8d2ttt2xwE3cPaTsnrzN2bE86RnrbAXUDUbs3FU3P8Tno5I0SvCPEFXeuEQyaOP8H/uqgrh83YHwLdgCaVQylxnAkm5eR8EGXecGGQF2hcDleAW98rbRxfPF4KcOVpLmEiqI3orAR+lwwYwse1TGCMk07OaAYtr83Lor8S2HGMn4nIvcPxYF8MOCEfX7QFJuC/ugpoJhi3kpPnPaIuynxbVBwv7KAZfDwL1rPMb0qcHOkMaO4MzwOeFb6usG8D1gOPACw3iSSbpNXCbDSXBBA2cm5TzwBeDKuErwSQK9QVKHPlzkU4gTNJtnp3rFtJXVlq9+jhfLOdkYOWkzaH8EaH8MYcI45+Rdhxjn8m2r3cts3+7rH2JdDcWVBmAH7aavjhEkjDmvqedqKYicO9Ii7K7CYq3hE2Tc6zoQAfVSYB7lsfJlruoPg+73zgeSBWScbaWuE21hFDu0gMj1n6Y1EOM/vC6S4ak0FY4iB/fOTpBFCmAnw+ziRyZyBXkLBjuBIeqHCycYK2AXhDTATcYwDMgpD/wSg+bUfCRFEpRhXn+Hnd3wROBPoBXBT+CfAmo7BvJhcp61HgLoPJgNerM7ADyCTHi8qVwg6aRwQdIeXjhI9jDwp3ttxJEacDNwBMhAmA7c8BTgZiveZs/FCQr+Ek+cxOeQ9glj43CziZnTDpMPkEpRyOM62TL6tutHYmxf6dfNIZIZrXpleIP18XE9V6exB3MPxqs5DkNAzmZjGgH8CWN1uc42finCX64g1WCjhOnoK9WdTT5I25WvjOFnaUOUhUyHMR7rTJxSmTcH70FwFhiUNUp3+TxMfkkQAXC0p3YEDaivEjkf7zeE6ng1vGidNjBuZkyCZ8mfaRDWLSGRU4YCjKk62PK9LFQLZdDMPf5oeVwdDtXSGgL0e5Q8DX2OIycSBvzEIQbqe5vX4OcDvfF2HfDQQlzvEzcbjrfyFseV2nBzu25ZeE/07YbrzCvd/kKv/t/aX67yCEO21yzhwTdIoydw/kifIPYFPayv5RiZBFIiyOBUg0x+1MjXckkscl+OvXGfhR62uwuV07mISkfUGc0KPCzmR+iMp5IkAmn6Pgnw0kbP2N0MutnU1x1XAcHw2bxwaF23ZO0Ljkx2iIqy2FCe92wI2dPinnosAbuFg6Y7LboB0+HvCGeR2oAA4DKOT7GwB3GEGJc/xM3M/YDnpDu8SxDvZC6w+qcjh2WSevzUwgbAfKx5hHAP5yk8IbeH7aCv/4D7jZltsNy6ivo3C1cNwmbJrcLXHsHgsBKUL5WOFj0olVGnZ6zfy2piY5Ff/250bMnZfR29/NtGHvxtorG+MfuZlUGPn1uzrwfzqQk+57ttGV0JwsuQpvMjfJeAwnzWrgKeA8wMn9zojQ5G+KqJsGu0yUOdmeBDg5BwK3AO6GgpmWM/C5xNpUXKncCpTLebGPy3igFbZF3wqgPdAH+BIwDKC0A6rSVu4fgxG62Ibvhn7J2pxnnwJ6AJzUQfkDHNcCbwcrRDnO8Y9Bu4+KtmneCmRK1pNQX8FAK2ugHwSWAgmA70wmAjxHCrnrCzBOylQUJkgH7LeA+4DlAB9PeA2+CTjhteL1l8L464FXgTkAr+Nm4DiA7Z8DULYDXYAaFuKShomDLV/5dH+TKHoeuQyThyF+Ndar9/HfImwxfoKD2wz3Zvjeg73BeMUbzN7aDWbXB++Zx0eHrRgIC0jzJA5O0n8B3W3vzNo/snYuiifPi1pig++Gfgf4hS3nqoI3Ni/ua8ARGRqYhbpjgeE2hhOHE8hJvonjKBzIXZJrz7UTpqvhZOLaG1aZwScTR4aw/VW8NtcAf9zviTbiHD/mdTrpdrLd8abiNdloy2EqCWc5cAvAeZVJmADHAs+EBMnE8RPUXwFwpxIlz6FiNLApEOASR8Bdr8hH7RHAs/W8MRRIRkN58MuvmKsqceK1yMo+s2kx0BX/bkfX/Tten4d5dqOEedYWYW0Ox2uuZW/isWcZ/s1RILXMVFcvN+07bDGpNjWmdleNqepQY37WK9+VjJ01RgbiIJc0eHxwlcnWJs9yFnC7DbwQ+hVr56OC2Z4TiysU2x4WaGgLynMBrsC/F3XBNpigOT5chJxWk/cRx0l0HcDJz8QTFO4SZgD/C+SbNNhWcIz0OdkOY4XFSqsXQXNy5yJxjn8POpwDuF0fE1empMHx8dy+D3C3+XOAL1SD9882+J4AbgR2AtmEO7LfAtOB0wDea062wuD8mAyE8boA/sEAxxEUxs8D7gVeDVbGUeaki5ayBRVIAJOiAwI1nMYN/ic3+DyPk2MH2voA9g44tuMfKR4OnS1zY3PYpP/KeeAEWqTIXUcpwK38awBvruYQJo5+QBdgA7AeeBcIm6RwF5y09PjbgJGTgeMBLoT/ALgDzyZTETDBBl0M/Zi1O0F/DuAizZv9HSAX6YGgEqAbwGTPRWktwETdZBLMmPU76truNrOx6izsHAbWr8iz5Pv8doDohuQBRWTOWQhgTK7k7QtvnZ/bMOznWmDom9HnwhboN64uW3r8vEmZLIg45AM0Mr8RDf0LxxDNKnJr1LDj8qF7sEP4b1S82bCyqT1IGl41diUqyoAyUGgMZE4cHO204VtMwrsa1ofNOPhFZk/7Pube/iuasU/tShlQBnJkIHviYEPTRlTiseEaPGHwGcNJLV6Cwp3LI4c7JItOt5V40nRMnosXqDuzRGu1MqAMtBADuSUODm5vO7zE8ebsTxReYqup2Ykfj+G/izTeLES8na5rdB7xkJb8KaZjn6+Z8lI+P6ooA8pAgTKQ+eWoHPTDeN/Bv2Acv6An9ADAs//HCr/i3Pc1Z1nlF5BI7kACOAsvQPNJIbUILzNT+j2EtlSUAWWgwBnIPXG4Eyn2xuIH00tcsZ5+YPizKA82t679lKnd81l8GzMSfxVwAXYiR8CuFyoK21B/hVm/gt+lqygDBzsD/J3M8/YknW5155zPrqDu5K6qHISfqsw2Dww/oc4ZYY3yi8wJb4zCLuQ6/HYDuxUkkbofumwzieT55p7SVktgxFmrWxk4qBlINursur/wotn8uftyOvZxrxZxc5A4HjOTV/Ywfk2pSXlj8B9c9zRFtZeZu0pX59SOBikDyoAyoAwoA8qAMqAMKAPKgDKgDCgDyoAyoAwoA8qAMqAMKAPKgDKgDCgDyoAyoAwoA8qAMqAMKAPKgDKgDCgDyoAyoAwoA8qAMqAMKAPKgDKgDCgDyoAyoAwoA8qAMqAMKAPKgDKgDCgDyoAyoAwoA8qAMqAMKAPKgDKgDCgDyoAyoAwoA4ckA/8P4Upd6WyjIVwAAAAASUVORK5CYII=;" parent="1" vertex="1">
                    <mxGeometry x="-3240" y="-1535" width="192.86" height="50" as="geometry"/>
                </mxCell>
                <mxCell id="IKtMQjf0WyuQC_6Y6BPb-22" value="Azure Repo" style="shape=image;verticalLabelPosition=bottom;labelBackgroundColor=none;verticalAlign=top;aspect=fixed;imageAspect=0;image=data:image/png,iVBORw0KGgoAAAANSUhEUgAAAEoAAABMCAYAAADKiSFsAAAAAXNSR0IArs4c6QAAAIRlWElmTU0AKgAAAAgABQESAAMAAAABAAEAAAEaAAUAAAABAAAASgEbAAUAAAABAAAAUgEoAAMAAAABAAIAAIdpAAQAAAABAAAAWgAAAAAAAACQAAAAAQAAAJAAAAABAAOgAQADAAAAAQABAACgAgAEAAAAAQAAAEqgAwAEAAAAAQAAAEwAAAAAo7WRfQAAAAlwSFlzAAAWJQAAFiUBSVIk8AAADd9JREFUeAHtXGtsHNUVvndmX07s3bWdhEIbXqL9Q2kga1ICpY3UVqjQvFqMQqEp71AClCZWXpDYCcWxQ2yTFxAepaVFqmShJkQqqipoRAmPkk1KVdRWtEB5iUdsz67j2PuYuf3OxGNmN7M7s7Mza5C4kjUzd+4959xvzjn33HPvmrHPiyMEuKNWPjcSrWeHhnORSzXBVnPOWhgTqmDsWVkSXU/LZx24or9f9VkEW/KTDpRoTcSULG/nXNwOYWQApBcJD5oQRwXn7crQwP1n7H9rzHY0PjaYVKCGFp0b50LezDi7CWOUrMYJDRsDYN1Hg+Humf0vjlq1qUWdXAsmVjxEa6ucUVPQJHYH3pf7YAHO+EUhLXekbskHB/fvZ4bSWZH1ra6cgL4xJU2SmbwKI17reNQCmiWJtsZY9FH+q/01N8OaA2WYGzTpZscgffLJsoKJzngm3cWf/k/mk2r/7yz9gl9s35x3eoQJeSMM7UYXIJFYIVjp6lQ4+jMyXb/ktKJbU6CaGpvugibdDkFcDxImUAewOtLZN5ZRWGE1KD/qagYUNEjSBP8qTfselDrQ60llw22vf++ssAf0bEnUDCjgo4WD+eUIKvfYSuWkAWcRxFh3zgjHVukm7aRPFW18BUp0FMZGU/pffS+nacsZF895oVigMQWadWdjvPnaKjBw1NULeS0ZKZed08iCwRszWvDXJz318ofmRoPzE6dKMnsEzL/r0qmbyVFgNYovvnZQGdjtVwTvi0bpIIWCmxEodoelfO/w4gtnmEfWtC/5diArLcUA+831bu8BOPmsLfF40xoxb17ELZ1y/TwHisxNC4TWccGXkbZgED/Ki0ynuCkRNAtS/4dXPpBUdgve/8VcX8V9CB9mnRIfptADZL0tnhKkYFIIebXM2RoCySg00wkh7h9Refsp+5JHjHq6Diw8f2aAa0+g/cXm+iruaT24MhZveMzLCN4zoHRzC8Dc+HFNKh4oMcLi9omAlF/R8Pu/f2R+n74yMU0bFffLXGo16glogOt2YZdB1854NtXtVQTvCVBifmKKIoktBBLGFzAGe+JVACv2hAjx25r6kynz+6OXnv8FEVIX5DV2RGPsGLQyAQO6AeCdrqKTizKC/r+Ivc16eDKZc9G/oEvVQBFIKVm7C/Hk2gLKJR50zWJiZzyYWcv7Xztaople/Roi7y/m6zZAs25Fv1i5tlbvAO8o+q2MzcAM+1B1YFUFFJmbCATvhiYttxK0VJ0OlmCPB0JaW0P/4Y9LtTPqhxYnVnAhNsJH1xt1Tq86WJxtio2l+qoxQ9ezHjluhhBAOm5uTuXW25EhAawfaznpXuWybzTadQ4EtN9AY1+ya2f1Hnzq4OjWK5HY6jerCB1cAYWBYm0rrxoPAcr4JCvRx+swl+MufkwatU2XkNYJpj0PpnBfrsoUSbB1jfHha131RqeKB0nmNoQ4Ccv/NtKMKouCcOGYExrw54fAj4By+3Fp8dwztOi8QFyJPcz3V5b8q4ipbm7BYBdmJC9AcoLPRBsuC9LAaksdZ1KPEk+vqdQMHQOFpUFAYvJ6WN1NHmiSPmDQib3TOhf5JfvCNekCtHIsbxmKQVj92qb48LLiRXuZPs4YD2JLKRUf3gRCK8oRq/QdgEpMzWawj2df4MgehVP+q31LRy1CsOHN6cOJm52maGy/EJmblGVd0HvnGwGOZNXVYyaWN3c4SeuetCf532E1fznk2IuZ1iGH0s1AoU5w0RuPNa8SDpJ/ZTl+1Hp2fThf14WAj/bdCha1pUWo+A3tCr8A8ksb97z0ll1vWhvKXHsY7S6xa+vw/QjWSp2xUGYrAuBsqT4lNYqcXTgfXgOQKJj0CySSC3MDu5iz3J8GF8z+mlnQ1CVzm+hjmeua977yjmDqzfAzANeTMhV+d306G7mB/HApipZAkbnFY8NbhOB3luroQ70sB+SC/Defkp0fzEV2vrt4TrOZX+Oev72lsfxV8Fl/9MIMEdEhrcy2puLpFaXM8ASgCCTa5oYbuMUs3GTcqxoXIYn/pEFTe9MWYKlMuhEav9cj2fTdHSUcXWM1ExcARdOlHnFjcxLMXW8peSS4ToacKJfYUlVT24uTf2SGWU27BRsWL5V1ts4FqpOQ/Juaz1wHv1lAcgIo0qTU4cQ9eOv57OZcTuuWAIIFJX6b8iHrKdas6U8dfl8KSFehzQH4rRfxtw9jeB6U3rCmVr4WrEKSxrcOLZq93KxZOlB09Gbc3Aoyk+VJ1uYtBNdLHmsYGWAJCzOMP/nKG0ER+KGqiiXRhuyVuXx+CdJ+VzDB70XnkXESzi/wWdCs3vpcBgtp7G6jBMh5jZ9P8izidi5RZS0p6weDWKqpag6z8q1nmNZr9YU7PQTOe/hLDi5s+V9EZjuzpJaVFSgxX93c2Jz+87zTt0tKKHopHeICjQkzrIxe7VvLMr++KZbu/HjBRQ123Jv2HtwFP/aQm8Hhu0SAb8esxuELJKjYKtj0p8Jx57Dnbh54qcGRZkmS9HNNGivYBjP3Nd8LSXTibOOwuc7pPWa3BhwDbANOrKVipXTKxcd2tO1AyxonLOI5CVlUcchJ2+I2ZLEaE9/GRxMA+7NXoFQDjqVubkBExgYdtz+hIZdJu5+lfbfPWkFA3CyuOT4j2cquDsrIyZ5q286iAUHDmXgBpi53webL7oZY9PelCtNMgRegdGapQhNgWmm6vNR7c70yJJ+FAResI83vy92DTZaSfVL94NQX4Kg68IVqfi6ynIB273REESc5mfkQkO4APTcLexWauPXd4OgzEnLH+QFlYBe0qhvEcnYCfpreY46cHpBGdynz55xhJdfIgvNOURa17EY8dHGBqlo1tqiDye3IqeGus5F+0dMKdFTmndaTu6fmMkckimYRmVr0m5QqG/eJFA1fwmT1K6lFLb9DZH5QE6E3uTx6GlIR5yDIvFpiYg4lvCosyOmxjqio6+NPHdDDion8Cx12B71dQ4tnC+Txe3Ffs/ORFQ6iuDmZ1NcRLrTIMlNlnsNsjh+HaILyXBO/hCjuVOaZgrkN0b1JWvdOQFwQ09GLkUD4l+DUCUKT9isB8yAmJDVXWt8TKCGkXSLjH9lNEJ0H4NujWmSbGSRiVwAUVZBm0TluYNaBx08FWCSX3wXAqFCQ3rxWt94wNzPPE4Cil7RHH1OivbDTNijfZ2o2NA/O+T2dshHtjcHM+unjPqm4ryVQ1Ihmw2ho7BFo1t14rDxVUcypzDNCkxwcw/sZLinmZnCgx7D+K5nwN7d1ew9Nwk4Y7zum8T5XmwvEmDrGsukeBHdbAJjtGQE3wsKfHMXn7Bxh8sIZT778uplG/d6DT2JWuwZ1/8aAPC/4QIhpxQM5LbLRbmvfEX9KXjXFmq/TkIBHB0c7u45HxXlnbNbB9bxDP1dg2U1Z2HI5UkEPANRplg1cVQoMh7dHg2P32Z3TIvIlTc/Mm+Ks6HnJB9F4Leq9MwXO/iEz7bflQCI5Ps4q++BonzPLVOU9gdQZDZ652QlIxMsRUNSQBjOoNOzG9LkZj15F8P+qD2RsUyVfxuSCZRYB5UWmA36b7UQIsIVX8BNcx0ARWJR6jSvRLpxVWonHqkMHzKpHyzlQ4mkUnOOkzQJYXzWFzE1s0rIByxCgHOWJyLxcI/M7zIYULuxQFiXy8Fd9kLxg09Lc1sG9Ix9JdHA0EdbiuLkVayLQHt1TGHFbNbSqq0ijzASGlIbH8Hkognd0EMzc17gHyCenWuc2Gc+lrgh9kQ6SvoX3bqJtIpuDJm3LWkTcpXgW17sGSjfDsVQ3FtB3Y8CuzBD6MVvNZy4sFqr4OZWcc5pg/Juor1il0EFFmuu+rFa3oVQwWczP6tk1UERMj+Cn4xw3jii7AQt9psFJb8Rv7qJWwk3USeo6hAezJp4d3hBIyHh3NMSiVYFE7Cr+QlYyikQimDqVrYSrxXlzhtMhzstxAfggfkFzWVoOv/qlxmw+mcQJsxkpaUCeOi0YkB+UuPR9F4fys9CkbQSSFz/18AQogkXfSA3F6D9hrMOjGwdP8RlO/op/YucDPoXNxHech3x+c+V7l9gj1n1SdeZG4zKKZ0ARQZwviuAI47W47cGftxE8MXBUjkfc5Lir8UnFrDwFiojD73CEDvSTDAKLkmq1LKRJm6LnHtpkF+1XKlRVztyKGQAScaXhYUTwFDp4t9yxYmauwwIXvLfnM8Fer0EiNp5rlCG7vpCONy/D8hy/BPXbDHVz69SXJSXySYZcbq++AWUIBDP8Ke778OfGwRtkyl2F0LQN8dmHO/3QJIOx56ZnEDauQ8rAY/ga98B3uY7gDVoWV/oXJNty4ex9foJEfH0HilI0H2VSW7BWu8fbtDLSt1hzIse9YYbN7/4sAK64ynfTMySifw+iH1FG8g91VYUOEFqlf8B1LC/67DKTBv9qr75rlCEgpVOioTN3Y1LsgCa4WhuO08ohn7Q1Fhi9t1YgEd+aaZQBmB7B49+EgDFlSyvVLM8jbkMuu2vNgSKB9H/+lw9drQppOwRwujYUyLFsqKdUiU8hQDmwJgUoHSxoc+oHievxK9IdtLtrIySyLDgLMCv5C79nt1Jy1MxHFQuALyRi8tjjmN434l250AGpErEtqkb6Jgskkn3SgCLm5OBjlM/ifBUeh80n/8ZVPYt3XZR0mwxzIxmNMmmmZwhAV0r1Dh1qmYsUSxuS498BhDiJIg5wLvdEp2vPVPs/C8y8Pr/3GYH/A9kp/J6knqQPAAAAAElFTkSuQmCC;fontSize=12;strokeWidth=2;" parent="1" vertex="1">
                    <mxGeometry x="-3108.94" y="-1498" width="38.94" height="40" as="geometry"/>
                </mxCell>
                <mxCell id="44" value="" style="rounded=0;whiteSpace=wrap;html=1;fillColor=#b0e3e6;strokeColor=#0e8088;dashed=1;dashPattern=8 8;" parent="1" vertex="1">
                    <mxGeometry x="-2960" y="-1490" width="220" height="185" as="geometry"/>
                </mxCell>
                <mxCell id="45" value="" style="shape=image;verticalLabelPosition=bottom;labelBackgroundColor=default;verticalAlign=top;aspect=fixed;imageAspect=0;image=data:image/svg+xml,PHN2ZyB4bWxucz0iaHR0cDovL3d3dy53My5vcmcvMjAwMC9zdmciIGZpbGw9Im5vbmUiIHZpZXdCb3g9IjAgMCAzMiAzMiIgaGVpZ2h0PSIzMiIgd2lkdGg9IjMyIj4mI3hhOzxwYXRoIGZpbGw9ImJsYWNrIiBkPSJNMiA3QzIgNS4zNDMxNSAzLjM0MzE1IDQgNSA0SDE5QzIwLjY1NjkgNCAyMiA1LjM0MzE1IDIyIDdWMTdDMjIgMTguNjU2OSAyMC42NTY5IDIwIDE5IDIwSDVDMy4zNDMxNSAyMCAyIDE4LjY1NjkgMiAxN1Y3Wk01IDZDNC40NDc3MiA2IDQgNi40NDc3MiA0IDdWMTdDNCAxNy41NTIzIDQuNDQ3NzIgMTggNSAxOEgxOUMxOS41NTIzIDE4IDIwIDE3LjU1MjMgMjAgMTdWN0MyMCA2LjQ0NzcyIDE5LjU1MjMgNiAxOSA2SDVaTTEwLjE2OTkgMjUuOTk5OUMxMC41ODE4IDI3LjE2NTEgMTEuNjkzIDI3Ljk5OTkgMTIuOTk5MiAyNy45OTk5SDE4Ljk5OTJDMjUuMDc0MyAyNy45OTk5IDI5Ljk5OTIgMjMuMDc1MSAyOS45OTkyIDE2Ljk5OTlWMTQuOTk5OUMyOS45OTkyIDEzLjY5MzcgMjkuMTY0NCAxMi41ODI1IDI3Ljk5OTIgMTIuMTcwN1YxNi45OTk5QzI3Ljk5OTIgMjEuOTcwNSAyMy45Njk4IDI1Ljk5OTkgMTguOTk5MiAyNS45OTk5SDEwLjE2OTlaTTguOTk5MjIgMjMuOTk5OUM3LjY5MyAyMy45OTk5IDYuNTgxNzYgMjMuMTY1MSA2LjE2OTkyIDIxLjk5OTlIMTguOTk5MkMyMS43NjA2IDIxLjk5OTkgMjMuOTk5MiAxOS43NjE0IDIzLjk5OTIgMTYuOTk5OVY4LjE3MDY1QzI1LjE2NDQgOC41ODI0OSAyNS45OTkyIDkuNjkzNzMgMjUuOTk5MiAxMC45OTk5VjE2Ljk5OTlDMjUuOTk5MiAyMC44NjU5IDIyLjg2NTIgMjMuOTk5OSAxOC45OTkyIDIzLjk5OTlIOC45OTkyMloiLz4mI3hhOzwvc3ZnPg==;fontSize=14;" parent="1" vertex="1">
                    <mxGeometry x="-2772" y="-1490" width="32" height="32" as="geometry"/>
                </mxCell>
                <mxCell id="46" value="" style="rounded=0;whiteSpace=wrap;html=1;dashed=1;strokeWidth=2;" parent="1" vertex="1">
                    <mxGeometry x="-2942" y="-1465" width="170" height="130" as="geometry"/>
                </mxCell>
                <mxCell id="47" value="Lakehouse" style="shape=image;verticalLabelPosition=bottom;labelBackgroundColor=default;verticalAlign=top;aspect=fixed;imageAspect=0;image=data:image/svg+xml,PHN2ZyB4bWxucz0iaHR0cDovL3d3dy53My5vcmcvMjAwMC9zdmciIGZpbGw9Im5vbmUiIHZpZXdCb3g9IjAgMCAzMiAzMyIgaGVpZ2h0PSIzMyIgd2lkdGg9IjMyIj4mI3hhOzxwYXRoIGZpbGw9ImJsYWNrIiBkPSJNMTIuNjI2IDQuMzkwMDJDMTMuMzk3IDMuNjYxNzQgMTQuNjAzIDMuNjYxNzQgMTUuMzc0IDQuMzkwMDJMMjUuMDYxIDEzLjU0MDNDMjUuNjYwNCAxNC4xMDY0IDI2IDE0Ljg5NDEgMjYgMTUuNzE4MlYxOC42MDYyQzI1Ljc5OSAxOC40MjY0IDI1LjU3NCAxOC4yNzQgMjUuMzMwNyAxOC4xNTM4QzI0LjkxNyAxNy45NDkyIDI0LjQ2MTUgMTcuODQzMiAyNCAxNy44NDM4VjE1LjcxODJDMjQgMTUuNDQzNSAyMy44ODY4IDE1LjE4MSAyMy42ODcgMTQuOTkyMkwxNCA1Ljg0MTk4TDQuMzEyOTkgMTQuOTkyMkM0LjExMzIgMTUuMTgxIDQgMTUuNDQzNSA0IDE1LjcxODJWMjYuODQ2NkM0IDI3LjM5ODMgNC40NDc3MiAyNy44NDU2IDUgMjcuODQ1Nkg4Ljc2MjNDOC4yNzI2NyAyOC4zOTM5IDggMjkuMTA0OCA4IDI5Ljg0MzhMNSAyOS44NDM4QzMuMzQzMTQgMjkuODQzOCAyIDI4LjUwMTkgMiAyNi44NDY2VjE1LjcxODJDMiAxNC44OTQxIDIuMzM5NjEgMTQuMTA2NCAyLjkzODk2IDEzLjU0MDNMMTIuNjI2IDQuMzkwMDJaIi8+JiN4YTs8cGF0aCBmaWxsPSJibGFjayIgZD0iTTI5IDIyLjg0MzdDMjguMzk3OSAyMi44NzczIDI3Ljc5NTIgMjIuNzg3NiAyNy4yMjg5IDIyLjU4QzI2LjY2MjcgMjIuMzcyNSAyNi4xNDQ4IDIyLjA1MTUgMjUuNzA3IDIxLjYzNjdDMjUuNDY1OCAyMS4zOTY0IDI1LjI1OTEgMjEuMTIzOCAyNS4wOTMgMjAuODI2N0MyNS4wNTI2IDIwLjc1MDYgMjUuMDE2MyAyMC42NzI1IDI0Ljk4NCAyMC41OTI3QzI0Ljk0OTMgMjAuNTA1OSAyNC45MDkyIDIwLjQyMTQgMjQuODY0IDIwLjMzOTdDMjQuODQzNyAyMC4zMDUgMjQuODIxNCAyMC4yNzE2IDI0Ljc5NyAyMC4yMzk3QzI0LjY3MTkgMjAuMDc1MyAyNC40OTkgMTkuOTUzNyAyNC4zMDIxIDE5Ljg5MTZDMjQuMTA1MSAxOS44Mjk1IDIzLjg5MzcgMTkuODI5OCAyMy42OTcgMTkuODkyN0gyMy42ODdDMjMuNDU2NiAxOS45NzA5IDIzLjI2MTggMjAuMTI5MiAyMy4xMzggMjAuMzM4N0MyMy4wODYxIDIwLjQzNTMgMjMuMDQxMyAyMC41MzU1IDIzLjAwNCAyMC42Mzg3TDIyLjk5MzUgMjAuNjY0OEMyMi45NjYxIDIwLjczMzIgMjIuOTM4NiAyMC44MDE5IDIyLjkwNCAyMC44NjY3QzIyLjc1NDEgMjEuMTY2IDIyLjU3MDkgMjEuNDQ3NCAyMi4zNTggMjEuNzA1N0MyMi4wNzY1IDIyLjA2MTEgMjEuNzE4MiAyMi4zNDgyIDIxLjMxMDEgMjIuNTQ1NUMyMC45MDE5IDIyLjc0MjkgMjAuNDU0NCAyMi44NDU0IDIwLjAwMSAyMi44NDU0QzE5LjU0NzYgMjIuODQ1NCAxOS4xMDAxIDIyLjc0MjkgMTguNjkxOSAyMi41NDU1QzE4LjI4MzggMjIuMzQ4MiAxNy45MjU1IDIyLjA2MTEgMTcuNjQ0IDIxLjcwNTdDMTcuNDMxMSAyMS40NDc0IDE3LjI0NzkgMjEuMTY2IDE3LjA5OCAyMC44NjY3QzE3LjA3MTEgMjAuODEzNiAxNy4wNDc5IDIwLjc1NzkgMTcuMDI0NiAyMC43MDE5QzE3LjAxNTggMjAuNjgwOCAxNy4wMDcgMjAuNjU5NyAxNi45OTggMjAuNjM4N0MxNi45NjA3IDIwLjUzNTUgMTYuOTE1OSAyMC40MzUzIDE2Ljg2NCAyMC4zMzg3QzE2Ljc0MDIgMjAuMTI5MiAxNi41NDU0IDE5Ljk3MDkgMTYuMzE1IDE5Ljg5MjdIMTYuMzA1QzE2LjEwODMgMTkuODI5OCAxNS44OTY5IDE5LjgyOTUgMTUuNjk5OSAxOS44OTE2QzE1LjUwMyAxOS45NTM3IDE1LjMzMDEgMjAuMDc1MyAxNS4yMDUgMjAuMjM5N0MxNS4xODA2IDIwLjI3MTYgMTUuMTU4MyAyMC4zMDUgMTUuMTM4IDIwLjMzOTdDMTUuMDkyOCAyMC40MjE0IDE1LjA1MjcgMjAuNTA1OSAxNS4wMTggMjAuNTkyN0MxNC45ODU3IDIwLjY3MjUgMTQuOTQ5NCAyMC43NTA2IDE0LjkwOSAyMC44MjY3QzE0Ljc0MjkgMjEuMTIzOCAxNC41MzYyIDIxLjM5NjQgMTQuMjk1IDIxLjYzNjdDMTMuODU3IDIyLjA1MTcgMTMuMzM4NyAyMi4zNzI5IDEyLjc3MjEgMjIuNTgwNEMxMi4yMDU1IDIyLjc4OCAxMS42MDI1IDIyLjg3NzYgMTEgMjIuODQzN0MxMC43MzQ4IDIyLjg0MzcgMTAuNDgwNCAyMi45NDkgMTAuMjkyOSAyMy4xMzY2QzEwLjEwNTQgMjMuMzI0MSAxMCAyMy41Nzg1IDEwIDIzLjg0MzdDMTAgMjQuMTA4OSAxMC4xMDU0IDI0LjM2MzIgMTAuMjkyOSAyNC41NTA4QzEwLjQ4MDQgMjQuNzM4MyAxMC43MzQ4IDI0Ljg0MzcgMTEgMjQuODQzN0MxMS44NjUgMjQuODc3OSAxMi43Mjc5IDI0LjczNjcgMTMuNTM2OSAyNC40Mjg2QzE0LjM0NTggMjQuMTIwNCAxNS4wODQgMjMuNjUxNyAxNS43MDcgMjMuMDUwN0MxNS43OTQgMjIuOTYzNyAxNS44NzYgMjIuODc2NyAxNS45NTIgMjIuNzg5N0MxNi4wMDEgMjIuODU0NyAxNi4wNTIgMjIuOTE4NyAxNi4xMDcgMjIuOTgzN0MxNi41NzU2IDIzLjU2NTEgMTcuMTY4NiAyNC4wMzQyIDE3Ljg0MjIgMjQuMzU2NUMxOC41MTU5IDI0LjY3ODggMTkuMjUzMiAyNC44NDYxIDIwIDI0Ljg0NjFDMjAuNzQ2OCAyNC44NDYxIDIxLjQ4NDEgMjQuNjc4OCAyMi4xNTc4IDI0LjM1NjVDMjIuODMxNCAyNC4wMzQyIDIzLjQyNDQgMjMuNTY1MSAyMy44OTMgMjIuOTgzN0MyMy45NDcgMjIuOTE4NyAyMy45OTkgMjIuODU0NyAyNC4wNDggMjIuNzg5N0MyNC4xMjQgMjIuODc2NyAyNC4yMDYgMjIuOTYzNyAyNC4yOTMgMjMuMDUwN0MyNC45MTYgMjMuNjUxNyAyNS42NTQyIDI0LjEyMDQgMjYuNDYzMSAyNC40Mjg2QzI3LjI3MjEgMjQuNzM2NyAyOC4xMzUgMjQuODc3OSAyOSAyNC44NDM3QzI5LjI2NTIgMjQuODQzNyAyOS41MTk2IDI0LjczODMgMjkuNzA3MSAyNC41NTA4QzI5Ljg5NDYgMjQuMzYzMiAzMCAyNC4xMDg5IDMwIDIzLjg0MzdDMzAgMjMuNTc4NSAyOS44OTQ2IDIzLjMyNDEgMjkuNzA3MSAyMy4xMzY2QzI5LjUxOTYgMjIuOTQ5IDI5LjI2NTIgMjIuODQzNyAyOSAyMi44NDM3WiIvPiYjeGE7PHBhdGggZmlsbD0iYmxhY2siIGQ9Ik0yOSAyOC44NDM3QzI4LjM5NzkgMjguODc3MyAyNy43OTUyIDI4Ljc4NzYgMjcuMjI4OSAyOC41OEMyNi42NjI3IDI4LjM3MjUgMjYuMTQ0OCAyOC4wNTE1IDI1LjcwNyAyNy42MzY3QzI1LjQ2NTggMjcuMzk2NCAyNS4yNTkxIDI3LjEyMzggMjUuMDkzIDI2LjgyNjdDMjUuMDUyNiAyNi43NTA2IDI1LjAxNjMgMjYuNjcyNSAyNC45ODQgMjYuNTkyN0MyNC45NDkzIDI2LjUwNTkgMjQuOTA5MiAyNi40MjE0IDI0Ljg2NCAyNi4zMzk3QzI0Ljg0MzcgMjYuMzA1IDI0LjgyMTQgMjYuMjcxNiAyNC43OTcgMjYuMjM5N0MyNC42NzE5IDI2LjA3NTMgMjQuNDk5IDI1Ljk1MzcgMjQuMzAyMSAyNS44OTE2QzI0LjEwNTEgMjUuODI5NSAyMy44OTM3IDI1LjgyOTggMjMuNjk3IDI1Ljg5MjdIMjMuNjg3QzIzLjQ1NjYgMjUuOTcwOSAyMy4yNjE4IDI2LjEyOTIgMjMuMTM4IDI2LjMzODdDMjMuMDg2MSAyNi40MzUzIDIzLjA0MTMgMjYuNTM1NSAyMy4wMDQgMjYuNjM4N0wyMi45OTM1IDI2LjY2NDhDMjIuOTY2MSAyNi43MzMyIDIyLjkzODYgMjYuODAxOSAyMi45MDQgMjYuODY2N0MyMi43NTQxIDI3LjE2NiAyMi41NzA5IDI3LjQ0NzQgMjIuMzU4IDI3LjcwNTdDMjIuMDc2NSAyOC4wNjExIDIxLjcxODIgMjguMzQ4MiAyMS4zMTAxIDI4LjU0NTVDMjAuOTAxOSAyOC43NDI5IDIwLjQ1NDQgMjguODQ1NCAyMC4wMDEgMjguODQ1NEMxOS41NDc2IDI4Ljg0NTQgMTkuMTAwMSAyOC43NDI5IDE4LjY5MTkgMjguNTQ1NUMxOC4yODM4IDI4LjM0ODIgMTcuOTI1NSAyOC4wNjExIDE3LjY0NCAyNy43MDU3QzE3LjQzMTEgMjcuNDQ3NCAxNy4yNDc5IDI3LjE2NiAxNy4wOTggMjYuODY2N0MxNy4wNzExIDI2LjgxMzYgMTcuMDQ3OSAyNi43NTc5IDE3LjAyNDYgMjYuNzAxOUMxNy4wMTU4IDI2LjY4MDggMTcuMDA3IDI2LjY1OTcgMTYuOTk4IDI2LjYzODdDMTYuOTYwNyAyNi41MzU1IDE2LjkxNTkgMjYuNDM1MyAxNi44NjQgMjYuMzM4N0MxNi43NDAyIDI2LjEyOTIgMTYuNTQ1NCAyNS45NzA5IDE2LjMxNSAyNS44OTI3SDE2LjMwNUMxNi4xMDgzIDI1LjgyOTggMTUuODk2OSAyNS44Mjk1IDE1LjY5OTkgMjUuODkxNkMxNS41MDMgMjUuOTUzNyAxNS4zMzAxIDI2LjA3NTMgMTUuMjA1IDI2LjIzOTdDMTUuMTgwNiAyNi4yNzE2IDE1LjE1ODMgMjYuMzA1IDE1LjEzOCAyNi4zMzk3QzE1LjA5MjggMjYuNDIxNCAxNS4wNTI3IDI2LjUwNTkgMTUuMDE4IDI2LjU5MjdDMTQuOTg1NyAyNi42NzI1IDE0Ljk0OTQgMjYuNzUwNiAxNC45MDkgMjYuODI2N0MxNC43NDI5IDI3LjEyMzggMTQuNTM2MiAyNy4zOTY0IDE0LjI5NSAyNy42MzY3QzEzLjg1NyAyOC4wNTE3IDEzLjMzODcgMjguMzcyOSAxMi43NzIxIDI4LjU4MDRDMTIuMjA1NSAyOC43ODggMTEuNjAyNSAyOC44Nzc2IDExIDI4Ljg0MzdDMTAuNzM0OCAyOC44NDM3IDEwLjQ4MDQgMjguOTQ5IDEwLjI5MjkgMjkuMTM2NkMxMC4xMDU0IDI5LjMyNDEgMTAgMjkuNTc4NSAxMCAyOS44NDM3QzEwIDMwLjEwODkgMTAuMTA1NCAzMC4zNjMyIDEwLjI5MjkgMzAuNTUwOEMxMC40ODA0IDMwLjczODMgMTAuNzM0OCAzMC44NDM3IDExIDMwLjg0MzdDMTEuODY1IDMwLjg3NzkgMTIuNzI3OSAzMC43MzY3IDEzLjUzNjkgMzAuNDI4NkMxNC4zNDU4IDMwLjEyMDQgMTUuMDg0IDI5LjY1MTcgMTUuNzA3IDI5LjA1MDdDMTUuNzk0IDI4Ljk2MzcgMTUuODc2IDI4Ljg3NjcgMTUuOTUyIDI4Ljc4OTdDMTYuMDAxIDI4Ljg1NDcgMTYuMDUyIDI4LjkxODcgMTYuMTA3IDI4Ljk4MzdDMTYuNTc1NiAyOS41NjUxIDE3LjE2ODYgMzAuMDM0MiAxNy44NDIyIDMwLjM1NjVDMTguNTE1OSAzMC42Nzg4IDE5LjI1MzIgMzAuODQ2MSAyMCAzMC44NDYxQzIwLjc0NjggMzAuODQ2MSAyMS40ODQxIDMwLjY3ODggMjIuMTU3OCAzMC4zNTY1QzIyLjgzMTQgMzAuMDM0MiAyMy40MjQ0IDI5LjU2NTEgMjMuODkzIDI4Ljk4MzdDMjMuOTQ3IDI4LjkxODcgMjMuOTk5IDI4Ljg1NDcgMjQuMDQ4IDI4Ljc4OTdDMjQuMTI0IDI4Ljg3NjcgMjQuMjA2IDI4Ljk2MzcgMjQuMjkzIDI5LjA1MDdDMjQuOTE2IDI5LjY1MTcgMjUuNjU0MiAzMC4xMjA0IDI2LjQ2MzEgMzAuNDI4NkMyNy4yNzIxIDMwLjczNjcgMjguMTM1IDMwLjg3NzkgMjkgMzAuODQzN0MyOS4yNjUyIDMwLjg0MzcgMjkuNTE5NiAzMC43MzgzIDI5LjcwNzEgMzAuNTUwOEMyOS44OTQ2IDMwLjM2MzIgMzAgMzAuMTA4OSAzMCAyOS44NDM3QzMwIDI5LjU3ODUgMjkuODk0NiAyOS4zMjQxIDI5LjcwNzEgMjkuMTM2NkMyOS41MTk2IDI4Ljk0OSAyOS4yNjUyIDI4Ljg0MzcgMjkgMjguODQzN1oiLz4mI3hhOzwvc3ZnPg==;" parent="1" vertex="1">
                    <mxGeometry x="-2830" y="-1458" width="32" height="33" as="geometry"/>
                </mxCell>
                <mxCell id="48" value="nb-covid-data" style="shape=image;verticalLabelPosition=bottom;labelBackgroundColor=default;verticalAlign=top;aspect=fixed;imageAspect=0;image=data:image/svg+xml,PHN2ZyB4bWxucz0iaHR0cDovL3d3dy53My5vcmcvMjAwMC9zdmciIGZpbGw9Im5vbmUiIHZpZXdCb3g9IjAgMCAzMiAzMyIgaGVpZ2h0PSIzMyIgd2lkdGg9IjMyIj4mI3hhOzxwYXRoIGZpbGw9ImJsYWNrIiBkPSJNOCA3LjkzNzU2QzggNy4xMDkxMyA4LjY3MTU3IDYuNDM3NTYgOS41IDYuNDM3NTZIMjEuNUMyMi4zMjg0IDYuNDM3NTYgMjMgNy4xMDkxMyAyMyA3LjkzNzU2VjEwLjkzNzZDMjMgMTEuNzY2IDIyLjMyODQgMTIuNDM3NiAyMS41IDEyLjQzNzZIOS41QzguNjcxNTcgMTIuNDM3NiA4IDExLjc2NiA4IDEwLjkzNzZWNy45Mzc1NlpNMTAgOC40Mzc1NlYxMC40Mzc2SDIxVjguNDM3NTZIMTBaTTQgNS42ODc1NkM0IDMuODkyNjMgNS40NTUwOCAyLjQzNzU2IDcuMjUgMi40Mzc1NkgyMy43NUMyNS41NDQ5IDIuNDM3NTYgMjcgMy44OTI2NCAyNyA1LjY4NzU2VjI3LjE4NzZDMjcgMjguOTgyNSAyNS41NDQ5IDMwLjQzNzYgMjMuNzUgMzAuNDM3Nkg3LjI1QzUuNDU1MDcgMzAuNDM3NiA0IDI4Ljk4MjUgNCAyNy4xODc2VjUuNjg3NTZaTTcuMjUgNC40Mzc1NkM2LjU1OTY0IDQuNDM3NTYgNiA0Ljk5NzIgNiA1LjY4NzU2VjI3LjE4NzZDNiAyNy44Nzc5IDYuNTU5NjQgMjguNDM3NiA3LjI1IDI4LjQzNzZIMjMuNzVDMjQuNDQwNCAyOC40Mzc2IDI1IDI3Ljg3NzkgMjUgMjcuMTg3NlY1LjY4NzU2QzI1IDQuOTk3MjEgMjQuNDQwNCA0LjQzNzU2IDIzLjc1IDQuNDM3NTZINy4yNVpNMjkuMjUgOC40Mzc1NkgyOFYxMi40Mzc2SDI5LjI1QzI5LjY2NDIgMTIuNDM3NiAzMCAxMi4xMDE4IDMwIDExLjY4NzZWOS4xODc1NkMzMCA4Ljc3MzM1IDI5LjY2NDIgOC40Mzc1NiAyOS4yNSA4LjQzNzU2Wk0yOCAxNC40Mzc2SDI5LjI1QzI5LjY2NDIgMTQuNDM3NiAzMCAxNC43NzMzIDMwIDE1LjE4NzZWMTcuNjg3NkMzMCAxOC4xMDE4IDI5LjY2NDIgMTguNDM3NiAyOS4yNSAxOC40Mzc2SDI4VjE0LjQzNzZaTTI5LjI1IDIwLjQzNzZIMjhWMjQuNDM3NkgyOS4yNUMyOS42NjQyIDI0LjQzNzYgMzAgMjQuMTAxOCAzMCAyMy42ODc2VjIxLjE4NzZDMzAgMjAuNzczMyAyOS42NjQyIDIwLjQzNzYgMjkuMjUgMjAuNDM3NloiLz4mI3hhOzwvc3ZnPg==;" parent="1" vertex="1">
                    <mxGeometry x="-2916" y="-1398" width="32" height="33" as="geometry"/>
                </mxCell>
                <mxCell id="49" value="nb-city-safety" style="shape=image;verticalLabelPosition=bottom;labelBackgroundColor=default;verticalAlign=top;aspect=fixed;imageAspect=0;image=data:image/svg+xml,PHN2ZyB4bWxucz0iaHR0cDovL3d3dy53My5vcmcvMjAwMC9zdmciIGZpbGw9Im5vbmUiIHZpZXdCb3g9IjAgMCAzMiAzMyIgaGVpZ2h0PSIzMyIgd2lkdGg9IjMyIj4mI3hhOzxwYXRoIGZpbGw9ImJsYWNrIiBkPSJNOCA3LjkzNzU2QzggNy4xMDkxMyA4LjY3MTU3IDYuNDM3NTYgOS41IDYuNDM3NTZIMjEuNUMyMi4zMjg0IDYuNDM3NTYgMjMgNy4xMDkxMyAyMyA3LjkzNzU2VjEwLjkzNzZDMjMgMTEuNzY2IDIyLjMyODQgMTIuNDM3NiAyMS41IDEyLjQzNzZIOS41QzguNjcxNTcgMTIuNDM3NiA4IDExLjc2NiA4IDEwLjkzNzZWNy45Mzc1NlpNMTAgOC40Mzc1NlYxMC40Mzc2SDIxVjguNDM3NTZIMTBaTTQgNS42ODc1NkM0IDMuODkyNjMgNS40NTUwOCAyLjQzNzU2IDcuMjUgMi40Mzc1NkgyMy43NUMyNS41NDQ5IDIuNDM3NTYgMjcgMy44OTI2NCAyNyA1LjY4NzU2VjI3LjE4NzZDMjcgMjguOTgyNSAyNS41NDQ5IDMwLjQzNzYgMjMuNzUgMzAuNDM3Nkg3LjI1QzUuNDU1MDcgMzAuNDM3NiA0IDI4Ljk4MjUgNCAyNy4xODc2VjUuNjg3NTZaTTcuMjUgNC40Mzc1NkM2LjU1OTY0IDQuNDM3NTYgNiA0Ljk5NzIgNiA1LjY4NzU2VjI3LjE4NzZDNiAyNy44Nzc5IDYuNTU5NjQgMjguNDM3NiA3LjI1IDI4LjQzNzZIMjMuNzVDMjQuNDQwNCAyOC40Mzc2IDI1IDI3Ljg3NzkgMjUgMjcuMTg3NlY1LjY4NzU2QzI1IDQuOTk3MjEgMjQuNDQwNCA0LjQzNzU2IDIzLjc1IDQuNDM3NTZINy4yNVpNMjkuMjUgOC40Mzc1NkgyOFYxMi40Mzc2SDI5LjI1QzI5LjY2NDIgMTIuNDM3NiAzMCAxMi4xMDE4IDMwIDExLjY4NzZWOS4xODc1NkMzMCA4Ljc3MzM1IDI5LjY2NDIgOC40Mzc1NiAyOS4yNSA4LjQzNzU2Wk0yOCAxNC40Mzc2SDI5LjI1QzI5LjY2NDIgMTQuNDM3NiAzMCAxNC43NzMzIDMwIDE1LjE4NzZWMTcuNjg3NkMzMCAxOC4xMDE4IDI5LjY2NDIgMTguNDM3NiAyOS4yNSAxOC40Mzc2SDI4VjE0LjQzNzZaTTI5LjI1IDIwLjQzNzZIMjhWMjQuNDM3NkgyOS4yNUMyOS42NjQyIDI0LjQzNzYgMzAgMjQuMTAxOCAzMCAyMy42ODc2VjIxLjE4NzZDMzAgMjAuNzczMyAyOS42NjQyIDIwLjQzNzYgMjkuMjUgMjAuNDM3NloiLz4mI3hhOzwvc3ZnPg==;" parent="1" vertex="1">
                    <mxGeometry x="-2916" y="-1458" width="32" height="33" as="geometry"/>
                </mxCell>
                <mxCell id="50" value="pl-covid-data" style="shape=image;verticalLabelPosition=bottom;labelBackgroundColor=default;verticalAlign=top;aspect=fixed;imageAspect=0;image=data:image/svg+xml,PHN2ZyB4bWxucz0iaHR0cDovL3d3dy53My5vcmcvMjAwMC9zdmciIGZpbGw9Im5vbmUiIHZpZXdCb3g9IjAgMCAzMiAzMyIgaGVpZ2h0PSIzMyIgd2lkdGg9IjMyIj4mI3hhOzxwYXRoIGZpbGw9ImJsYWNrIiBkPSJNMiA5LjMyODEyQzIgNy42NzEyNyAzLjM0MzE1IDYuMzI4MTIgNSA2LjMyODEyQzYuNjU2ODUgNi4zMjgxMiA4IDcuNjcxMjcgOCA5LjMyODEzTDI0IDkuMzI4MTJDMjQgNy42NzEyNyAyNS4zNDMxIDYuMzI4MTIgMjcgNi4zMjgxMkMyOC42NTY5IDYuMzI4MTIgMzAgNy42NzEyNyAzMCA5LjMyODEzVjIzLjMyODFDMzAgMjQuOTg1IDI4LjY1NjkgMjYuMzI4MSAyNyAyNi4zMjgxQzI1LjM0MzEgMjYuMzI4MSAyNCAyNC45ODUgMjQgMjMuMzI4MUg4QzggMjQuOTg1IDYuNjU2ODUgMjYuMzI4MSA1IDI2LjMyODFDMy4zNDMxNSAyNi4zMjgxIDIgMjQuOTg1IDIgMjMuMzI4MVY5LjMyODEyWk02IDkuMzI4MTNDNiA4Ljc3NTg0IDUuNTUyMjggOC4zMjgxMiA1IDguMzI4MTJDNC40NDc3MSA4LjMyODEyIDQgOC43NzU4NCA0IDkuMzI4MTJWMjMuMzI4MUM0IDIzLjg4MDQgNC40NDc3MiAyNC4zMjgxIDUgMjQuMzI4MUM1LjU1MjI5IDI0LjMyODEgNiAyMy44ODA0IDYgMjMuMzI4MVY5LjMyODEzWk04IDIxLjMyODFMMjQgMjEuMzI4MVYxMS4zMjgxTDggMTEuMzI4MVYyMS4zMjgxWk0yOCA5LjMyODEzQzI4IDguNzc1ODQgMjcuNTUyMyA4LjMyODEyIDI3IDguMzI4MTJDMjYuNDQ3NyA4LjMyODEyIDI2IDguNzc1ODQgMjYgOS4zMjgxMlYyMy4zMjgxQzI2IDIzLjg4MDQgMjYuNDQ3NyAyNC4zMjgxIDI3IDI0LjMyODFDMjcuNTUyMyAyNC4zMjgxIDI4IDIzLjg4MDQgMjggMjMuMzI4MVY5LjMyODEzWiIvPiYjeGE7PC9zdmc+;" parent="1" vertex="1">
                    <mxGeometry x="-2830" y="-1398" width="32" height="33" as="geometry"/>
                </mxCell>
                <mxCell id="51" value="'Private' Workspace" style="text;html=1;strokeColor=none;fillColor=none;align=center;verticalAlign=middle;whiteSpace=wrap;rounded=0;fontSize=14;" parent="1" vertex="1">
                    <mxGeometry x="-2947" y="-1340" width="180" height="30" as="geometry"/>
                </mxCell>
                <mxCell id="106" style="edgeStyle=none;html=1;entryX=0.012;entryY=0.417;entryDx=0;entryDy=0;entryPerimeter=0;startArrow=none;startFill=0;" edge="1" parent="1">
                    <mxGeometry relative="1" as="geometry">
                        <mxPoint x="-3170" y="-1425" as="sourcePoint"/>
                        <mxPoint x="-2939.96" y="-1423.79" as="targetPoint"/>
                    </mxGeometry>
                </mxCell>
                <mxCell id="107" value="Import" style="edgeLabel;html=1;align=center;verticalAlign=middle;resizable=0;points=[];fontSize=12;" vertex="1" connectable="0" parent="106">
                    <mxGeometry x="0.0583" y="2" relative="1" as="geometry">
                        <mxPoint x="-14" y="1" as="offset"/>
                    </mxGeometry>
                </mxCell>
                <mxCell id="114" style="edgeStyle=none;html=1;entryX=0.5;entryY=0;entryDx=0;entryDy=0;strokeColor=#000000;strokeWidth=1;fontSize=12;fontColor=#FF0000;startArrow=none;startFill=0;" edge="1" parent="1" source="60" target="61">
                    <mxGeometry relative="1" as="geometry"/>
                </mxCell>
                <mxCell id="115" value="Pull Request" style="edgeLabel;html=1;align=center;verticalAlign=middle;resizable=0;points=[];fontSize=12;fontColor=#000000;" vertex="1" connectable="0" parent="114">
                    <mxGeometry x="-0.1694" y="1" relative="1" as="geometry">
                        <mxPoint as="offset"/>
                    </mxGeometry>
                </mxCell>
                <mxCell id="60" value="'Feature' branch" style="shape=image;verticalLabelPosition=bottom;verticalAlign=top;imageAspect=0;image=data:image/svg+xml,PHN2ZyB4bWxucz0iaHR0cDovL3d3dy53My5vcmcvMjAwMC9zdmciIHZpZXdCb3g9IjAgMCA1MTIgNTEyIiBoZWlnaHQ9IjgwMHB4IiB3aWR0aD0iODAwcHgiIGZpbGw9IiMwMDAwMDAiPjx0aXRsZT5pb25pY29ucy12NS1kPC90aXRsZT48cGF0aCBkPSJNNDE2LDE2MGE2NCw2NCwwLDEsMC05Ni4yNyw1NS4yNGMtMi4yOSwyOS4wOC0yMC4wOCwzNy03NSw0OC40Mi0xNy43NiwzLjY4LTM1LjkzLDcuNDUtNTIuNzEsMTMuOTNWMTUxLjM5YTY0LDY0LDAsMSwwLTY0LDBWMzYwLjYxYTY0LDY0LDAsMSwwLDY0LjQyLjI0YzIuMzktMTgsMTYtMjQuMzMsNjUuMjYtMzQuNTIsMjcuNDMtNS42Nyw1NS43OC0xMS41NCw3OS43OC0yNi45NSwyOS0xOC41OCw0NC41My00Ni43OCw0Ni4zNi04My44OUE2NCw2NCwwLDAsMCw0MTYsMTYwWk0xNjAsNjRhMzIsMzIsMCwxLDEtMzIsMzJBMzIsMzIsMCwwLDEsMTYwLDY0Wm0wLDM4NGEzMiwzMiwwLDEsMSwzMi0zMkEzMiwzMiwwLDAsMSwxNjAsNDQ4Wk0zNTIsMTkyYTMyLDMyLDAsMSwxLDMyLTMyQTMyLDMyLDAsMCwxLDM1MiwxOTJaIi8+PC9zdmc+;fontFamily=Helvetica;imageBorder=default;" parent="1" vertex="1">
                    <mxGeometry x="-3219.3" y="-1435" width="48.59" height="50" as="geometry"/>
                </mxCell>
                <mxCell id="78" value="Dev creates 'Feature' branch&lt;br&gt;out of 'Main'" style="edgeStyle=none;html=1;entryX=0;entryY=0.5;entryDx=0;entryDy=0;labelBackgroundColor=none;fontFamily=Helvetica;fontSize=12;startArrow=none;startFill=0;fillColor=#FF0000;rounded=0;endArrow=classic;endFill=1;horizontal=0;" parent="1" source="61" target="60" edge="1">
                    <mxGeometry relative="1" as="geometry">
                        <Array as="points">
                            <mxPoint x="-3290" y="-1190"/>
                            <mxPoint x="-3290" y="-1410"/>
                        </Array>
                    </mxGeometry>
                </mxCell>
                <mxCell id="101" style="edgeStyle=none;html=1;" edge="1" parent="1" source="61" target="93">
                    <mxGeometry relative="1" as="geometry"/>
                </mxCell>
                <mxCell id="102" value="Pull Request" style="edgeLabel;html=1;align=center;verticalAlign=middle;resizable=0;points=[];fontSize=12;" vertex="1" connectable="0" parent="101">
                    <mxGeometry x="-0.0241" relative="1" as="geometry">
                        <mxPoint as="offset"/>
                    </mxGeometry>
                </mxCell>
                <mxCell id="118" style="edgeStyle=none;html=1;entryX=0;entryY=0.5;entryDx=0;entryDy=0;strokeColor=#FF0000;strokeWidth=2;fontSize=12;fontColor=#FF0000;startArrow=none;startFill=0;" edge="1" parent="1" source="61" target="3">
                    <mxGeometry relative="1" as="geometry"/>
                </mxCell>
                <mxCell id="119" value="Update from GIT" style="edgeLabel;html=1;align=center;verticalAlign=middle;resizable=0;points=[];fontSize=12;fontColor=#000000;" vertex="1" connectable="0" parent="118">
                    <mxGeometry x="-0.2172" y="2" relative="1" as="geometry">
                        <mxPoint x="19" y="2" as="offset"/>
                    </mxGeometry>
                </mxCell>
                <mxCell id="61" value="'Main-Dev' branch" style="shape=image;verticalLabelPosition=bottom;verticalAlign=top;imageAspect=0;image=data:image/svg+xml,PHN2ZyB4bWxucz0iaHR0cDovL3d3dy53My5vcmcvMjAwMC9zdmciIHZpZXdCb3g9IjAgMCA1MTIgNTEyIiBoZWlnaHQ9IjgwMHB4IiB3aWR0aD0iODAwcHgiIGZpbGw9IiMwMDAwMDAiPjx0aXRsZT5pb25pY29ucy12NS1kPC90aXRsZT48cGF0aCBkPSJNNDE2LDE2MGE2NCw2NCwwLDEsMC05Ni4yNyw1NS4yNGMtMi4yOSwyOS4wOC0yMC4wOCwzNy03NSw0OC40Mi0xNy43NiwzLjY4LTM1LjkzLDcuNDUtNTIuNzEsMTMuOTNWMTUxLjM5YTY0LDY0LDAsMSwwLTY0LDBWMzYwLjYxYTY0LDY0LDAsMSwwLDY0LjQyLjI0YzIuMzktMTgsMTYtMjQuMzMsNjUuMjYtMzQuNTIsMjcuNDMtNS42Nyw1NS43OC0xMS41NCw3OS43OC0yNi45NSwyOS0xOC41OCw0NC41My00Ni43OCw0Ni4zNi04My44OUE2NCw2NCwwLDAsMCw0MTYsMTYwWk0xNjAsNjRhMzIsMzIsMCwxLDEtMzIsMzJBMzIsMzIsMCwwLDEsMTYwLDY0Wm0wLDM4NGEzMiwzMiwwLDEsMSwzMi0zMkEzMiwzMiwwLDAsMSwxNjAsNDQ4Wk0zNTIsMTkyYTMyLDMyLDAsMSwxLDMyLTMyQTMyLDMyLDAsMCwxLDM1MiwxOTJaIi8+PC9zdmc+;fontFamily=Helvetica;imageBorder=default;" parent="1" vertex="1">
                    <mxGeometry x="-3218.5900000000006" y="-1212" width="47.18" height="44" as="geometry"/>
                </mxCell>
                <mxCell id="83" value="" style="sketch=0;outlineConnect=0;fontColor=#232F3E;gradientColor=none;strokeColor=#232F3E;fillColor=#ffffff;dashed=0;verticalLabelPosition=bottom;verticalAlign=top;align=center;html=1;fontSize=12;fontStyle=0;aspect=fixed;shape=mxgraph.aws4.resourceIcon;resIcon=mxgraph.aws4.user;labelBackgroundColor=none;" parent="1" vertex="1">
                    <mxGeometry x="-3338" y="-1320" width="30" height="30" as="geometry"/>
                </mxCell>
                <mxCell id="100" value="Pull Request" style="edgeStyle=none;html=1;entryX=0.5;entryY=0;entryDx=0;entryDy=0;fontSize=12;" edge="1" parent="1" source="93" target="94">
                    <mxGeometry relative="1" as="geometry">
                        <mxPoint as="offset"/>
                    </mxGeometry>
                </mxCell>
                <mxCell id="110" style="edgeStyle=none;html=1;entryX=0;entryY=0.5;entryDx=0;entryDy=0;fontSize=12;startArrow=none;startFill=0;strokeWidth=2;strokeColor=#FF0000;" edge="1" parent="1" source="93" target="4">
                    <mxGeometry relative="1" as="geometry">
                        <mxPoint x="-2942" y="-985" as="targetPoint"/>
                    </mxGeometry>
                </mxCell>
                <mxCell id="112" value="Update from GIT" style="edgeLabel;html=1;align=center;verticalAlign=middle;resizable=0;points=[];fontSize=12;" vertex="1" connectable="0" parent="110">
                    <mxGeometry x="-0.1944" y="-1" relative="1" as="geometry">
                        <mxPoint x="12" y="-1" as="offset"/>
                    </mxGeometry>
                </mxCell>
                <mxCell id="93" value="'Main-Test' branch" style="shape=image;verticalLabelPosition=bottom;verticalAlign=top;imageAspect=0;image=data:image/svg+xml,PHN2ZyB4bWxucz0iaHR0cDovL3d3dy53My5vcmcvMjAwMC9zdmciIHZpZXdCb3g9IjAgMCA1MTIgNTEyIiBoZWlnaHQ9IjgwMHB4IiB3aWR0aD0iODAwcHgiIGZpbGw9IiMwMDAwMDAiPjx0aXRsZT5pb25pY29ucy12NS1kPC90aXRsZT48cGF0aCBkPSJNNDE2LDE2MGE2NCw2NCwwLDEsMC05Ni4yNyw1NS4yNGMtMi4yOSwyOS4wOC0yMC4wOCwzNy03NSw0OC40Mi0xNy43NiwzLjY4LTM1LjkzLDcuNDUtNTIuNzEsMTMuOTNWMTUxLjM5YTY0LDY0LDAsMSwwLTY0LDBWMzYwLjYxYTY0LDY0LDAsMSwwLDY0LjQyLjI0YzIuMzktMTgsMTYtMjQuMzMsNjUuMjYtMzQuNTIsMjcuNDMtNS42Nyw1NS43OC0xMS41NCw3OS43OC0yNi45NSwyOS0xOC41OCw0NC41My00Ni43OCw0Ni4zNi04My44OUE2NCw2NCwwLDAsMCw0MTYsMTYwWk0xNjAsNjRhMzIsMzIsMCwxLDEtMzIsMzJBMzIsMzIsMCwwLDEsMTYwLDY0Wm0wLDM4NGEzMiwzMiwwLDEsMSwzMi0zMkEzMiwzMiwwLDAsMSwxNjAsNDQ4Wk0zNTIsMTkyYTMyLDMyLDAsMSwxLDMyLTMyQTMyLDMyLDAsMCwxLDM1MiwxOTJaIi8+PC9zdmc+;fontFamily=Helvetica;imageBorder=default;" vertex="1" parent="1">
                    <mxGeometry x="-3217.890000000001" y="-1042" width="47.18" height="44" as="geometry"/>
                </mxCell>
                <mxCell id="111" style="edgeStyle=none;html=1;entryX=0;entryY=0.5;entryDx=0;entryDy=0;fontSize=12;startArrow=none;startFill=0;strokeWidth=2;strokeColor=#FF0000;" edge="1" parent="1" source="94" target="5">
                    <mxGeometry relative="1" as="geometry">
                        <mxPoint x="-2940" y="-785" as="targetPoint"/>
                    </mxGeometry>
                </mxCell>
                <mxCell id="113" value="Update from GIT" style="edgeLabel;html=1;align=center;verticalAlign=middle;resizable=0;points=[];fontSize=12;" vertex="1" connectable="0" parent="111">
                    <mxGeometry x="-0.21" relative="1" as="geometry">
                        <mxPoint x="17" as="offset"/>
                    </mxGeometry>
                </mxCell>
                <mxCell id="94" value="'Main-Prod' branch" style="shape=image;verticalLabelPosition=bottom;verticalAlign=top;imageAspect=0;image=data:image/svg+xml,PHN2ZyB4bWxucz0iaHR0cDovL3d3dy53My5vcmcvMjAwMC9zdmciIHZpZXdCb3g9IjAgMCA1MTIgNTEyIiBoZWlnaHQ9IjgwMHB4IiB3aWR0aD0iODAwcHgiIGZpbGw9IiMwMDAwMDAiPjx0aXRsZT5pb25pY29ucy12NS1kPC90aXRsZT48cGF0aCBkPSJNNDE2LDE2MGE2NCw2NCwwLDEsMC05Ni4yNyw1NS4yNGMtMi4yOSwyOS4wOC0yMC4wOCwzNy03NSw0OC40Mi0xNy43NiwzLjY4LTM1LjkzLDcuNDUtNTIuNzEsMTMuOTNWMTUxLjM5YTY0LDY0LDAsMSwwLTY0LDBWMzYwLjYxYTY0LDY0LDAsMSwwLDY0LjQyLjI0YzIuMzktMTgsMTYtMjQuMzMsNjUuMjYtMzQuNTIsMjcuNDMtNS42Nyw1NS43OC0xMS41NCw3OS43OC0yNi45NSwyOS0xOC41OCw0NC41My00Ni43OCw0Ni4zNi04My44OUE2NCw2NCwwLDAsMCw0MTYsMTYwWk0xNjAsNjRhMzIsMzIsMCwxLDEtMzIsMzJBMzIsMzIsMCwwLDEsMTYwLDY0Wm0wLDM4NGEzMiwzMiwwLDEsMSwzMi0zMkEzMiwzMiwwLDAsMSwxNjAsNDQ4Wk0zNTIsMTkyYTMyLDMyLDAsMSwxLDMyLTMyQTMyLDMyLDAsMCwxLDM1MiwxOTJaIi8+PC9zdmc+;fontFamily=Helvetica;imageBorder=default;" vertex="1" parent="1">
                    <mxGeometry x="-3218.5900000000006" y="-910" width="47.18" height="44" as="geometry"/>
                </mxCell>
                <mxCell id="56" style="edgeStyle=none;html=1;" parent="1" edge="1">
                    <mxGeometry relative="1" as="geometry">
                        <mxPoint x="-2942" y="-1399" as="sourcePoint"/>
                        <mxPoint x="-3171" y="-1399" as="targetPoint"/>
                    </mxGeometry>
                </mxCell>
                <mxCell id="57" value="Commit" style="edgeLabel;html=1;align=center;verticalAlign=middle;resizable=0;points=[];fontSize=12;" parent="56" vertex="1" connectable="0">
                    <mxGeometry x="0.295" y="-3" relative="1" as="geometry">
                        <mxPoint x="25" y="3" as="offset"/>
                    </mxGeometry>
                </mxCell>
            </root>
        </mxGraphModel>
    </diagram>
</mxfile>